<svg width="63" height="48" viewBox="0 0 63 48" fill="none" xmlns="http://www.w3.org/2000/svg">
<path fill-rule="evenodd" clip-rule="evenodd" d="M14.1317 28.2319C11.7832 27.6503 9.69715 26.299 8.2063 24.3935C6.71545 22.4881 5.9057 20.1382 5.90625 17.7188V16.7344C5.90625 13.8626 7.04707 11.1084 9.07773 9.07773C11.1084 7.04707 13.8626 5.90625 16.7344 5.90625H17.7188C20.5277 5.90372 23.2275 6.99407 25.2469 8.9466C27.2664 10.8991 28.447 13.5607 28.539 16.3682V16.38H28.5469V17.7188C28.5469 18.2359 28.5114 18.7425 28.4406 19.2386C28.3618 20.2676 28.2437 21.2782 28.0862 22.2705C27.6709 24.87 26.9315 27.4071 25.8851 29.8226C24.0091 34.1498 21.0831 37.9406 17.3723 40.8516L16.9864 41.1508C16.8233 41.2749 16.6243 41.3426 16.4194 41.3438C16.2499 41.3431 16.0835 41.2988 15.9363 41.215C15.789 41.1312 15.6659 41.0108 15.5787 40.8655C15.4916 40.7202 15.4435 40.5548 15.439 40.3855C15.4345 40.2161 15.4738 40.0484 15.5531 39.8987C16.4876 38.1215 17.3415 36.3032 18.1125 34.4492C18.8882 32.5828 19.6718 30.4605 20.3057 28.2358C19.4594 28.4452 18.5906 28.5497 17.7188 28.5469H16.7344C15.834 28.5443 14.9664 28.4393 14.1317 28.2319ZM11.97 33.7641C8.51191 32.737 5.47828 30.62 3.32124 27.7286C1.1642 24.8372 -0.000752153 21.3261 3.64344e-07 17.7188V16.7344C3.64344e-07 12.2961 1.76308 8.03969 4.90139 4.90139C8.03969 1.76308 12.2961 3.51271e-07 16.7344 3.51271e-07H17.7188C23.436 3.51271e-07 28.4799 2.8665 31.5 7.23712C33.0389 5.00455 35.0973 3.17936 37.4979 1.91867C39.8986 0.657969 42.5697 -0.000477636 45.2812 3.51271e-07H46.2656C50.6458 -0.000896509 54.8517 1.71563 57.9805 4.78106C61.1092 7.8465 62.9114 12.0165 63 16.3958V17.7188C63 18.4406 62.9541 19.1533 62.8622 19.8568C62.0471 30.1731 57.5151 39.4104 49.1282 45.8404C47.9333 46.7545 46.4707 47.2498 44.9663 47.25C39.6861 47.25 36.5164 41.6391 38.871 37.1543C39.3081 36.3234 39.8947 35.154 40.5169 33.768C37.4513 32.8552 34.7116 31.0829 32.6222 28.6611C30.4896 35.4988 26.2813 41.503 20.5813 45.8404C19.3864 46.7545 17.9238 47.2498 16.4194 47.25C11.1392 47.25 7.9695 41.6391 10.3241 37.1543C10.7612 36.3234 11.3479 35.154 11.97 33.768M42.6825 28.2319C43.5173 28.4393 44.3848 28.5443 45.2852 28.5469H46.2696C47.1411 28.5458 48.0095 28.4414 48.8565 28.2358C48.1389 30.7439 47.2441 33.1979 46.179 35.5793C45.5362 37.042 44.8441 38.4827 44.1039 39.8987C44.0246 40.0484 43.9853 40.2161 43.9898 40.3855C43.9943 40.5548 44.0424 40.7202 44.1296 40.8655C44.2167 41.0108 44.3398 41.1312 44.4871 41.215C44.6344 41.2988 44.8008 41.3431 44.9702 41.3438C45.1751 41.3426 45.3741 41.2749 45.5372 41.1508L45.9231 40.8516C47.1096 39.9118 48.2016 38.9038 49.1991 37.8276C51.5232 35.3294 53.3773 32.4322 54.6722 29.2753C55.5941 27.0239 56.2521 24.6733 56.6331 22.2705C56.796 21.2655 56.9155 20.2539 56.9914 19.2386C57.0622 18.7399 57.0977 18.2332 57.0977 17.7188V16.3839H57.0938V16.3682C57.0017 13.5593 55.82 10.8966 53.7989 8.94386C51.7778 6.99111 49.076 5.90167 46.2656 5.90625H45.2773C42.4055 5.90625 39.6513 7.04707 37.6207 9.07773C35.59 11.1084 34.4492 13.8626 34.4492 16.7344V17.7188C34.4492 22.7981 37.9536 27.0664 42.6746 28.2319" fill="#25ABE2"/>
</svg>
