<svg width="46" height="47" viewBox="0 0 46 47" fill="none" xmlns="http://www.w3.org/2000/svg">
<path d="M39.3936 31.3013H34.6644C33.144 31.3013 31.6795 31.8662 30.5452 32.8687C29.2395 31.7832 27.5639 31.1299 25.7375 31.1299H19.8904C18.064 31.1299 16.3884 31.7832 15.0827 32.8687C13.9484 31.8662 12.4839 31.3013 10.9635 31.3013H6.23429C2.79636 31.3013 0 34.0986 0 37.5356L0 42.2089C0 43.0697 0.700219 43.7708 1.56196 43.7708H12.3576V44.4422C12.3576 45.4122 13.1462 46.2008 14.1163 46.2008H31.5144C32.4844 46.2008 33.273 45.4122 33.273 44.4422V43.7708H44.0687C44.9295 43.7708 45.6306 43.0706 45.6306 42.2089V37.5356C45.6288 34.0986 42.8316 31.3013 39.3936 31.3013ZM1.56105 42.3262C1.5006 42.3262 1.44465 42.2702 1.44465 42.2098L1.44465 37.5365C1.44465 34.8954 3.59313 32.7469 6.23429 32.7469H10.9635C12.1013 32.7469 13.1995 33.1611 14.0621 33.8974C12.9965 35.1977 12.3567 36.8589 12.3567 38.6672V42.3262H1.56105ZM31.8266 44.4422C31.8266 44.6145 31.6858 44.7553 31.5135 44.7553H27.5657V39.1346C27.5657 38.7357 27.2427 38.4118 26.8429 38.4118C26.4432 38.4118 26.1201 38.7348 26.1201 39.1346V44.7562H19.5105V39.1346C19.5105 38.7357 19.1874 38.4118 18.7877 38.4118C18.388 38.4118 18.0649 38.7348 18.0649 39.1346V44.7562H14.1145C13.9412 44.7562 13.8013 44.6154 13.8013 44.4431V38.6672C13.8013 37.0177 14.461 35.5207 15.5284 34.4225C15.5347 34.4171 15.5411 34.4126 15.5474 34.4072C15.5763 34.3819 15.6015 34.354 15.625 34.3242C16.724 33.2432 18.2301 32.5754 19.8895 32.5754H25.7366C27.3961 32.5754 28.9021 33.2441 30.0011 34.3251C30.0246 34.354 30.0499 34.3819 30.0787 34.4072C30.085 34.4126 30.0914 34.4171 30.0977 34.4225C31.1651 35.5207 31.8248 37.0177 31.8248 38.6672V44.4422H31.8266ZM44.1833 42.2098C44.1833 42.2702 44.1282 42.3262 44.0669 42.3262H33.2712V38.6672C33.2712 36.8589 32.6306 35.1977 31.5658 33.8974C32.4284 33.1611 33.5257 32.7469 34.6644 32.7469H39.3936C42.0348 32.7469 44.1833 34.8954 44.1833 37.5365V42.2098ZM8.60024 30.9611C10.8967 30.9611 12.8061 29.272 13.1535 27.0702H17.7554C18.6154 29.0103 20.559 30.3674 22.814 30.3674C25.0689 30.3674 27.0117 29.0103 27.8725 27.0702H32.4744C32.8228 29.272 34.733 30.9611 37.0304 30.9611C39.5741 30.9611 41.6432 28.8921 41.6432 26.3484C41.6432 23.8047 39.5741 21.7356 37.0304 21.7356C36.7985 21.7356 36.5711 21.7536 36.3491 21.7861V2.15111C36.3491 0.964531 35.3836 -0.000976562 34.197 -0.000976562L11.4318 -0.000976562C10.2452 -0.000976562 9.2797 0.964531 9.2797 2.15111V21.7852C9.05773 21.7527 8.83124 21.7347 8.60024 21.7347C6.05653 21.7347 3.98746 23.8038 3.98746 26.3475C3.98746 28.8921 6.05653 30.9611 8.60024 30.9611ZM22.814 28.9228C20.5608 28.9228 18.7281 27.0901 18.7281 24.8369C18.7281 22.5829 20.5608 20.7484 22.814 20.7484C25.0671 20.7484 26.8998 22.5829 26.8998 24.8369C26.8998 27.0901 25.0671 28.9228 22.814 28.9228ZM40.1985 26.3484C40.1985 28.0953 38.7773 29.5165 37.0304 29.5165C35.2834 29.5165 33.8623 28.0953 33.8623 26.3484C33.8623 24.6014 35.2834 23.1802 37.0304 23.1802C38.7773 23.1802 40.1985 24.6014 40.1985 26.3484ZM32.4744 25.6256H28.2885C28.3255 25.3675 28.3453 25.104 28.3453 24.836C28.3453 21.7843 25.8639 19.302 22.814 19.302C21.594 19.302 20.4661 19.6999 19.5511 20.3712C19.524 20.2305 19.5087 20.0861 19.5087 19.9399C19.5087 18.701 20.5166 17.6931 21.7555 17.6931C22.0325 17.6931 22.3023 17.7427 22.5559 17.8402C22.7779 17.925 23.0278 17.8952 23.2236 17.7608C23.4194 17.6263 23.5367 17.4034 23.5367 17.1652V14.2579H25.5417C25.5318 14.3688 25.5264 14.4816 25.5264 14.5944C25.5264 16.6301 27.184 18.2868 29.2215 18.2868C31.2572 18.2868 32.9139 16.6301 32.9139 14.5944C32.9139 14.4816 32.9085 14.3697 32.8986 14.2579H34.9036V22.2562C33.6322 22.9204 32.7064 24.1593 32.4744 25.6256ZM34.9036 2.15111V12.8132H31.9962C31.758 12.8132 31.536 12.9305 31.4007 13.1263C31.2662 13.3221 31.2364 13.5721 31.3213 13.7941C31.4187 14.0485 31.4683 14.3174 31.4683 14.5944C31.4683 15.8334 30.4604 16.8413 29.2215 16.8413C27.9808 16.8413 26.972 15.8334 26.972 14.5944C26.972 14.3174 27.0216 14.0485 27.119 13.7941C27.2039 13.5721 27.1741 13.3221 27.0396 13.1263C26.9052 12.9305 26.6823 12.8132 26.4441 12.8132H23.5367V10.8055C23.6486 10.8154 23.7605 10.8208 23.8733 10.8208C25.9108 10.8208 27.5684 9.16413 27.5684 7.12844C27.5684 5.09275 25.9108 3.43605 23.8733 3.43605C23.7605 3.43605 23.6486 3.44146 23.5367 3.45139V1.44368L34.1961 1.44368C34.5859 1.44368 34.9036 1.7613 34.9036 2.15111ZM10.7244 2.15111C10.7244 1.7613 11.042 1.44368 11.4318 1.44368H22.0912V4.35283C22.0912 4.59015 22.2076 4.81303 22.4034 4.94748C22.5992 5.08193 22.8482 5.11261 23.0702 5.02779C23.3274 4.93033 23.5972 4.8807 23.8724 4.8807C25.1131 4.8807 26.1219 5.88862 26.1219 7.12754C26.1219 8.36646 25.1131 9.37438 23.8724 9.37438C23.5972 9.37438 23.3274 9.32475 23.0702 9.22729C22.8482 9.14338 22.5992 9.17315 22.4034 9.3076C22.2076 9.44295 22.0912 9.66493 22.0912 9.90225V12.8132H20.0862C20.0961 12.7013 20.1015 12.5876 20.1015 12.4739C20.1015 10.4382 18.4448 8.78154 16.4091 8.78154C14.3716 8.78154 12.714 10.4382 12.714 12.4739C12.714 12.5876 12.7194 12.7004 12.7294 12.8132H10.7244V2.15111ZM10.7244 14.2588H13.6317C13.869 14.2588 14.0919 14.1424 14.2264 13.9466C14.3608 13.7507 14.3915 13.5017 14.3067 13.2797C14.2092 13.0226 14.1596 12.7518 14.1596 12.4748C14.1596 11.2359 15.1684 10.228 16.4091 10.228C17.648 10.228 18.656 11.2359 18.656 12.4748C18.656 12.7518 18.6063 13.0226 18.5089 13.2797C18.4241 13.5017 18.4547 13.7507 18.5892 13.9466C18.7245 14.1424 18.9465 14.2588 19.1838 14.2588H22.0912V16.2638C21.9802 16.2538 21.8674 16.2484 21.7546 16.2484C19.7189 16.2484 18.0622 17.9051 18.0622 19.9408C18.0622 20.4831 18.1804 21.0128 18.406 21.4974C17.7013 22.4259 17.2826 23.5827 17.2826 24.836C17.2826 25.104 17.3024 25.3675 17.3394 25.6256H13.1535C12.9216 24.1584 11.9958 22.9195 10.7244 22.2562V14.2588ZM8.60024 23.1802C10.3454 23.1802 11.7657 24.6014 11.7657 26.3484C11.7657 28.0953 10.3454 29.5165 8.60024 29.5165C6.8533 29.5165 5.43211 28.0953 5.43211 26.3484C5.43211 24.6014 6.8533 23.1802 8.60024 23.1802Z" fill="#25ABE2"/>
</svg>
