<svg width="66" height="55" viewBox="0 0 66 55" fill="none" xmlns="http://www.w3.org/2000/svg">
<path d="M37.4672 43.4137C37.4672 42.827 37.9429 42.3512 38.5297 42.3512C46.804 42.3512 53.5355 35.6196 53.5355 27.3454C53.5355 19.0712 46.8039 12.3393 38.5297 12.3393C30.2555 12.3393 23.5237 19.0711 23.5237 27.3454C23.5237 27.9322 23.048 28.4079 22.4612 28.4079C21.8745 28.4079 21.3987 27.9322 21.3987 27.3454C21.3987 17.8993 29.0836 10.2143 38.5297 10.2143C47.9757 10.2143 55.6605 17.8993 55.6605 27.3454C55.6605 36.7916 47.9757 44.4762 38.5297 44.4762C37.9429 44.4762 37.4672 44.0005 37.4672 43.4137ZM38.5297 35.0167C37.9429 35.0167 37.4672 35.4924 37.4672 36.0792C37.4672 36.6659 37.9429 37.1417 38.5297 37.1417C43.9314 37.1417 48.3262 32.7469 48.3262 27.3452C48.3262 21.9434 43.9314 17.5486 38.5297 17.5486C33.1279 17.5486 28.7332 21.9434 28.7332 27.3452C28.7332 27.9319 29.2089 28.4077 29.7957 28.4077C30.3824 28.4077 30.8582 27.9319 30.8582 27.3452C30.8582 23.1151 34.2996 19.6736 38.5297 19.6736C42.7597 19.6736 46.2012 23.1151 46.2012 27.3452C46.2012 31.5752 42.7597 35.0167 38.5297 35.0167ZM38.9602 30.5645C38.9602 31.1513 39.436 31.627 40.0227 31.627C40.6095 31.627 41.0852 31.1513 41.0852 30.5645V25.8522C41.0852 25.2655 40.6095 24.7897 40.0227 24.7897H35.3106C34.7238 24.7897 34.2481 25.2655 34.2481 25.8522C34.2481 26.439 34.7238 26.9147 35.3106 26.9147H37.3247L22.5486 40.3284L19.1437 34.88C18.9769 34.6129 18.7002 34.4338 18.3883 34.3905C18.0756 34.3477 17.7615 34.4447 17.5284 34.6564L0.348336 50.2527C-0.0860933 50.6471 -0.118632 51.3189 0.275821 51.7534C0.485399 51.9844 0.773602 52.1018 1.06273 52.1018C1.3176 52.1018 1.57313 52.0107 1.7766 51.826L18.0156 37.0843L21.4205 42.5327C21.5873 42.7998 21.864 42.9789 22.1759 43.0222C22.4883 43.0653 22.8028 42.9679 23.0358 42.7563L38.9605 28.2998V30.5647L38.9602 30.5645ZM64.8123 26.2827H62.9704C62.427 13.6361 52.2386 3.44781 39.5922 2.90448V1.0625C39.5922 0.475734 39.1164 0 38.5297 0C37.9429 0 37.4672 0.475734 37.4672 1.0625V2.90448C24.8206 3.44781 14.6321 13.6361 14.0887 26.2828H12.2469C11.6601 26.2828 11.1844 26.7585 11.1844 27.3453C11.1844 27.9321 11.6601 28.4078 12.2469 28.4078H15.1241H15.1268H15.1293H18.007C18.5937 28.4078 19.0695 27.9321 19.0695 27.3453C19.0695 26.7585 18.5937 26.2828 18.007 26.2828H16.2152C16.7552 14.8081 25.9924 5.57095 37.4672 5.03094V6.82245C37.4672 7.40921 37.9429 7.88495 38.5297 7.88495C39.1164 7.88495 39.5922 7.40921 39.5922 6.82245V5.03094C51.0668 5.57095 60.3039 14.8081 60.844 26.2827H59.0525C58.4658 26.2827 57.99 26.7584 57.99 27.3452C57.99 27.9319 58.4658 28.4077 59.0525 28.4077H60.844C60.3041 39.8824 51.067 49.1196 39.5923 49.6597V47.868C39.5923 47.2812 39.1166 46.8055 38.5298 46.8055C37.943 46.8055 37.4673 47.2812 37.4673 47.868V50.7454V50.7479C37.4673 50.7479 37.4673 50.7496 37.4673 50.7504V53.6278C37.4673 54.2146 37.943 54.6903 38.5298 54.6903C39.1166 54.6903 39.5923 54.2146 39.5923 53.6278V51.7859C52.239 51.2425 62.4273 41.0541 62.9704 28.4074H64.8123C65.3991 28.4074 65.8748 27.9317 65.8748 27.3449C65.8748 26.7581 65.3991 26.2824 64.8123 26.2824V26.2827Z" fill="#25ABE2"/>
</svg>
