<svg width="60" height="65" viewBox="0 0 60 65" fill="none" xmlns="http://www.w3.org/2000/svg">
<path fill-rule="evenodd" clip-rule="evenodd" d="M59.5834 40.3517L53.0039 25.5126C52.5258 20.2492 50.9984 15.6114 48.4617 11.7253C46.1614 8.20181 43.1001 5.3822 39.3641 3.34619C31.7433 -0.808188 21.9311 -1.12295 14.9478 2.56259C12.176 4.02619 8.19695 6.67447 4.9882 10.9789C1.52578 15.6247 -0.148985 21.0209 0.0103903 27.0147C0.176406 33.2463 3.11422 39.2507 5.95508 45.0573C9.00312 51.2862 11.8812 57.1685 11.5226 63.1663C11.5093 63.3854 11.5877 63.6006 11.7377 63.7599C11.8878 63.9193 12.0977 64.011 12.3181 64.011H40.8436C41.2832 64.011 41.6405 63.6537 41.6405 63.2141V57.7661C41.6405 57.2335 42.0734 56.7992 42.6073 56.7992H47.8946C50.3662 56.7992 52.377 54.7885 52.377 52.3155V43.4981H57.5355C58.3071 43.4981 58.9924 43.1275 59.4121 42.4794C59.8345 41.8339 59.8969 41.057 59.5834 40.3517ZM58.0773 41.6121C57.9512 41.8074 57.7679 41.9056 57.5355 41.9056H51.5802C51.1405 41.9056 50.7833 42.2629 50.7833 42.7025V52.3168C50.7833 53.9106 49.487 55.2068 47.8946 55.2068H42.6073C41.1955 55.2068 40.0467 56.3556 40.0467 57.7674V62.4185H13.1455C13.2266 56.2892 10.2595 50.2277 7.38812 44.3574C4.62164 38.7035 1.76086 32.8585 1.60414 26.9722C1.23492 13.1185 11.3327 6.27205 15.6916 3.97173C22.222 0.525249 31.4298 0.83603 38.6017 4.74603C46.0432 8.80345 50.5987 16.2742 51.4287 25.7849C51.4367 25.8725 51.458 25.9575 51.4938 26.0385L58.1265 40.9985C58.2208 41.211 58.2048 41.4169 58.0773 41.6121ZM25.4905 6.28666C15.653 6.28666 7.64977 14.2899 7.64977 24.1274C7.64977 33.9648 15.653 41.9667 25.4905 41.9667C35.3279 41.9667 43.3312 33.9635 43.3312 24.1274C43.3312 14.2913 35.3279 6.28666 25.4905 6.28666ZM25.4905 40.373C16.5323 40.373 9.24352 33.0842 9.24352 24.126C9.24352 15.1678 16.5323 7.87908 25.4905 7.87908C34.4487 7.87908 41.7374 15.1678 41.7374 24.1274C41.7374 33.0856 34.4487 40.373 25.4905 40.373ZM30.637 13.8995C29.5054 14.0814 27.9993 14.7535 26.8491 16.8174C25.5476 15.8425 23.8834 15.7336 22.4345 15.6406C20.4688 15.5145 18.7715 15.4042 17.7993 13.6392C17.6359 13.343 17.3026 13.1823 16.9692 13.2381C16.6359 13.2938 16.3729 13.5555 16.3158 13.8888C15.754 17.1534 16.9719 20.7127 19.4966 23.1804C20.3466 24.0118 21.2856 24.6506 22.2512 25.0783C19.9389 27.1263 16.693 28.7227 13.9677 29.0932C13.6343 29.1384 13.3647 29.3881 13.2956 29.7174C13.2252 30.0468 13.37 30.3842 13.6569 30.5608L20.7172 34.9091C20.846 34.9888 20.9908 35.0273 21.1355 35.0273C21.3281 35.0273 21.518 34.9582 21.6681 34.8228L25.0827 31.7535L27.7018 31.7481C29.7644 31.7442 31.5268 30.8835 32.8005 29.2619C34.0741 27.6402 34.4912 25.7238 34.0051 23.7196L33.8882 23.2375C33.5216 21.7208 34.1923 20.1948 35.5603 19.4404L37.2895 18.4868C37.4994 18.3713 37.6455 18.1667 37.688 17.9317C37.7305 17.6966 37.6654 17.4535 37.51 17.2716C35.3744 14.7681 32.8695 13.5395 30.637 13.8995ZM34.7913 18.0432C32.7872 19.1495 31.803 21.3861 32.3409 23.6107L32.4578 24.0928C32.8244 25.6056 32.5096 27.0519 31.548 28.2764C30.5865 29.501 29.2557 30.1491 27.6991 30.1531L24.7746 30.1597C24.578 30.1597 24.3895 30.2327 24.2434 30.3642L21.0466 33.2383L16.1763 30.2381C18.992 29.4146 21.9245 27.7 24.007 25.6109C24.347 25.668 24.6856 25.6972 25.0203 25.6972C25.3802 25.6972 25.7348 25.664 26.0815 25.5963C26.5131 25.5113 26.7947 25.0929 26.711 24.6613C26.626 24.2296 26.2077 23.9467 25.776 24.0331C24.1451 24.3518 22.214 23.6067 20.6109 22.0409C18.9375 20.4046 17.9334 18.2185 17.7913 16.0324C19.1301 17.0245 20.8048 17.1335 22.3322 17.2317C24.6577 17.3818 26.4945 17.5 27.1984 20.3435C27.3047 20.7712 27.7363 21.0315 28.164 20.9253C28.5916 20.819 28.852 20.3874 28.7457 19.9597C28.5598 19.208 28.3021 18.5917 27.9927 18.0844C28.6992 16.5663 29.6953 15.6659 30.8906 15.472C32.329 15.2395 34.0542 16.0192 35.628 17.581L34.7913 18.0432ZM31.1762 16.5358C31.6158 16.5358 31.973 16.8931 31.973 17.3327C31.973 17.7723 31.6158 18.1295 31.1762 18.1295C30.7366 18.1295 30.3793 17.7723 30.3793 17.3327C30.3793 16.8917 30.7366 16.5358 31.1762 16.5358Z" fill="#25ABE2"/>
</svg>
