<svg width="41" height="33" viewBox="0 0 41 33" fill="none" xmlns="http://www.w3.org/2000/svg">
<path d="M6.29068 22.7847H0.721875C0.530422 22.7847 0.34681 22.8607 0.211432 22.9961C0.0760546 23.1315 0 23.3151 0 23.5065V31.8867C0 32.0782 0.0760546 32.2618 0.211432 32.3971C0.34681 32.5325 0.530422 32.6086 0.721875 32.6086H6.29068C6.48213 32.6086 6.66574 32.5325 6.80111 32.3971C6.93649 32.2618 7.01254 32.0782 7.01255 31.8867V23.5065C7.01254 23.3151 6.93649 23.1315 6.80111 22.9961C6.66574 22.8607 6.48213 22.7847 6.29068 22.7847ZM5.5688 31.1648H1.44375V24.2284H5.5688V31.1648Z" fill="#25ABE2"/>
<path d="M17.4284 16.8525H11.8596C11.6681 16.8525 11.4845 16.9286 11.3491 17.064C11.2137 17.1993 11.1377 17.383 11.1377 17.5744V31.8864C11.1377 32.0779 11.2137 32.2615 11.3491 32.3969C11.4845 32.5323 11.6681 32.6083 11.8596 32.6083H17.4284C17.6198 32.6083 17.8034 32.5322 17.9388 32.3969C18.0742 32.2615 18.1502 32.0779 18.1502 31.8864V17.5744C18.1502 17.383 18.0742 17.1994 17.9388 17.064C17.8034 16.9286 17.6198 16.8525 17.4284 16.8525ZM16.7065 31.1646H12.5814V18.2963H16.7065V31.1646Z" fill="#25ABE2"/>
<path d="M28.5656 10.6382H22.9968C22.8053 10.6382 22.6217 10.7143 22.4863 10.8496C22.351 10.985 22.2749 11.1686 22.2749 11.3601V31.8866C22.2749 32.0781 22.351 32.2617 22.4863 32.397C22.6217 32.5324 22.8053 32.6085 22.9968 32.6085H28.5656C28.757 32.6085 28.9406 32.5324 29.076 32.3971C29.2114 32.2617 29.2875 32.0781 29.2875 31.8866V11.3601C29.2874 11.1686 29.2114 10.985 29.076 10.8496C28.9406 10.7143 28.757 10.6382 28.5656 10.6382ZM27.8437 31.1647H23.7187V12.0819H27.8437V31.1647Z" fill="#25ABE2"/>
<path d="M39.703 5.78564H34.1342C33.9428 5.78566 33.7592 5.86171 33.6238 5.99709C33.4884 6.13246 33.4124 6.31607 33.4124 6.50752V31.8863C33.4124 32.0777 33.4884 32.2613 33.6238 32.3967C33.7592 32.5321 33.9428 32.6082 34.1342 32.6082H39.703C39.8945 32.6082 40.0781 32.5321 40.2135 32.3967C40.3489 32.2614 40.4249 32.0777 40.4249 31.8863V6.50752C40.4249 6.31607 40.3488 6.13246 40.2135 5.99709C40.0781 5.86171 39.8945 5.78565 39.703 5.78564ZM38.9812 31.1644H34.8561V7.22939H38.9812V31.1644Z" fill="#25ABE2"/>
<path d="M4.03964 17.0313C4.18038 17.0313 4.31801 16.99 4.43548 16.9125L25.2554 3.22397L24.4302 6.61521C24.389 6.79977 24.4219 6.99309 24.5218 7.15365C24.6217 7.3142 24.7806 7.42917 24.9643 7.47385C25.148 7.51853 25.3419 7.48936 25.5044 7.39259C25.6668 7.29583 25.7848 7.13921 25.833 6.95637L27.0914 1.78486C27.1148 1.68862 27.1181 1.58861 27.1012 1.49103C27.0842 1.39346 27.0474 1.30041 26.993 1.21767C26.9386 1.13492 26.8677 1.06425 26.7849 1.01006C26.702 0.955857 26.6088 0.919284 26.5112 0.902611L21.2645 0.00801293C21.0776 -0.0200676 20.8871 0.0262887 20.7339 0.137125C20.5808 0.247962 20.4772 0.414438 20.4455 0.600796C20.4137 0.787155 20.4564 0.978531 20.5642 1.13382C20.672 1.28911 20.8364 1.39593 21.0221 1.43133L24.4621 2.01793L3.6424 15.7063C3.5157 15.7935 3.41992 15.9186 3.36886 16.0637C3.31779 16.2087 3.31408 16.3662 3.35824 16.5136C3.40241 16.6609 3.49218 16.7904 3.61462 16.8834C3.73707 16.9764 3.88589 17.0282 4.03964 17.0313Z" fill="#25ABE2"/>
</svg>
