<svg width="72" height="72" viewBox="0 0 72 72" fill="none" xmlns="http://www.w3.org/2000/svg">
<path d="M69.472 63.7682H69.3439V62.1095C69.3439 60.7157 68.2099 59.5816 66.8159 59.5816H63.8048V57.2945C63.8048 56.2081 62.9506 55.3197 61.8789 55.2597V33.7608C62.9506 33.7007 63.8048 32.8124 63.8048 31.7259V29.4388H66.7261C67.8392 29.4388 68.7448 28.5333 68.7448 27.4202V25.2647H70.2803C71.1838 25.2647 71.919 24.5295 71.919 23.6261V21.7631C71.919 21.1607 71.5899 20.6084 71.0598 20.3217L46.8724 7.24159C46.3589 6.96343 45.7182 7.15496 45.4409 7.66824C45.1634 8.18139 45.3544 8.82235 45.8675 9.09967L69.8064 22.0455V23.152H2.19361V22.0546L36.5192 4.0442L41.5148 6.74589C42.0282 7.02376 42.6689 6.83237 42.9463 6.31923C43.2238 5.80609 43.0328 5.16512 42.5197 4.88781L37.524 2.18598C36.9069 1.85228 36.1675 1.84763 35.5461 2.1736L0.958641 20.3169C0.417234 20.6008 0.081 21.1569 0.081 21.768V23.6259C0.081 24.5295 0.816188 25.2645 1.7197 25.2645H3.25519V27.4202C3.25519 28.5332 4.16067 29.4388 5.27386 29.4388H8.1952V31.7259C8.1952 32.8124 9.04936 33.7007 10.1211 33.7608V47.7565C10.1211 48.3399 10.594 48.8127 11.1773 48.8127C11.7606 48.8127 12.2335 48.3398 12.2335 47.7565V33.7667H15.6136V55.2539H12.2337V52.721C12.2337 52.1375 11.7607 51.6647 11.1774 51.6647C10.5941 51.6647 10.1212 52.1375 10.1212 52.721V55.2597C9.0495 55.3197 8.19534 56.2081 8.19534 57.2945V59.5816H5.18414C3.79027 59.5816 2.65613 60.7157 2.65613 62.1095V63.7682H2.52802C1.134 63.7682 0 64.9022 0 66.2962V68.5056C0 69.3668 0.700734 70.0676 1.56192 70.0676H70.4381C71.2993 70.0676 72 69.3669 72 68.5056V66.2962C72 64.9022 70.866 63.7682 69.472 63.7682ZM5.3678 27.3264V25.2647H66.6322V27.3264H5.3678ZM61.6922 57.3664V59.5815H54.4604V57.3664H61.6922ZM56.3863 55.2538V33.7666H59.7663V55.2538H56.3863ZM54.4604 31.6541V29.439H61.6922V31.6541H54.4604ZM47.1614 55.2597V33.7608C48.2331 33.7007 49.0873 32.8124 49.0873 31.7259V29.4388H52.3478V31.7259C52.3478 32.8124 53.202 33.7007 54.2737 33.7608V55.2597C53.202 55.3197 52.3478 56.2081 52.3478 57.2945V59.5816H49.0873V57.2945C49.0873 56.2081 48.2331 55.3197 47.1614 55.2597ZM46.9747 57.3664V59.5815H39.7429V57.3664H46.9747ZM41.6687 55.2538V33.7666H45.0488V55.2538H41.6687ZM39.7429 31.6541V29.439H46.9747V31.6541H39.7429ZM32.4439 55.2597V33.7608C33.5156 33.7007 34.3697 32.8124 34.3697 31.7259V29.4388H37.6303V31.7259C37.6303 32.8124 38.4844 33.7007 39.5561 33.7608V55.2597C38.4844 55.3197 37.6303 56.2081 37.6303 57.2945V59.5816H34.3697V57.2945C34.3697 56.2081 33.5156 55.3197 32.4439 55.2597ZM31.3875 57.3664H32.2571V59.5815H25.0253V57.3664H25.895H31.3875ZM26.9512 55.2538V33.7666H30.3313V55.2538H26.9512ZM25.0253 31.6541V29.439H32.2571V31.6541H25.0253ZM17.7263 55.2597V33.7608C18.798 33.7007 19.6522 32.8124 19.6522 31.7259V29.4388H22.9127V31.7259C22.9127 32.8124 23.7669 33.7007 24.8386 33.7608V55.2597C23.7669 55.3197 22.9127 56.2081 22.9127 57.2945V59.5816H19.6522V57.2945C19.6522 56.2081 18.798 55.3197 17.7263 55.2597ZM10.3078 31.6541V29.439H17.5396V31.6541H10.3078ZM10.3078 57.3664H11.1774H16.6701H17.5397V59.5815H10.3078V57.3664ZM4.76873 62.1095C4.76873 61.8806 4.95506 61.6941 5.18414 61.6941H66.8159C67.0449 61.6941 67.2313 61.8804 67.2313 62.1095V63.7682H4.76873V62.1095ZM69.8874 67.955H2.11261V66.2962C2.11261 66.0673 2.29894 65.8808 2.52802 65.8808H69.472C69.7011 65.8808 69.8874 66.0671 69.8874 66.2962V67.955Z" fill="#25ABE2"/>
</svg>
