<svg width="24" height="24" viewBox="0 0 24 24" fill="none" xmlns="http://www.w3.org/2000/svg">
<path fill-rule="evenodd" clip-rule="evenodd" d="M20.6383 6.5455L12.7922 13.1178C12.5692 13.3047 12.2888 13.4069 11.9992 13.4069C11.7097 13.4069 11.4292 13.3047 11.2063 13.1178L3.36386 6.5455C3.32178 6.67361 3.30038 6.80775 3.30047 6.94275V16.9999C3.30047 17.3333 3.43142 17.6531 3.6645 17.8888C3.89758 18.1246 4.21371 18.257 4.54333 18.257H19.4576C19.7872 18.257 20.1034 18.1246 20.3364 17.8888C20.5695 17.6531 20.7005 17.3333 20.7005 16.9999V6.94275C20.701 6.80782 20.68 6.67368 20.6383 6.5455ZM4.54333 4.42847H19.4576C20.1169 4.42847 20.7491 4.69336 21.2153 5.16488C21.6814 5.6364 21.9433 6.27592 21.9433 6.94275V16.9999C21.9433 17.6667 21.6814 18.3062 21.2153 18.7778C20.7491 19.2493 20.1169 19.5142 19.4576 19.5142H4.54333C3.88408 19.5142 3.25183 19.2493 2.78567 18.7778C2.3195 18.3062 2.05762 17.6667 2.05762 16.9999V6.94275C2.05762 6.27592 2.3195 5.6364 2.78567 5.16488C3.25183 4.69336 3.88408 4.42847 4.54333 4.42847ZM4.28233 5.68561L11.2125 11.4722C11.4345 11.6577 11.7132 11.7594 12.001 11.7601C12.2889 11.7608 12.5681 11.6604 12.7909 11.476L19.7907 5.68561H4.28233Z" fill="#666666"/>
</svg>
