<svg width="72" height="72" viewBox="0 0 72 72" fill="none" xmlns="http://www.w3.org/2000/svg">
<g clip-path="url(#clip0_381_4193)">
<path d="M63.0002 19.9999C62.5002 19.3 53.9951 26.2877 53.5197 26.6273L42.5169 35.3888L28.322 29.4798C27.9824 29.344 27.5749 29.4119 27.3032 29.6157L12.0895 40.4826C11.614 40.8222 11.4782 41.5014 11.8178 41.9768C12.0215 42.3164 12.3611 42.4523 12.7007 42.4523C12.9045 42.4523 13.1082 42.3844 13.312 42.2485L28.0503 31.7212L42.3132 37.6301C42.6528 37.7659 43.1282 37.698 43.3999 37.4942L54.8781 28.3932C55.3535 28.0536 64.0003 21.3999 63.0002 19.9999Z" fill="#25ABE2"/>
<path d="M70.9748 64.0503H65.9488V32.604C65.9488 31.9928 65.4734 31.5173 64.8621 31.5173H54.8781C54.2668 31.5173 53.7914 31.9928 53.7914 32.604V64.0503H50.1238V43.471C50.1238 42.8597 49.6484 42.3843 49.0371 42.3843H38.9852C38.3739 42.3843 37.8985 42.8597 37.8985 43.471V64.0503H34.2309V41.8409C34.2309 41.2297 33.7555 40.7542 33.1442 40.7542H23.1602C22.5489 40.7542 22.0735 41.2297 22.0735 41.8409V64.0503H18.4059V48.2253C18.4059 47.614 17.9305 47.1386 17.3192 47.1386H7.26727C6.65601 47.1386 6.18058 47.614 6.18058 48.2253V64.0503H1.0867C0.475429 64.0503 0 64.5257 0 65.137C0 65.7482 0.475429 66.2237 1.0867 66.2237H7.19936H17.1834H23.1602H33.1442H38.9852H48.9692H54.8102H64.7942H70.9069C71.5181 66.2237 71.9936 65.7482 71.9936 65.137C72.0615 64.5257 71.586 64.0503 70.9748 64.0503ZM16.1646 64.0503H8.35397V49.312H16.1646V64.0503ZM32.0575 64.0503H24.2469V42.9276H32.0575V64.0503ZM47.8825 64.0503H40.0719V44.5577H47.8825V64.0503ZM63.7754 64.0503H55.9648V33.6907H63.7754V64.0503Z" fill="#25ABE2"/>
</g>
<defs>
<clipPath id="clip0_381_4193">
<rect width="72" height="72" fill="white"/>
</clipPath>
</defs>
</svg>
