<svg width="24" height="24" viewBox="0 0 24 24" fill="none" xmlns="http://www.w3.org/2000/svg">
<path d="M16.6309 13.8911L17.0869 13.4381L16.0279 12.3741L15.5739 12.8271L16.6309 13.8911ZM18.6159 13.2481L20.5269 14.2871L21.2419 12.9691L19.3319 11.9311L18.6159 13.2481ZM20.8939 16.3511L19.4739 17.7641L20.5309 18.8271L21.9509 17.4151L20.8939 16.3511ZM18.6079 18.2181C17.1579 18.3541 13.4079 18.2331 9.34588 14.1951L8.28788 15.2581C12.7199 19.6651 16.9389 19.8811 18.7479 19.7121L18.6079 18.2181ZM9.34588 14.1951C5.47488 10.3451 4.83288 7.10808 4.75288 5.70308L3.25488 5.78808C3.35488 7.55608 4.14988 11.1441 8.28788 15.2581L9.34588 14.1951ZM10.7209 8.01508L11.0079 7.72908L9.95188 6.66608L9.66488 6.95108L10.7209 8.01508ZM11.2359 4.09408L9.97588 2.41008L8.77488 3.31008L10.0349 4.99308L11.2359 4.09408ZM5.73488 2.04308L4.16488 3.60308L5.22288 4.66708L6.79188 3.10708L5.73488 2.04308ZM10.1929 7.48308C9.66288 6.95108 9.66288 6.95108 9.66288 6.95308H9.66088L9.65788 6.95708C9.61036 7.005 9.56781 7.0576 9.53088 7.11408C9.47688 7.19408 9.41788 7.29908 9.36788 7.43208C9.24616 7.77541 9.21583 8.14449 9.27988 8.50308C9.41388 9.36808 10.0099 10.5111 11.5359 12.0291L12.5939 10.9651C11.1649 9.54508 10.8249 8.68108 10.7619 8.27308C10.7319 8.07908 10.7629 7.98308 10.7719 7.96108C10.7779 7.94775 10.7779 7.94575 10.7719 7.95508C10.763 7.96888 10.7529 7.98193 10.7419 7.99408L10.7319 8.00408L10.7219 8.01308L10.1929 7.48308ZM11.5359 12.0291C13.0629 13.5471 14.2119 14.1391 15.0779 14.2711C15.5209 14.3391 15.8779 14.2851 16.1489 14.1841C16.3007 14.1286 16.4425 14.0489 16.5689 13.9481L16.6189 13.9031L16.6259 13.8971L16.6289 13.8941L16.6299 13.8921C16.6299 13.8921 16.6309 13.8911 16.1019 13.3591C15.5719 12.8271 15.5749 12.8261 15.5749 12.8261L15.5769 12.8241L15.5789 12.8221L15.5849 12.8171L15.5949 12.8071L15.6329 12.7771C15.6422 12.7711 15.6399 12.7717 15.6259 12.7791C15.6009 12.7881 15.5029 12.8191 15.3059 12.7891C14.8919 12.7251 14.0219 12.3851 12.5939 10.9651L11.5359 12.0291ZM9.97588 2.40908C8.95588 1.04908 6.95188 0.833082 5.73488 2.04308L6.79188 3.10708C7.32388 2.57808 8.26788 2.63308 8.77488 3.31008L9.97588 2.40908ZM4.75388 5.70408C4.73388 5.35808 4.89288 4.99608 5.22288 4.66808L4.16388 3.60408C3.62688 4.13808 3.20388 4.89408 3.25488 5.78808L4.75388 5.70408ZM19.4739 17.7641C19.1999 18.0381 18.9039 18.1921 18.6089 18.2191L18.7479 19.7121C19.4829 19.6431 20.0839 19.2731 20.5319 18.8281L19.4739 17.7641ZM11.0079 7.72908C11.9929 6.75008 12.0659 5.20308 11.2369 4.09508L10.0359 4.99408C10.4389 5.53308 10.3789 6.24008 9.95088 6.66708L11.0079 7.72908ZM20.5279 14.2881C21.3449 14.7321 21.4719 15.7781 20.8949 16.3521L21.9529 17.4151C23.2929 16.0821 22.8799 13.8591 21.2429 12.9701L20.5279 14.2881ZM17.0869 13.4391C17.4709 13.0571 18.0889 12.9631 18.6169 13.2491L19.3329 11.9321C18.2489 11.3421 16.9049 11.5051 16.0289 12.3751L17.0869 13.4391Z" fill="#666666"/>
</svg>
