<svg width="24" height="20" viewBox="0 0 24 20" fill="none" xmlns="http://www.w3.org/2000/svg">
<path d="M4.77778 19.1111C3.46389 19.1111 2.33912 18.6433 1.40347 17.7076C0.467824 16.772 0 15.6472 0 14.3333V4.77778C0 3.46389 0.467824 2.33912 1.40347 1.40347C2.33912 0.467824 3.46389 0 4.77778 0H19.1111C20.425 0 21.5498 0.467824 22.4854 1.40347C23.4211 2.33912 23.8889 3.46389 23.8889 4.77778V14.3333C23.8889 15.6472 23.4211 16.772 22.4854 17.7076C21.5498 18.6433 20.425 19.1111 19.1111 19.1111H4.77778ZM4.77778 4.77778H19.1111C19.5491 4.77778 19.9671 4.82755 20.3653 4.92708C20.7634 5.02662 21.1417 5.18588 21.5 5.40486V4.77778C21.5 4.12083 21.2661 3.55845 20.7983 3.09063C20.3304 2.6228 19.7681 2.38889 19.1111 2.38889H4.77778C4.12083 2.38889 3.55845 2.6228 3.09063 3.09063C2.6228 3.55845 2.38889 4.12083 2.38889 4.77778V5.40486C2.74722 5.18588 3.12546 5.02662 3.52361 4.92708C3.92176 4.82755 4.33981 4.77778 4.77778 4.77778ZM2.56806 8.65972L15.8562 11.8847C16.0354 11.9245 16.2146 11.9245 16.3937 11.8847C16.5729 11.8449 16.7421 11.7653 16.9014 11.6458L21.0521 8.18194C20.8331 7.88333 20.5544 7.63947 20.216 7.45035C19.8775 7.26123 19.5093 7.16667 19.1111 7.16667H4.77778C4.26019 7.16667 3.80729 7.30104 3.4191 7.56979C3.0309 7.83854 2.74722 8.20185 2.56806 8.65972Z" fill="#A73A05"/>
</svg>
