<svg width="25" height="24" viewBox="0 0 25 24" fill="none" xmlns="http://www.w3.org/2000/svg">
<path d="M17.8571 12.878L12.9167 8.13659C12.3016 7.55122 11.7808 6.90244 11.3542 6.19024C10.9276 5.47805 10.7143 4.70244 10.7143 3.86341C10.7143 2.79024 11.0962 1.87805 11.8601 1.12683C12.624 0.37561 13.5516 0 14.6429 0C15.2778 0 15.873 0.131707 16.4286 0.395122C16.9841 0.658537 17.4603 1.01463 17.8571 1.46341C18.254 1.01463 18.7302 0.658537 19.2857 0.395122C19.8413 0.131707 20.4365 0 21.0714 0C22.1627 0 23.0903 0.37561 23.8542 1.12683C24.6181 1.87805 25 2.79024 25 3.86341C25 4.70244 24.7917 5.47805 24.375 6.19024C23.9583 6.90244 23.4425 7.55122 22.8274 8.13659L17.8571 12.878ZM17.8571 9.6L21.1012 6.46829C21.4782 6.09756 21.8254 5.70244 22.1429 5.28293C22.4603 4.86341 22.619 4.39024 22.619 3.86341C22.619 3.43415 22.4702 3.07317 22.1726 2.78049C21.875 2.4878 21.5079 2.34146 21.0714 2.34146C20.7937 2.34146 20.5308 2.39512 20.2827 2.50244C20.0347 2.60976 19.8214 2.77073 19.6429 2.98537L17.8571 5.09268L16.0714 2.98537C15.8929 2.77073 15.6796 2.60976 15.4315 2.50244C15.1835 2.39512 14.9206 2.34146 14.6429 2.34146C14.2063 2.34146 13.8393 2.4878 13.5417 2.78049C13.244 3.07317 13.0952 3.43415 13.0952 3.86341C13.0952 4.39024 13.254 4.86341 13.5714 5.28293C13.8889 5.70244 14.2361 6.09756 14.6131 6.46829L17.8571 9.6ZM7.14286 19.3171L15.4167 21.5415L22.5 19.3756C22.4008 19.2 22.2569 19.0488 22.0685 18.922C21.88 18.7951 21.6667 18.7317 21.4286 18.7317H15.4167C14.881 18.7317 14.4544 18.7122 14.1369 18.6732C13.8194 18.6341 13.4921 18.5561 13.1548 18.439L10.3869 17.5317L11.0417 15.2488L13.4524 16.039C13.7897 16.1366 14.1865 16.2146 14.6429 16.2732C15.0992 16.3317 15.7738 16.3707 16.6667 16.3902C16.6667 16.1756 16.6022 15.9707 16.4732 15.7756C16.3442 15.5805 16.1905 15.4537 16.0119 15.3951L9.04762 12.878H7.14286V19.3171ZM0 23.4146V10.5366H9.04762C9.18651 10.5366 9.3254 10.5512 9.46429 10.5805C9.60317 10.6098 9.73214 10.6439 9.85119 10.6829L16.8452 13.2293C17.5 13.4634 18.0308 13.8732 18.4375 14.4585C18.8442 15.0439 19.0476 15.6878 19.0476 16.3902H21.4286C22.4206 16.3902 23.2639 16.7122 23.9583 17.3561C24.6528 18 25 18.8488 25 19.9024V21.0732L15.4762 24L7.14286 21.7171V23.4146H0ZM2.38095 21.0732H4.7619V12.878H2.38095V21.0732Z" fill="#006972"/>
</svg>
