<svg width="21" height="22" viewBox="0 0 21 22" fill="none" xmlns="http://www.w3.org/2000/svg">
<path d="M2.33333 22C1.69167 22 1.14236 21.7846 0.685417 21.3538C0.228472 20.9229 0 20.405 0 19.8V4.4C0 3.795 0.228472 3.27708 0.685417 2.84625C1.14236 2.41542 1.69167 2.2 2.33333 2.2H3.5V0H5.83333V2.2H15.1667V0H17.5V2.2H18.6667C19.3083 2.2 19.8576 2.41542 20.3146 2.84625C20.7715 3.27708 21 3.795 21 4.4V19.8C21 20.405 20.7715 20.9229 20.3146 21.3538C19.8576 21.7846 19.3083 22 18.6667 22H2.33333ZM2.33333 19.8H18.6667V8.8H2.33333V19.8ZM2.33333 6.6H18.6667V4.4H2.33333V6.6Z" fill="#515F74"/>
</svg>
