<svg width="25" height="19" viewBox="0 0 25 19" fill="none" xmlns="http://www.w3.org/2000/svg">
<path d="M14.7105 10.1842C13.7675 10.1842 12.966 9.85417 12.3059 9.19408C11.6458 8.53399 11.3158 7.73246 11.3158 6.78947C11.3158 5.84649 11.6458 5.04496 12.3059 4.38487C12.966 3.72478 13.7675 3.39474 14.7105 3.39474C15.6535 3.39474 16.455 3.72478 17.1151 4.38487C17.7752 5.04496 18.1053 5.84649 18.1053 6.78947C18.1053 7.73246 17.7752 8.53399 17.1151 9.19408C16.455 9.85417 15.6535 10.1842 14.7105 10.1842ZM6.78947 13.5789C6.16711 13.5789 5.63432 13.3573 5.19112 12.9141C4.74792 12.4709 4.52632 11.9382 4.52632 11.3158V2.26316C4.52632 1.64079 4.74792 1.108 5.19112 0.664803C5.63432 0.221601 6.16711 0 6.78947 0H22.6316C23.2539 0 23.7867 0.221601 24.2299 0.664803C24.6731 1.108 24.8947 1.64079 24.8947 2.26316V11.3158C24.8947 11.9382 24.6731 12.4709 24.2299 12.9141C23.7867 13.3573 23.2539 13.5789 22.6316 13.5789H6.78947ZM9.05263 11.3158H20.3684C20.3684 10.6934 20.59 10.1606 21.0332 9.71743C21.4764 9.27423 22.0092 9.05263 22.6316 9.05263V4.52632C22.0092 4.52632 21.4764 4.30471 21.0332 3.86151C20.59 3.41831 20.3684 2.88553 20.3684 2.26316H9.05263C9.05263 2.88553 8.83103 3.41831 8.38783 3.86151C7.94463 4.30471 7.41184 4.52632 6.78947 4.52632V9.05263C7.41184 9.05263 7.94463 9.27423 8.38783 9.71743C8.83103 10.1606 9.05263 10.6934 9.05263 11.3158ZM21.5 18.1053H2.26316C1.64079 18.1053 1.108 17.8837 0.664803 17.4405C0.221601 16.9973 0 16.4645 0 15.8421V3.39474H2.26316V15.8421H21.5V18.1053Z" fill="#FF7A45"/>
</svg>
