<svg width="32" height="32" viewBox="0 0 32 32" fill="none" xmlns="http://www.w3.org/2000/svg">
<g clip-path="url(#clip0_390_16613)">
<path fill-rule="evenodd" clip-rule="evenodd" d="M1.14591 8.19999C0.80277 8.36138 0.512639 8.61709 0.309422 8.93725C0.106204 9.2574 -0.00170898 9.62878 -0.00170898 10.008C-0.00170898 10.3872 0.106204 10.7586 0.309422 11.0787C0.512639 11.3989 0.80277 11.6546 1.14591 11.816L4.00591 13.166V21.006C4.00591 22.49 4.48791 24.146 5.89391 25.166C7.66591 26.446 10.8939 28.006 16.0139 28.006C21.1339 28.006 24.3539 26.436 26.1339 25.166C27.5399 24.15 28.0219 22.506 28.0219 21.006V13.166L30.0219 12.22V21C30.0219 21.2652 30.1273 21.5196 30.3148 21.7071C30.5023 21.8946 30.7567 22 31.0219 22C31.2871 22 31.5415 21.8946 31.729 21.7071C31.9166 21.5196 32.0219 21.2652 32.0219 21V9.99999C32.022 9.62122 31.9145 9.25022 31.712 8.93015C31.5095 8.61008 31.2202 8.3541 30.8779 8.19199L19.4379 2.79199C18.3687 2.28636 17.2007 2.02411 16.0179 2.02411C14.8352 2.02411 13.6671 2.28636 12.5979 2.79199L1.15791 8.19199L1.14591 8.19999ZM6.00591 21V14.1L12.5859 17.22C13.6551 17.7256 14.8232 17.9879 16.0059 17.9879C17.1887 17.9879 18.3567 17.7256 19.4259 17.22L26.0059 14.1V21C26.0059 22.112 25.6459 23.02 24.9459 23.52C23.4979 24.566 20.6859 26 16.0059 26C11.3259 26 8.50591 24.576 7.06591 23.52C6.36791 23.016 6.00591 22.102 6.00591 21ZM13.4459 4.59999C14.2461 4.22094 15.1205 4.02432 16.0059 4.02432C16.8913 4.02432 17.7657 4.22094 18.5659 4.59999L30.0059 9.99999L18.5659 15.4C17.7657 15.779 16.8913 15.9757 16.0059 15.9757C15.1205 15.9757 14.2461 15.779 13.4459 15.4L2.00591 9.99999L13.4459 4.59999Z" fill="#555555" fill-opacity="0.65"/>
</g>
<defs>
<clipPath id="clip0_390_16613">
<rect width="32" height="32" fill="white"/>
</clipPath>
</defs>
</svg>
