<svg width="32" height="32" viewBox="0 0 32 32" fill="none" xmlns="http://www.w3.org/2000/svg">
<g clip-path="url(#clip0_390_16579)">
<path fill-rule="evenodd" clip-rule="evenodd" d="M8.18435 10.7888C9.14907 10.7888 10.0743 10.4055 10.7564 9.72336C11.4386 9.0412 11.8218 8.11599 11.8218 7.15127C11.8218 6.18655 11.4386 5.26135 10.7564 4.57919C10.0743 3.89703 9.14907 3.51379 8.18435 3.51379C7.21963 3.51379 6.29443 3.89703 5.61227 4.57919C4.93011 5.26135 4.54688 6.18655 4.54688 7.15127C4.54688 8.11599 4.93011 9.0412 5.61227 9.72336C6.29443 10.4055 7.21963 10.7888 8.18435 10.7888ZM8.18435 8.97001C8.66671 8.97001 9.12932 8.7784 9.4704 8.43732C9.81148 8.09624 10.0031 7.63363 10.0031 7.15127C10.0031 6.66891 9.81148 6.20631 9.4704 5.86523C9.12932 5.52415 8.66671 5.33253 8.18435 5.33253C7.70199 5.33253 7.23939 5.52415 6.89831 5.86523C6.55723 6.20631 6.36561 6.66891 6.36561 7.15127C6.36561 7.63363 6.55723 8.09624 6.89831 8.43732C7.23939 8.7784 7.70199 8.97001 8.18435 8.97001Z" fill="#666666" fill-opacity="0.65"/>
<path d="M11.1563 15.7012L5.9729 13.5168L11.1563 15.703V15.7012ZM11.1563 15.7012L11.3127 15.7675L11.1563 15.5311V15.7012Z" fill="#666666" fill-opacity="0.65"/>
<path fill-rule="evenodd" clip-rule="evenodd" d="M3.47374 12.5984C3.98572 12.2101 4.84871 11.6981 5.9736 11.6981H10.5168C11.7563 11.6981 12.6811 12.351 13.1313 12.7148C13.6587 13.1413 14.1152 13.6542 14.468 14.0925C15.0309 14.7891 15.5502 15.5793 15.8466 16.0276L15.853 16.0367C15.9239 16.1458 15.9797 16.2301 16.0203 16.2895C16.2086 16.5669 16.3386 16.8679 16.4141 17.1753C16.4805 16.8224 16.6196 16.4778 16.8369 16.1622C16.9267 16.0313 17.0349 15.8706 17.1616 15.6803L17.1716 15.6639C17.5171 15.1437 17.9836 14.4426 18.4447 13.8688C18.7721 13.4605 19.2013 12.9803 19.7205 12.5829C20.2143 12.2046 21.0555 11.6981 22.1558 11.6981H26.5472C27.7594 11.6981 28.6606 12.3438 29.0934 12.6975C29.6045 13.1149 30.0446 13.616 30.3856 14.0434C30.9285 14.7245 31.4314 15.4956 31.716 15.9331L31.7197 15.9394L31.7224 15.9431L31.7279 15.9512C31.7945 16.0543 31.8467 16.1337 31.8843 16.1895C32.158 16.5977 32.3128 17.0739 32.3315 17.565C32.3502 18.0561 32.2321 18.5427 31.9902 18.9705C31.7483 19.3983 31.3923 19.7505 30.9618 19.9876C30.5314 20.2248 30.0435 20.3376 29.5526 20.3135C29.8145 21.262 30.0664 22.124 30.2483 22.7315C30.5339 23.6891 29.96 24.7239 28.9461 24.9358C25.6633 25.6224 23.3407 25.6006 19.8124 24.9267C19.5714 24.8798 19.343 24.7826 19.1421 24.6415C18.9412 24.5003 18.7723 24.3183 18.6465 24.1075C18.5207 23.8966 18.4408 23.6616 18.4119 23.4178C18.3831 23.1739 18.4061 22.9268 18.4793 22.6924C18.6666 22.0895 18.923 21.2447 19.1849 20.3117C18.5921 20.3498 18.0038 20.1867 17.5153 19.8488C16.9825 19.4829 16.6026 18.9341 16.4477 18.3065C16.3831 18.6638 16.2479 19.0046 16.0499 19.3089C15.8519 19.6133 15.5951 19.875 15.2946 20.0789C14.9641 20.3032 14.5884 20.4522 14.194 20.5154C13.7996 20.5785 13.3961 20.5543 13.0121 20.4444L13.0176 20.4899L13.6241 25.9461C13.7038 26.653 13.5042 27.3631 13.0679 27.9249C12.6315 28.4868 11.993 28.856 11.2884 28.9538C10.5838 29.0516 9.86885 28.8704 9.29595 28.4487C8.72305 28.027 8.33753 27.3982 8.22156 26.6964L8.18428 26.4736L8.1479 26.6964C8.03667 27.4026 7.65267 28.0369 7.07852 28.4628C6.50437 28.8888 5.78596 29.0724 5.07784 28.9741C4.36973 28.8758 3.7285 28.5034 3.29211 27.9371C2.85573 27.3709 2.65906 26.6559 2.74443 25.9461L3.21548 21.713L3.26004 20.4972C2.72636 20.6033 2.17314 20.5474 1.67148 20.3366C1.16983 20.1259 0.742651 19.7699 0.444851 19.3145C0.147052 18.8591 -0.00776372 18.3251 0.00029969 17.781C0.0083631 17.2369 0.178937 16.7077 0.490101 16.2613C0.57922 16.1322 0.686222 15.9746 0.811109 15.7885L0.836571 15.7512C1.19304 15.2192 1.67592 14.5008 2.15334 13.9143C2.49344 13.4959 2.93812 13.0049 3.47374 12.5984ZM5.97451 13.5169C5.41252 13.5169 4.93419 13.7742 4.57226 14.0479C4.20306 14.328 3.86477 14.6936 3.56559 15.061C3.1491 15.5739 2.71169 16.2222 2.34522 16.7679L2.33248 16.786C2.20608 16.9743 2.08604 17.1534 1.98329 17.3017C1.91052 17.3994 1.85813 17.5107 1.82923 17.629C1.80032 17.7474 1.79549 17.8703 1.81502 17.9906C1.83455 18.1108 1.87804 18.2259 1.94292 18.3291C2.00779 18.4322 2.09272 18.5212 2.19267 18.5909C2.29261 18.6605 2.40554 18.7094 2.52473 18.7346C2.64393 18.7597 2.76697 18.7607 2.88655 18.7374C3.00612 18.7141 3.1198 18.667 3.22083 18.5989C3.32185 18.5308 3.40817 18.4432 3.47465 18.3411L5.25338 15.7857L5.03149 21.8467L4.55316 26.148C4.52871 26.3826 4.59637 26.6176 4.74187 26.8032C4.88737 26.9889 5.09932 27.1107 5.33298 27.1431C5.56664 27.1754 5.80372 27.1157 5.99417 26.9765C6.18462 26.8373 6.31354 26.6296 6.35372 26.3972L7.25763 20.9755L8.19064 20.7682L9.11456 20.9846L10.0167 26.3972C10.0565 26.63 10.1854 26.8382 10.376 26.9777C10.5667 27.1171 10.8041 27.177 11.0381 27.1445C11.2721 27.112 11.4842 26.9897 11.6296 26.8036C11.775 26.6174 11.8423 26.382 11.8172 26.1471L11.2107 20.6909C11.2057 20.6467 11.1975 20.6029 11.1861 20.5599L11.157 20.4463V15.703L11.3143 15.7694L12.8239 18.0519L13.0112 18.332C13.1466 18.5315 13.3558 18.6692 13.5927 18.7145C13.8296 18.7599 14.0748 18.7093 14.2743 18.5739C14.4739 18.4384 14.6115 18.2293 14.6569 17.9924C14.7022 17.7555 14.6516 17.5103 14.5162 17.3108L14.3398 17.0452L11.3143 15.7694L11.3134 15.7676L14.338 17.0425L14.3343 17.0379C14.0352 16.5833 13.5568 15.8576 13.054 15.2338C12.7366 14.8409 12.3737 14.4399 11.99 14.1298C11.6317 13.8406 11.1188 13.5169 10.5177 13.5169H5.97451ZM20.7827 13.9688C21.1337 13.7006 21.6029 13.4441 22.1567 13.4441H26.5481C27.141 13.4441 27.6439 13.7669 27.9904 14.0498C28.3632 14.3544 28.7151 14.7472 29.0216 15.1319C29.509 15.7421 29.9719 16.4523 30.261 16.8961L30.2638 16.9006C30.3292 17.0007 30.3893 17.0925 30.4366 17.1625C30.5708 17.3615 30.6204 17.6056 30.5747 17.8412C30.5289 18.0768 30.3914 18.2846 30.1924 18.4188C29.9934 18.553 29.7493 18.6027 29.5137 18.5569C29.2781 18.5111 29.0703 18.3736 28.9361 18.1747C28.8208 18.0052 28.6495 17.8817 28.4523 17.8258C28.255 17.7699 28.0444 17.7853 27.8573 17.8691C27.6703 17.9529 27.5187 18.0999 27.4291 18.2843C27.3395 18.4687 27.3177 18.6787 27.3674 18.8776C27.783 20.529 28.2768 22.2286 28.576 23.2298C25.5523 23.8609 23.4681 23.8464 20.1461 23.2135L20.147 23.2107C20.6046 21.7478 21.0218 20.2725 21.3983 18.7867C21.4475 18.5881 21.4253 18.3785 21.3357 18.1946C21.2461 18.0106 21.0948 17.864 20.9081 17.7803C20.7214 17.6966 20.5112 17.6811 20.3143 17.7366C20.1174 17.792 19.9462 17.9149 19.8306 18.0837L19.7651 18.1801C19.6282 18.376 19.4193 18.5097 19.1841 18.5521C18.9489 18.5945 18.7065 18.5421 18.5097 18.4064C18.313 18.2707 18.178 18.0627 18.1341 17.8278C18.0902 17.5928 18.1411 17.3501 18.2756 17.1525C18.3747 17.0088 18.4911 16.8342 18.6129 16.6505L18.6175 16.6442C18.973 16.1086 19.3995 15.4684 19.806 14.9628C20.0952 14.6026 20.4235 14.2444 20.7827 13.9688ZM24.5529 10.7888C25.5177 10.7888 26.4429 10.4055 27.125 9.72336C27.8072 9.0412 28.1904 8.11599 28.1904 7.15127C28.1904 6.18655 27.8072 5.26135 27.125 4.57919C26.4429 3.89703 25.5177 3.51379 24.5529 3.51379C23.5882 3.51379 22.663 3.89703 21.9808 4.57919C21.2987 5.26135 20.9155 6.18655 20.9155 7.15127C20.9155 8.11599 21.2987 9.0412 21.9808 9.72336C22.663 10.4055 23.5882 10.7888 24.5529 10.7888ZM24.5529 8.97001C25.0353 8.97001 25.4979 8.77839 25.839 8.43731C26.1801 8.09624 26.3717 7.63363 26.3717 7.15127C26.3717 6.66891 26.1801 6.20631 25.839 5.86523C25.4979 5.52415 25.0353 5.33253 24.5529 5.33253C24.0706 5.33253 23.608 5.52415 23.2669 5.86523C22.9258 6.20631 22.7342 6.66891 22.7342 7.15127C22.7342 7.63363 22.9258 8.09624 23.2669 8.43731C23.608 8.77839 24.0706 8.97001 24.5529 8.97001Z" fill="#666666" fill-opacity="0.65"/>
<path d="M21.6431 28.9643C21.3157 28.9202 21.0155 28.7589 20.7981 28.5102C20.5806 28.2615 20.4609 27.9424 20.4609 27.6121V26.4881C21.462 26.6176 22.4686 26.7007 23.4773 26.7372L23.1409 27.9713C23.0539 28.29 22.8543 28.5663 22.579 28.7489C22.3037 28.9316 21.9715 29.0081 21.644 28.9643M25.9654 27.9713L25.6271 26.7327C26.6364 26.6911 27.6434 26.6052 28.6453 26.4753V27.6121C28.6452 27.9424 28.5253 28.2615 28.3078 28.5101C28.0902 28.7587 27.7898 28.9199 27.4624 28.9638C27.135 29.0077 26.8028 28.9313 26.5274 28.7487C26.2521 28.5662 26.0524 28.2899 25.9654 27.9713Z" fill="#666666" fill-opacity="0.65"/>
</g>
<defs>
<clipPath id="clip0_390_16579">
<rect width="32" height="32" fill="white"/>
</clipPath>
</defs>
</svg>
