<svg width="32" height="32" viewBox="0 0 32 32" fill="none" xmlns="http://www.w3.org/2000/svg">
<path d="M12.8166 4.24668C10.6946 4.24668 7.44127 5.47135 8.5726 13.0553C8.59038 13.17 8.61149 13.2938 8.63593 13.4267C8.8426 14.5673 9.16127 16.3333 7.13327 17.7893C8.5126 18.9213 10.4773 20.0527 12.8646 20.5427C12.7701 21.0841 12.6518 21.6211 12.5099 22.152C12.3159 22.864 11.9093 23.3687 11.1826 23.584C10.5426 23.7733 9.87193 23.9267 9.18527 24.084C9.00838 24.124 8.8306 24.1649 8.65193 24.2067C7.79527 24.406 6.92193 24.6267 6.14793 24.9387C5.37193 25.252 4.6506 25.674 4.12927 26.3033C3.5986 26.9453 3.3146 27.7547 3.33393 28.7667C3.3406 29.0813 3.60993 29.3333 3.9406 29.3333H28.0593C28.3899 29.3333 28.6593 29.0813 28.6659 28.7667C28.6853 27.7547 28.4019 26.9453 27.8706 26.3033C27.3499 25.674 26.6279 25.2513 25.8526 24.9387C25.0779 24.626 24.2046 24.4053 23.3473 24.206L22.8153 24.084C22.1279 23.9267 21.4573 23.7733 20.8173 23.584C20.0906 23.3687 19.6839 22.864 19.4899 22.152C19.3205 21.5198 19.1856 20.8789 19.0859 20.232C20.9113 19.6827 22.8513 18.6953 24.8666 17.1187L24.8573 17.1093C23.9113 16.204 22.1379 14.5067 22.0119 10.4773C22.0119 4.92935 18.4746 0.0533487 12.8166 4.24668Z" stroke="#666666" stroke-opacity="0.65" stroke-width="1.66667" stroke-linejoin="round"/>
</svg>
