<svg width="32" height="32" viewBox="0 0 32 32" fill="none" xmlns="http://www.w3.org/2000/svg">
<path d="M10.6667 30.6667L8.53333 29.0667L12 24.4333V17.3333C12 16.6445 12.0556 15.8947 12.1667 15.084C12.2778 14.2733 12.4444 13.5231 12.6667 12.8333L10.6667 13.9333V18.6667H8V12.4L13.8667 9.06668C14.4222 8.75556 14.9058 8.5169 15.3173 8.35068C15.7289 8.18445 16.112 8.1009 16.4667 8.10001C17.0222 8.10001 17.528 8.33912 17.984 8.81734C18.44 9.29556 18.9676 10.0453 19.5667 11.0667C20.2778 12.2667 20.9222 13.1667 21.5 13.7667C22.0778 14.3667 22.7 14.8222 23.3667 15.1333C23.6111 14.9556 23.8222 14.8333 24 14.7667C24.1778 14.7 24.3889 14.6667 24.6333 14.6667C25.1889 14.6667 25.6667 14.8667 26.0667 15.2667C26.4667 15.6667 26.6667 16.1333 26.6667 16.6667V30.6667H25.3333V16.6667C25.3333 16.4889 25.2667 16.3333 25.1333 16.2C25 16.0667 24.8444 16 24.6667 16C24.4889 16 24.3333 16.0667 24.2 16.2C24.0667 16.3333 24 16.4889 24 16.6667V18.3333H22.6667V17.7C21.4667 17.1889 20.5333 16.6169 19.8667 15.984C19.2 15.3511 18.6111 14.5009 18.1 13.4333C17.8556 14.0556 17.6613 14.8169 17.5173 15.7173C17.3733 16.6178 17.3231 17.4676 17.3667 18.2667L20 22V30.6667H17.3333V24L14.9667 20.6L14.6667 25.3333L10.6667 30.6667ZM18 7.33334C17.2667 7.33334 16.6391 7.07245 16.1173 6.55068C15.5956 6.0289 15.3342 5.4009 15.3333 4.66668C15.3324 3.93245 15.5938 3.3049 16.1173 2.78401C16.6409 2.26312 17.2684 2.00179 18 2.00001C18.7316 1.99823 19.3596 2.25956 19.884 2.78401C20.4084 3.30845 20.6693 3.93601 20.6667 4.66668C20.664 5.39734 20.4031 6.02534 19.884 6.55068C19.3649 7.07601 18.7369 7.3369 18 7.33334Z" fill="#666666" fill-opacity="0.65"/>
</svg>
