<svg width="32" height="32" viewBox="0 0 32 32" fill="none" xmlns="http://www.w3.org/2000/svg">
<path d="M16.0001 6C15.3812 6 14.7877 6.24583 14.3502 6.68342C13.9126 7.121 13.6667 7.71449 13.6667 8.33333C13.6667 8.95217 13.9126 9.54566 14.3502 9.98325C14.7877 10.4208 15.3812 10.6667 16.0001 10.6667C16.6189 10.6667 17.2124 10.4208 17.65 9.98325C18.0876 9.54566 18.3334 8.95217 18.3334 8.33333C18.3334 7.71449 18.0876 7.121 17.65 6.68342C17.2124 6.24583 16.6189 6 16.0001 6ZM11.6667 8.33333C11.6667 7.18406 12.1233 6.08186 12.936 5.2692C13.7486 4.45655 14.8508 4 16.0001 4C17.1494 4 18.2516 4.45655 19.0642 5.2692C19.8769 6.08186 20.3334 7.18406 20.3334 8.33333C20.3334 9.4826 19.8769 10.5848 19.0642 11.3975C18.2516 12.2101 17.1494 12.6667 16.0001 12.6667C14.8508 12.6667 13.7486 12.2101 12.936 11.3975C12.1233 10.5848 11.6667 9.4826 11.6667 8.33333ZM6.66675 8.66667C6.13631 8.66667 5.62761 8.87738 5.25253 9.25245C4.87746 9.62753 4.66675 10.1362 4.66675 10.6667C4.66675 11.1971 4.87746 11.7058 5.25253 12.0809C5.62761 12.456 6.13631 12.6667 6.66675 12.6667C7.19718 12.6667 7.70589 12.456 8.08096 12.0809C8.45603 11.7058 8.66675 11.1971 8.66675 10.6667C8.66675 10.1362 8.45603 9.62753 8.08096 9.25245C7.70589 8.87738 7.19718 8.66667 6.66675 8.66667ZM2.66675 10.6667C2.66675 9.6058 3.08818 8.58839 3.83832 7.83824C4.58847 7.08809 5.60588 6.66667 6.66675 6.66667C7.72761 6.66667 8.74503 7.08809 9.49517 7.83824C10.2453 8.58839 10.6667 9.6058 10.6667 10.6667C10.6667 11.7275 10.2453 12.7449 9.49517 13.4951C8.74503 14.2452 7.72761 14.6667 6.66675 14.6667C5.60588 14.6667 4.58847 14.2452 3.83832 13.4951C3.08818 12.7449 2.66675 11.7275 2.66675 10.6667ZM23.3334 10.6667C23.3334 10.1362 23.5441 9.62753 23.9192 9.25245C24.2943 8.87738 24.803 8.66667 25.3334 8.66667C25.8638 8.66667 26.3726 8.87738 26.7476 9.25245C27.1227 9.62753 27.3334 10.1362 27.3334 10.6667C27.3334 11.1971 27.1227 11.7058 26.7476 12.0809C26.3726 12.456 25.8638 12.6667 25.3334 12.6667C24.803 12.6667 24.2943 12.456 23.9192 12.0809C23.5441 11.7058 23.3334 11.1971 23.3334 10.6667ZM25.3334 6.66667C24.2725 6.66667 23.2551 7.08809 22.505 7.83824C21.7548 8.58839 21.3334 9.6058 21.3334 10.6667C21.3334 11.7275 21.7548 12.7449 22.505 13.4951C23.2551 14.2452 24.2725 14.6667 25.3334 14.6667C26.3943 14.6667 27.4117 14.2452 28.1618 13.4951C28.912 12.7449 29.3334 11.7275 29.3334 10.6667C29.3334 9.6058 28.912 8.58839 28.1618 7.83824C27.4117 7.08809 26.3943 6.66667 25.3334 6.66667ZM10.0001 17C10.0001 15.712 11.0454 14.6667 12.3334 14.6667H19.6667C20.9547 14.6667 22.0001 15.712 22.0001 17V22C22.0001 23.5913 21.3679 25.1174 20.2427 26.2426C19.1175 27.3679 17.5914 28 16.0001 28C14.4088 28 12.8827 27.3679 11.7574 26.2426C10.6322 25.1174 10.0001 23.5913 10.0001 22V17ZM12.3334 16.6667C12.245 16.6667 12.1602 16.7018 12.0977 16.7643C12.0352 16.8268 12.0001 16.9116 12.0001 17V22C12.0001 23.0609 12.4215 24.0783 13.1717 24.8284C13.9218 25.5786 14.9392 26 16.0001 26C17.0609 26 18.0784 25.5786 18.8285 24.8284C19.5787 24.0783 20.0001 23.0609 20.0001 22V17C20.0001 16.9116 19.965 16.8268 19.9024 16.7643C19.8399 16.7018 19.7552 16.6667 19.6667 16.6667H12.3334ZM8.81341 15.9707C8.71653 16.2987 8.66764 16.6418 8.66675 17V18.08L4.91475 19.0853C4.82936 19.1082 4.75652 19.164 4.71227 19.2405C4.66801 19.317 4.65595 19.4079 4.67875 19.4933L5.62808 23.036C5.87158 23.9448 6.4276 24.7386 7.19843 25.278C7.96926 25.8174 8.90556 26.0679 9.84275 25.9853C10.2627 26.6333 10.7827 27.2107 11.3801 27.6947C10.6042 27.9519 9.78388 28.0479 8.96953 27.9768C8.15519 27.9056 7.36397 27.6688 6.64443 27.2809C5.92489 26.893 5.29221 26.3621 4.78521 25.7209C4.27821 25.0797 3.90759 24.3416 3.69608 23.552L2.74675 20.0107C2.58668 19.413 2.67051 18.7763 2.9798 18.2405C3.2891 17.7047 3.79853 17.3136 4.39608 17.1533L8.81341 15.9707ZM20.6201 27.6947C20.7312 27.732 20.8436 27.7658 20.9574 27.796C22.4944 28.2077 24.132 27.992 25.51 27.1964C26.888 26.4007 27.8936 25.0903 28.3054 23.5533L29.2547 20.012C29.3342 19.716 29.3546 19.4072 29.3147 19.1034C29.2748 18.7995 29.1754 18.5065 29.0223 18.241C28.8691 17.9755 28.6651 17.7429 28.422 17.5562C28.1789 17.3696 27.9014 17.2327 27.6054 17.1533L23.1867 15.9693C23.2836 16.2982 23.3325 16.6418 23.3334 17V18.08L27.0881 19.0853C27.1732 19.1084 27.2457 19.1644 27.2897 19.2408C27.3337 19.3173 27.3456 19.4081 27.3227 19.4933L26.3734 23.036C26.1299 23.945 25.5737 24.739 24.8025 25.2785C24.0314 25.8179 23.0948 26.0682 22.1574 25.9853C21.738 26.6324 21.2192 27.2093 20.6201 27.6947Z" fill="#666666" fill-opacity="0.65"/>
</svg>
