<svg width="196" height="66" viewBox="0 0 196 66" fill="none" xmlns="http://www.w3.org/2000/svg">
<path d="M30.7164 3.19259C55.2505 2.13012 69.826 29.068 55.1989 48.9008C54.9373 49.2557 54.3674 50.0045 54.0048 50.1762C53.2322 50.0983 50.4584 46.659 49.7096 46.0268C49.2148 45.6091 49.473 45.2655 49.7664 44.7936C50.1957 44.1035 50.7542 43.4276 51.1737 42.711C52.9363 39.6699 53.9853 36.2695 54.2418 32.7657C54.6577 27.3613 52.5554 21.4886 49.0308 17.386C45.2202 12.9492 39.8096 10.1917 33.974 9.71259C28.351 9.28465 22.3982 11.2846 18.1417 14.965C14.688 17.9513 11.3884 22.776 11.0333 27.4087C12.676 27.8612 16.4159 28.1944 18.2648 28.4494C24.5752 29.3157 30.92 29.9528 37.2081 30.9955C37.8907 31.1088 41.4049 31.364 41.5638 31.9363C41.1171 32.2733 39.297 32.2724 38.6427 32.3195C37.036 32.4469 35.4281 32.5591 33.8193 32.6561C29.7684 32.9024 25.4639 33.1884 21.414 33.2784C17.638 33.5429 14.5138 33.4033 10.5592 33.8187C11.4861 39.4097 13.345 43.55 17.4476 47.4249C24.5531 54.1357 35.2634 55.1439 43.6566 50.3395C44.2815 49.9818 48.1386 46.988 48.1995 46.9858C49.1392 47.7549 50.3911 49.4422 51.2739 50.3827C53.7855 53.0585 56.2281 55.7866 59.074 58.1223C59.5453 58.5091 61.1589 59.6773 61.377 60.1218L61.3005 60.2268C59.2558 60.3831 51.3698 56.139 48.7846 55.2116C47.5929 55.6885 46.4562 56.5094 45.2892 57.1077C42.1097 58.7453 38.628 59.7162 35.0585 59.9605C26.9086 60.5376 19.8764 58.5274 13.6473 53.1349C7.89159 48.2079 4.37968 41.1651 3.91193 33.6116C3.32057 26.0239 5.84116 18.5216 10.8963 12.8235C16.0059 6.97542 22.9947 3.72395 30.7164 3.19259Z" fill="#25ABE2"/>
<path d="M121.03 23.0438C122.586 23.0123 123.528 22.8187 124.868 23.6039C125.016 24.0572 125.14 24.6123 125.144 25.0873C125.206 33.1446 125.181 41.2131 125.157 49.2706C125.155 50.1177 125.097 51.1858 124.158 51.3954C120.715 52.1635 113.636 52.6648 110.512 51.319C105.431 49.0943 105.735 43.6959 106.121 38.923C106.296 36.7589 107.547 34.5576 109.298 33.2773C112.109 31.2219 117.538 31.227 120.814 31.7723C120.829 29.2386 120.818 26.7049 120.779 24.1715C120.773 23.6638 120.692 23.3888 121.03 23.0438ZM115.363 48.3005C117.531 48.3316 118.608 48.313 120.795 47.9974C120.83 45.4923 120.84 42.9869 120.828 40.4817C120.828 39.2475 120.884 37.2602 120.769 36.0615C119.405 35.5641 117.843 35.3957 116.392 35.4777C110.961 35.7099 110.274 37.5483 110.432 42.7958C110.541 46.4037 111.677 48.1062 115.363 48.3005Z" fill="#25ABE2"/>
<path d="M177.494 31.2719C181.356 31.1538 187.668 31.1385 188.587 36.1107C189.913 43.2904 182.04 43.255 177.202 44.1701C176.16 44.3671 175.076 44.5789 174.02 44.7574C174.796 47.4092 176.301 47.9721 178.941 48.1418C181.046 48.2772 183.089 48.0724 185.185 47.91C185.792 47.8757 186.769 47.7693 187.299 48.0054C187.33 48.0747 187.378 48.1925 187.383 48.2702C187.473 49.715 187.857 51.8431 185.715 51.9123C182.179 52.0266 178.449 52.3775 174.966 51.5799C174.021 51.3634 172.874 50.6369 172.113 50.0441C170.279 48.536 169.45 45.962 169.265 43.6553C169.034 40.3494 169.127 36.6514 171.299 33.9379C171.848 33.251 172.714 32.6642 173.47 32.2524C174.745 31.5578 176.078 31.3973 177.494 31.2719ZM173.922 41.3013C175.324 40.9128 177.358 40.7608 178.989 40.343C180.944 40.0476 182.016 39.9571 183.732 38.876C185.358 34.7889 180.87 34.7663 178.157 35.0114C173.891 35.5528 173.942 37.5466 173.922 41.3013Z" fill="white"/>
<path d="M135.782 31.2725C138.437 31.0582 142.178 31.2142 144.454 32.6841C145.625 33.4396 146.491 34.2926 146.788 35.6995C148.385 43.259 140.792 43.18 135.643 44.1346C134.494 44.3475 133.448 44.5377 132.348 44.7795C132.61 45.6261 132.769 46.3812 133.47 46.979C135.514 48.7203 140.51 48.1353 143.06 47.9389C143.785 47.8664 144.806 47.8611 145.556 47.8387C145.651 49.3713 146.248 51.7829 144.087 51.8782C136.978 52.1919 128.257 53.4645 127.67 43.7016C127.283 37.2646 128.017 31.9306 135.782 31.2725ZM132.172 41.2514C134.003 40.9907 135.506 40.7321 137.311 40.3644C139.191 40.0249 140.649 39.9457 142.16 38.6902C143.085 34.6552 139.49 34.7908 136.565 34.9997C132.394 35.4769 132.105 37.4302 132.172 41.2514Z" fill="white"/>
<path d="M91.0743 31.5548C94.0811 31.3445 99.1791 31.3361 101.643 33.1972C102.801 34.0623 103.544 35.4621 103.628 36.9294C103.872 41.1834 103.697 45.5329 103.743 49.8C103.759 51.2233 102.589 51.5963 101.368 51.6987C97.5081 52.0221 93.4112 52.3333 89.6004 51.5304C88.7527 51.3516 87.5842 50.5977 86.9104 50.0748C85.5221 48.7896 85.3581 47.4887 85.3417 45.7002C85.3023 41.417 89.8371 40.5194 93.1906 39.9359L96.7387 39.2897C97.49 39.1507 98.5341 39.0424 99.1054 38.5248C99.583 38.0919 99.0451 36.3965 98.6116 36.1249C95.4481 34.1439 90.3148 35.6375 86.9157 35.8317C86.8529 34.7331 86.8453 33.7167 86.8413 32.6157C87.8255 31.6412 89.6445 31.7259 91.0743 31.5548ZM90.8986 47.7824C93.6622 48.7558 96.4066 48.5862 99.2786 48.1179C99.2528 47.1491 99.3303 43.0109 99.226 42.3553L99.0423 42.3452C97.7129 42.6271 96.3827 42.8996 95.0493 43.1628C93.862 43.3873 92.0519 43.6103 90.9863 44.0663C89.3841 44.7518 89.3806 46.8738 90.8986 47.7824Z" fill="#25ABE2"/>
<path d="M165.12 31.3074C165.842 31.2151 168.755 31.0742 169.19 31.5497C169.358 32.5276 167.54 36.1456 167.024 37.289L163.072 45.9956C160.753 50.6138 158.898 55.6119 156.522 60.2095C156.123 60.9816 152.471 60.804 151.834 60.5675C151.177 59.9198 152.21 58.1907 152.602 57.4622C153.821 55.2031 154.727 52.3673 155.998 50.1811C155.713 49.7008 155.481 49.0141 155.245 48.4835L153.604 44.8127L148.737 34.0947C148.465 33.5052 147.75 32.1588 147.966 31.5763C148.251 31.296 148.162 31.3793 148.604 31.2683C149.772 31.2448 151.184 31.2 152.328 31.3306C153.363 32.4098 154.16 34.765 154.777 36.2135L157.437 42.2993C157.812 43.1595 158.272 44.4394 158.675 45.1981C158.972 44.7698 159.461 43.472 159.718 42.899L162.832 35.8393C163.423 34.4818 164.14 32.3296 165.12 31.3074Z" fill="white"/>
<path d="M64.139 31.3277L68.4086 31.324C68.6463 34.4647 68.3276 37.8849 68.4455 41.0292C68.5084 42.7099 68.0351 46.91 69.8366 47.6847C71.895 48.57 76.3484 48.4284 78.4733 47.7531L78.475 38.2489C78.4737 36.9489 78.3522 32.5404 78.67 31.5153C79.0385 31.1909 82.2973 31.335 82.9598 31.3458C83.0981 32.185 83.0415 34.5041 83.0381 35.4512L83.0451 44.511C83.048 45.9391 83.2632 49.4843 82.8983 50.6388C82.8007 50.9476 82.4908 51.1451 82.2145 51.2843C79.8768 52.4621 70.5288 52.4419 67.9213 51.5681C66.454 51.0764 65.3682 50.2099 64.6892 48.8168C64.3395 48.0994 64.1602 47.3303 64.0827 46.5391C63.9229 44.9072 63.9041 31.9997 64.139 31.3277Z" fill="#25ABE2"/>
</svg>
