<svg width="252" height="252" viewBox="0 0 252 252" fill="none" xmlns="http://www.w3.org/2000/svg">
<path d="M117.743 0.134593C225.173 -4.55696 288.997 114.393 224.948 201.969C223.802 203.536 221.306 206.843 219.718 207.601C216.336 207.257 204.19 192.07 200.911 189.279C198.744 187.434 199.875 185.917 201.16 183.833C203.039 180.785 205.485 177.801 207.322 174.637C215.04 161.208 219.633 146.193 220.756 130.721C222.578 106.857 213.372 80.9245 197.938 62.8086C181.252 43.2169 157.56 31.0406 132.007 28.9251C107.385 27.0354 81.3193 35.8668 62.6809 52.1182C47.5577 65.305 33.1095 86.6094 31.5543 107.066C38.7476 109.064 55.1239 110.536 63.2198 111.662C90.8518 115.487 118.635 118.3 146.169 122.905C149.158 123.405 164.546 124.532 165.242 127.059C163.286 128.547 155.316 128.543 152.451 128.751C145.415 129.313 138.375 129.809 131.33 130.237C113.592 131.325 94.7433 132.588 77.0096 132.985C60.475 134.153 46.7949 133.537 29.4783 135.371C33.537 160.059 41.6769 178.342 59.6414 195.452C90.755 225.085 137.654 229.537 174.406 208.322C177.142 206.742 194.032 193.523 194.298 193.513C198.413 196.909 203.895 204.36 207.76 208.513C218.758 220.329 229.454 232.375 241.916 242.689C243.979 244.397 251.045 249.555 252 251.518L251.665 251.981C242.712 252.672 208.18 233.931 196.86 229.836C191.642 231.942 186.665 235.566 181.555 238.209C167.632 245.44 152.387 249.727 136.756 250.806C101.069 253.354 70.2765 244.477 43.0007 220.666C17.7974 198.909 2.41944 167.81 0.37125 134.456C-2.2182 100.951 8.819 67.8233 30.9547 42.6618C53.3286 16.8385 83.9313 2.48094 117.743 0.134593Z" fill="#25ABE2"/>
</svg>
