<svg width="186" height="63" viewBox="0 0 186 63" fill="none" xmlns="http://www.w3.org/2000/svg">
<path d="M29.1494 3.04758C52.4317 2.0334 66.2635 27.7468 52.3827 46.6782C52.1344 47.0169 51.5936 47.7317 51.2495 47.8956C50.5164 47.8212 47.884 44.5383 47.1735 43.9348C46.7039 43.5361 46.949 43.2081 47.2274 42.7577C47.6347 42.0989 48.1648 41.4537 48.5628 40.7697C50.2356 37.8668 51.231 34.621 51.4744 31.2764C51.8691 26.1177 49.8741 20.5119 46.5293 16.5958C42.9131 12.3607 37.7786 9.72853 32.2407 9.27121C26.9046 8.86272 21.2555 10.7718 17.2162 14.2849C13.9387 17.1355 10.8075 21.7408 10.4704 26.163C12.0294 26.5948 15.5784 26.9129 17.333 27.1564C23.3214 27.9833 29.3425 28.5914 35.3098 29.5868C35.9576 29.6949 39.2924 29.9385 39.4433 30.4848C39.0193 30.8064 37.2921 30.8055 36.6712 30.8505C35.1465 30.9721 33.6206 31.0792 32.0939 31.1719C28.2497 31.4069 24.1648 31.68 20.3215 31.7659C16.7381 32.0183 13.7734 31.8851 10.0205 32.2816C10.9001 37.6185 12.6642 41.5706 16.5575 45.2693C23.3004 51.6751 33.4643 52.6375 41.4293 48.0514C42.0223 47.71 45.6826 44.8523 45.7404 44.8502C46.6322 45.5843 47.8202 47.1949 48.6579 48.0927C51.0414 50.6469 53.3594 53.2509 56.0601 55.4805C56.5073 55.8497 58.0387 56.9648 58.2456 57.3891L58.173 57.4893C56.2326 57.6385 48.7489 53.5873 46.2957 52.7021C45.1648 53.1573 44.086 53.9408 42.9786 54.512C39.9613 56.0752 36.6573 57.002 33.2699 57.2351C25.5358 57.786 18.8623 55.8671 12.9511 50.7197C7.48903 46.0167 4.1563 39.294 3.71242 32.0839C3.15123 24.8411 5.54322 17.6798 10.3405 12.2407C15.1894 6.65846 21.8216 3.55479 29.1494 3.04758Z" fill="#25ABE2"/>
<path d="M114.855 21.9964C116.332 21.9664 117.226 21.7816 118.497 22.531C118.638 22.9637 118.756 23.4936 118.76 23.947C118.819 31.6381 118.794 39.3398 118.771 47.0311C118.77 47.8397 118.715 48.8593 117.823 49.0593C114.556 49.7925 107.838 50.271 104.874 48.9864C100.052 46.8628 100.34 41.7098 100.707 37.1539C100.873 35.0881 102.06 32.9868 103.722 31.7648C106.389 29.8028 111.541 29.8077 114.65 30.3282C114.665 27.9096 114.654 25.4911 114.617 23.0729C114.612 22.5883 114.535 22.3257 114.855 21.9964ZM109.478 46.1051C111.535 46.1348 112.557 46.117 114.632 45.8158C114.665 43.4245 114.675 41.0331 114.664 38.6417C114.664 37.4636 114.716 35.5666 114.607 34.4224C113.313 33.9476 111.831 33.7869 110.454 33.8652C105.3 34.0868 104.648 35.8416 104.798 40.8506C104.901 44.2945 105.979 45.9196 109.478 46.1051Z" fill="#25ABE2"/>
<path d="M168.438 29.8504C172.104 29.7376 178.093 29.7231 178.965 34.4693C180.224 41.3226 172.752 41.2888 168.161 42.1623C167.172 42.3504 166.144 42.5525 165.141 42.7229C165.878 45.2542 167.307 45.7915 169.811 45.9535C171.809 46.0827 173.747 45.8873 175.736 45.7323C176.313 45.6995 177.24 45.598 177.743 45.8233C177.773 45.8894 177.818 46.0019 177.823 46.0761C177.908 47.4552 178.272 49.4865 176.24 49.5526C172.885 49.6617 169.345 49.9967 166.04 49.2354C165.142 49.0287 164.054 48.3352 163.332 47.7693C161.591 46.3298 160.805 43.8728 160.629 41.6709C160.41 38.5153 160.499 34.9854 162.559 32.3952C163.081 31.7395 163.903 31.1794 164.62 30.7863C165.83 30.1233 167.095 29.9701 168.438 29.8504ZM165.049 39.424C166.379 39.0531 168.309 38.908 169.857 38.5092C171.712 38.2272 172.729 38.1408 174.358 37.1089C175.901 33.2076 171.642 33.186 169.068 33.4199C165.019 33.9368 165.068 35.8399 165.049 39.424Z" fill="black"/>
<path d="M128.854 29.8512C131.374 29.6467 134.924 29.7955 137.084 31.1986C138.195 31.9198 139.017 32.734 139.298 34.077C140.814 41.2928 133.608 41.2174 128.722 42.1287C127.632 42.3319 126.64 42.5134 125.595 42.7443C125.844 43.5523 125.995 44.2731 126.661 44.8438C128.6 46.5059 133.341 45.9475 135.761 45.7601C136.449 45.6909 137.418 45.6858 138.129 45.6644C138.219 47.1273 138.786 49.4293 136.735 49.5203C129.989 49.8197 121.713 51.0345 121.156 41.7153C120.789 35.5709 121.486 30.4794 128.854 29.8512ZM125.428 39.3766C127.166 39.1277 128.592 38.8808 130.305 38.5298C132.089 38.2057 133.473 38.1301 134.907 36.9317C135.785 33.0801 132.373 33.2096 129.597 33.409C125.639 33.8645 125.365 35.729 125.428 39.3766Z" fill="black"/>
<path d="M86.4276 30.1207C89.281 29.9199 94.1189 29.9119 96.4566 31.6884C97.5564 32.5142 98.2612 33.8503 98.3411 35.2509C98.5727 39.3116 98.4065 43.4633 98.4501 47.5366C98.4655 48.8951 97.3548 49.2511 96.1959 49.349C92.5331 49.6577 88.6452 49.9547 85.0288 49.1883C84.2244 49.0177 83.1155 48.2979 82.4761 47.7989C81.1586 46.572 81.003 45.3303 80.9874 43.6231C80.95 39.5346 85.2535 38.6778 88.4359 38.1208L91.8029 37.504C92.5159 37.3713 93.5067 37.2679 94.0489 36.7739C94.5021 36.3606 93.9917 34.7423 93.5803 34.4831C90.5782 32.5921 85.7068 34.0178 82.4811 34.2032C82.4216 33.1545 82.4143 32.1843 82.4105 31.1333C83.3445 30.2032 85.0707 30.2839 86.4276 30.1207ZM86.2608 45.6106C88.8834 46.5398 91.4878 46.3779 94.2133 45.9309C94.1888 45.0062 94.2624 41.056 94.1634 40.4302L93.989 40.4206C92.7275 40.6897 91.4651 40.9498 90.1998 41.201C89.0731 41.4153 87.3553 41.6282 86.344 42.0635C84.8236 42.7178 84.8202 44.7433 86.2608 45.6106Z" fill="#25ABE2"/>
<path d="M156.696 29.8842C157.381 29.7961 160.145 29.6615 160.558 30.1155C160.717 31.0489 158.992 34.5024 158.502 35.5938L154.752 43.9047C152.552 48.313 150.791 53.0839 148.537 57.4725C148.158 58.2095 144.692 58.04 144.087 57.8142C143.464 57.196 144.444 55.5455 144.817 54.8501C145.973 52.6937 146.833 49.9868 148.039 47.9C147.768 47.4415 147.548 46.786 147.324 46.2796L145.767 42.7755L141.148 32.5447C140.89 31.982 140.212 30.6969 140.416 30.1408C140.687 29.8733 140.603 29.9528 141.022 29.8469C142.13 29.8244 143.471 29.7817 144.556 29.9063C145.539 30.9365 146.295 33.1846 146.88 34.5672L149.405 40.3764C149.76 41.1975 150.197 42.4192 150.579 43.1434C150.862 42.7346 151.326 41.4958 151.569 40.9488L154.524 34.2101C155.085 32.9143 155.766 30.8599 156.696 29.8842Z" fill="black"/>
<path d="M60.8666 29.9038L64.9183 29.9003C65.1439 32.8983 64.8415 36.163 64.9533 39.1644C65.0131 40.7687 64.5639 44.7779 66.2735 45.5174C68.2268 46.3624 72.4531 46.2272 74.4695 45.5826L74.4712 36.5105C74.4699 35.2695 74.3546 31.0615 74.6562 30.0829C75.0059 29.7733 78.0984 29.9109 78.7271 29.9212C78.8583 30.7222 78.8047 32.9359 78.8014 33.8399L78.808 42.4879C78.8108 43.8511 79.015 47.2351 78.6687 48.3372C78.5762 48.632 78.2821 48.8204 78.0198 48.9534C75.8014 50.0776 66.9304 50.0583 64.4559 49.2242C63.0634 48.7549 62.0331 47.9278 61.3887 46.598C61.0568 45.9132 60.8866 45.179 60.8132 44.4238C60.6615 42.8661 60.6437 30.5453 60.8666 29.9038Z" fill="#25ABE2"/>
</svg>
