<svg width="48" height="48" viewBox="0 0 48 48" fill="none" xmlns="http://www.w3.org/2000/svg">
<path d="M40.5 36.752H7.5C6.39543 36.752 5.5 37.6474 5.5 38.752V40.752C5.5 41.8565 6.39543 42.752 7.5 42.752H40.5C41.6046 42.752 42.5 41.8565 42.5 40.752V38.752C42.5 37.6474 41.6046 36.752 40.5 36.752Z" stroke="black" stroke-width="1.5" stroke-linecap="round" stroke-linejoin="round"/>
<path d="M10.5 19.748V36.768M37.5 19.748V36.768M29 19.748V36.768M19 19.748V36.768M22.08 6.30001L6.54 14.8C6.22527 14.9722 5.96265 15.2259 5.77967 15.5345C5.59669 15.8431 5.5001 16.1952 5.5 16.554V18.548C5.5 18.8663 5.62643 19.1715 5.85147 19.3965C6.07652 19.6216 6.38174 19.748 6.7 19.748H41.3C41.6183 19.748 41.9235 19.6216 42.1485 19.3965C42.3736 19.1715 42.5 18.8663 42.5 18.548V16.554C42.4999 16.1952 42.4033 15.8431 42.2203 15.5345C42.0374 15.2259 41.7747 14.9722 41.46 14.8L25.92 6.30001C25.3313 5.97791 24.671 5.80908 24 5.80908C23.329 5.80908 22.6687 5.97791 22.08 6.30001Z" stroke="black" stroke-width="1.5" stroke-linecap="round" stroke-linejoin="round"/>
</svg>
