<svg width="36" height="36" viewBox="0 0 36 36" fill="none" xmlns="http://www.w3.org/2000/svg">
<path d="M5 27.75C5 26.0261 5.68482 24.3728 6.90381 23.1538C8.12279 21.9348 9.77609 21.25 11.5 21.25H24.5C26.2239 21.25 27.8772 21.9348 29.0962 23.1538C30.3152 24.3728 31 26.0261 31 27.75C31 28.612 30.6576 29.4386 30.0481 30.0481C29.4386 30.6576 28.612 31 27.75 31H8.25C7.38805 31 6.5614 30.6576 5.9519 30.0481C5.34241 29.4386 5 28.612 5 27.75Z" stroke="white" stroke-width="2" stroke-linejoin="round"/>
<path d="M18 14.75C20.6924 14.75 22.875 12.5674 22.875 9.875C22.875 7.18261 20.6924 5 18 5C15.3076 5 13.125 7.18261 13.125 9.875C13.125 12.5674 15.3076 14.75 18 14.75Z" stroke="white" stroke-width="2"/>
</svg>
