<svg width="36" height="36" viewBox="0 0 36 36" fill="none" xmlns="http://www.w3.org/2000/svg">
<path d="M5.7748 12.93C5.55586 11.9438 5.58948 10.9183 5.87254 9.9485C6.15559 8.97875 6.67892 8.09616 7.394 7.38258C8.10908 6.66899 8.99277 6.14751 9.96311 5.86649C10.9335 5.58546 11.9591 5.55399 12.9448 5.77499C13.4874 4.92645 14.2348 4.22813 15.1182 3.74442C16.0016 3.26071 16.9926 3.00717 17.9998 3.00717C19.007 3.00717 19.998 3.26071 20.8814 3.74442C21.7648 4.22813 22.5122 4.92645 23.0548 5.77499C24.0421 5.55303 25.0694 5.58436 26.0413 5.86606C27.0132 6.14777 27.8981 6.6707 28.6136 7.38622C29.3291 8.10174 29.852 8.9866 30.1337 9.9585C30.4154 10.9304 30.4468 11.9577 30.2248 12.945C31.0733 13.4876 31.7717 14.235 32.2554 15.1184C32.7391 16.0018 32.9926 16.9928 32.9926 18C32.9926 19.0072 32.7391 19.9981 32.2554 20.8816C31.7717 21.765 31.0733 22.5124 30.2248 23.055C30.4458 24.0407 30.4143 25.0663 30.1333 26.0367C29.8523 27.007 29.3308 27.8907 28.6172 28.6058C27.9036 29.3209 27.021 29.8442 26.0513 30.1273C25.0815 30.4103 24.056 30.4439 23.0698 30.225C22.5279 31.0768 21.7799 31.7781 20.895 32.264C20.0101 32.7498 19.0168 33.0046 18.0073 33.0046C16.9978 33.0046 16.0045 32.7498 15.1196 32.264C14.2347 31.7781 13.4867 31.0768 12.9448 30.225C11.9591 30.446 10.9335 30.4145 9.96311 30.1335C8.99277 29.8525 8.10908 29.331 7.394 28.6174C6.67892 27.9038 6.15559 27.0212 5.87254 26.0515C5.58948 25.0817 5.55586 24.0562 5.7748 23.07C4.91974 22.5289 4.21542 21.7803 3.72737 20.8938C3.23933 20.0074 2.9834 19.0119 2.9834 18C2.9834 16.9881 3.23933 15.9926 3.72737 15.1062C4.21542 14.2197 4.91974 13.4711 5.7748 12.93Z" stroke="white" stroke-width="2" stroke-linecap="round" stroke-linejoin="round"/>
<path d="M13.5 18L16.5 21L22.5 15" stroke="white" stroke-width="2" stroke-linecap="round" stroke-linejoin="round"/>
</svg>
