<svg width="36" height="36" viewBox="0 0 36 36" fill="none" xmlns="http://www.w3.org/2000/svg">
<path d="M5.08105 19.6215C7.97788 19.9657 10.6747 21.2746 12.7374 23.3373C14.8002 25.4001 16.109 28.0969 16.4533 30.9937C17.8893 30.1658 19.0905 28.9854 19.9433 27.5641C20.7962 26.1427 21.2724 24.5274 21.3271 22.8707C24.055 21.9111 26.4371 20.1641 28.1722 17.8507C29.9072 15.5373 30.9174 12.7613 31.0748 9.87383C31.0748 8.58121 30.5613 7.34153 29.6473 6.42751C28.7333 5.51349 27.4936 5 26.201 5C23.3135 5.15744 20.5375 6.16755 18.2241 7.90261C15.9107 9.63767 14.1637 12.0198 13.2041 14.7477C11.5474 14.8024 9.93207 15.2786 8.51071 16.1314C7.08935 16.9843 5.90894 18.1855 5.08105 19.6215Z" stroke="white" stroke-width="2" stroke-linecap="round" stroke-linejoin="round"/>
<path d="M9.95552 21.2461C8.26468 22.2007 6.89744 23.6384 6.02909 25.3751C5.16074 27.1118 4.83085 29.0683 5.08169 30.9937C7.00711 31.2446 8.96358 30.9147 10.7003 30.0463C12.437 29.178 13.8748 27.8107 14.8293 26.1199M21.3278 13.123C21.3278 13.5539 21.4989 13.9671 21.8036 14.2718C22.1083 14.5765 22.5215 14.7476 22.9524 14.7476C23.3833 14.7476 23.7965 14.5765 24.1012 14.2718C24.4058 13.9671 24.577 13.5539 24.577 13.123C24.577 12.6922 24.4058 12.2789 24.1012 11.9743C23.7965 11.6696 23.3833 11.4984 22.9524 11.4984C22.5215 11.4984 22.1083 11.6696 21.8036 11.9743C21.4989 12.2789 21.3278 12.6922 21.3278 13.123Z" stroke="white" stroke-width="2" stroke-linecap="round" stroke-linejoin="round"/>
</svg>
