<svg width="36" height="36" viewBox="0 0 36 36" fill="none" xmlns="http://www.w3.org/2000/svg">
<path d="M24 7.5H12C7.758 7.5 5.6355 7.5 4.3185 8.8185C3 10.1355 3 12.258 3 16.5V19.5C3 23.742 3 25.8645 4.3185 27.1815C5.6355 28.5 7.758 28.5 12 28.5H24C28.242 28.5 30.3645 28.5 31.6815 27.1815C33 25.8645 33 23.742 33 19.5V16.5C33 12.258 33 10.1355 31.6815 8.8185C30.3645 7.5 28.242 7.5 24 7.5Z" stroke="white" stroke-width="2" stroke-linecap="round" stroke-linejoin="round"/>
<path d="M27.75 18H27.765M8.25 18H8.265" stroke="white" stroke-width="2" stroke-linecap="round" stroke-linejoin="round"/>
<path d="M22.5 18C22.5 19.1935 22.0259 20.3381 21.182 21.182C20.3381 22.0259 19.1935 22.5 18 22.5C16.8065 22.5 15.6619 22.0259 14.818 21.182C13.9741 20.3381 13.5 19.1935 13.5 18C13.5 16.8065 13.9741 15.6619 14.818 14.818C15.6619 13.9741 16.8065 13.5 18 13.5C19.1935 13.5 20.3381 13.9741 21.182 14.818C22.0259 15.6619 22.5 16.8065 22.5 18Z" stroke="white" stroke-width="2" stroke-linecap="round" stroke-linejoin="round"/>
</svg>
