<svg width="49" height="40" viewBox="0 0 49 40" fill="none" xmlns="http://www.w3.org/2000/svg">
<path d="M34 6.17048C33.9997 7.59955 33.4346 8.97059 32.4277 9.98473C30.1097 12.3217 27.8606 14.7585 25.4547 17.01C25.1861 17.2547 24.8338 17.3869 24.4706 17.3794C24.1073 17.3719 23.7607 17.2252 23.5025 16.9696L16.5722 9.9871C15.5643 8.97261 14.9985 7.60058 14.9985 6.17048C14.9985 4.74038 15.5643 3.36834 16.5722 2.35385C17.0749 1.84746 17.6728 1.44555 18.3315 1.17128C18.9902 0.897017 19.6967 0.755816 20.4102 0.755816C21.1238 0.755816 21.8302 0.897017 22.4889 1.17128C23.1476 1.44555 23.7456 1.84746 24.2482 2.35385L24.5 2.60798L24.7517 2.35385C25.5063 1.59116 26.4707 1.07024 27.5222 0.857421C28.5738 0.644602 29.6649 0.749505 30.6566 1.15878C31.6483 1.56805 32.4958 2.26318 33.0912 3.15566C33.6866 4.04815 34.003 5.09762 34 6.17048Z" stroke="#173254" stroke-width="1.5" stroke-linejoin="round"/>
<path d="M38.75 38.7555L47.832 29.6735C48.0993 29.4065 48.2497 29.0443 48.25 28.6665V16.193C48.25 15.2482 47.8747 14.342 47.2066 13.6739C46.5385 13.0058 45.6323 12.6305 44.6875 12.6305C43.7427 12.6305 42.8365 13.0058 42.1684 13.6739C41.5003 14.342 41.125 15.2482 41.125 16.193V26.8805" stroke="#F36E2A" stroke-width="1.5" stroke-linecap="round" stroke-linejoin="round"/>
<path d="M38.75 29.2555L40.7877 27.2177C40.8952 27.1112 40.9804 26.9842 41.0383 26.8444C41.0962 26.7045 41.1257 26.5545 41.125 26.4031C41.1233 26.1898 41.0631 25.9811 40.9508 25.7998C40.8386 25.6184 40.6786 25.4714 40.4885 25.3747L39.4364 24.8499C38.545 24.4042 37.536 24.2501 36.5523 24.4096C35.5686 24.569 34.6599 25.0338 33.9549 25.7381L31.8292 27.8637C30.9384 28.7543 30.4378 29.9623 30.4375 31.222V38.7555M10.25 38.7555L1.168 29.6735C0.900685 29.4065 0.750333 29.0443 0.75 28.6665V16.193C0.75 15.2482 1.12533 14.342 1.79343 13.6739C2.46153 13.0058 3.36767 12.6305 4.3125 12.6305C5.25733 12.6305 6.16347 13.0058 6.83157 13.6739C7.49967 14.342 7.875 15.2482 7.875 16.193V26.8805" stroke="#F36E2A" stroke-width="1.5" stroke-linecap="round" stroke-linejoin="round"/>
<path d="M10.25 29.2555L8.21225 27.2177C7.99946 26.9995 7.87871 26.7079 7.875 26.4031C7.875 25.9685 8.122 25.5719 8.5115 25.3747L9.56362 24.8499C10.455 24.4042 11.464 24.2501 12.4477 24.4096C13.4314 24.569 14.3401 25.0337 15.0451 25.7381L17.1707 27.8637C18.0616 28.7543 18.5622 29.9623 18.5625 31.222V38.7555" stroke="#F36E2A" stroke-width="1.5" stroke-linecap="round" stroke-linejoin="round"/>
</svg>
