<svg width="51" height="51" viewBox="0 0 51 51" fill="none" xmlns="http://www.w3.org/2000/svg">
<path d="M44.223 36.5411L36.4519 33.9507L40.3045 30.5252V12.0568L20.7481 1.18958L1.1875 12.0547V33.785L20.746 44.6522L30.5252 39.2186L33.8764 36.2393L36.539 44.223L44.223 36.5411Z" fill="white"/>
<path d="M40.3832 40.381L36.5412 44.223L32.6992 32.6991L40.3832 40.381Z" fill="#BBD8FF"/>
<path d="M40.3832 40.3831L48.9979 48.9979M44.223 36.5411L36.5412 44.223L32.6992 32.6991L44.223 36.5411ZM20.7482 21.834L19.6602 22.9199L20.7482 24.0079L21.834 22.9199L20.7482 21.834Z" stroke="#173254" stroke-width="2.375" stroke-linecap="round" stroke-linejoin="round"/>
<path d="M14.2285 19.1182L20.748 15.3145L27.2675 19.1182V26.7236L20.748 30.5273L14.2285 26.7236V19.1182Z" stroke="#173254" stroke-width="2.375" stroke-linecap="round" stroke-linejoin="round"/>
<path d="M33.7851 27.2677V15.3146L20.7482 7.7113L7.70923 15.3188V30.5296L20.7482 38.1349L27.2677 34.3312" stroke="#F36E2A" stroke-width="2.375" stroke-linecap="round" stroke-linejoin="round"/>
<path d="M40.3045 29.4394V12.0569L20.7481 1.1875L1.1875 12.0547V33.785L20.746 44.6523L29.4372 39.8221" stroke="#F36E2A" stroke-width="2.375" stroke-linecap="round" stroke-linejoin="round"/>
</svg>
