<svg width="51" height="51" viewBox="0 0 51 51" fill="none" xmlns="http://www.w3.org/2000/svg">
<path d="M17 25.5L23.375 31.875L34 17M8.5 23.9105C8.5 40.2454 23.2008 45.9829 25.2599 46.7075C25.42 46.7642 25.58 46.7642 25.7401 46.7075C27.8035 46.0062 42.5 40.4132 42.5 23.9126V9.14599C42.5004 8.95608 42.4373 8.77149 42.3206 8.62167C42.2039 8.47185 42.0404 8.36542 41.8561 8.31937L25.7061 4.27549C25.5708 4.24166 25.4292 4.24166 25.2939 4.27549L9.14388 8.31937C8.95964 8.36542 8.79612 8.47185 8.67942 8.62167C8.56272 8.77149 8.49956 8.95608 8.5 9.14599V23.9105Z" stroke="#F36E2A" stroke-width="3.1875" stroke-linecap="round" stroke-linejoin="round"/>
<mask id="mask0_326_694" style="mask-type:alpha" maskUnits="userSpaceOnUse" x="6" y="2" width="39" height="47">
<path d="M17 25.5L23.375 31.875L34 17M8.5 23.9105C8.5 40.2454 23.2008 45.9829 25.2599 46.7075C25.42 46.7642 25.58 46.7642 25.7401 46.7075C27.8035 46.0062 42.5 40.4132 42.5 23.9126V9.14599C42.5004 8.95608 42.4373 8.77149 42.3206 8.62167C42.2039 8.47185 42.0404 8.36542 41.8561 8.31937L25.7061 4.27549C25.5708 4.24166 25.4292 4.24166 25.2939 4.27549L9.14388 8.31937C8.95964 8.36542 8.79612 8.47185 8.67942 8.62167C8.56272 8.77149 8.49956 8.95608 8.5 9.14599V23.9105Z" stroke="#F36E2A" stroke-width="3.1875" stroke-linecap="round" stroke-linejoin="round"/>
</mask>
<g mask="url(#mask0_326_694)">
<path d="M35.5 12.5L15.5 13.5L13 23L15.5 35L19.5 36.5H32L35.5 32L38 23V15L35.5 12.5Z" fill="#173254" stroke="#173254"/>
</g>
</svg>
