<svg width="45" height="45" viewBox="0 0 45 45" fill="none" xmlns="http://www.w3.org/2000/svg">
<path d="M3.75 22.5C3.75 15.4294 3.75 11.8931 5.9475 9.6975C8.145 7.50187 11.6794 7.5 18.75 7.5H26.25C33.3206 7.5 36.8569 7.5 39.0525 9.6975C41.2481 11.895 41.25 15.4294 41.25 22.5C41.25 29.5706 41.25 33.1069 39.0525 35.3025C36.855 37.4981 33.3206 37.5 26.25 37.5H18.75C11.6794 37.5 8.14312 37.5 5.9475 35.3025C3.75187 33.105 3.75 29.5706 3.75 22.5Z" stroke="#F36E2A" stroke-width="2"/>
<path d="M18.75 30H11.25M26.25 30H23.4375M3.75 18.75H41.25" stroke="#F36E2A" stroke-width="2" stroke-linecap="round"/>
</svg>
