<svg width="45" height="45" viewBox="0 0 45 45" fill="none" xmlns="http://www.w3.org/2000/svg">
<path d="M21.9413 37.3912C22.1863 37.3912 22.4375 37.3362 22.695 37.2262C22.9525 37.1162 23.1606 36.9819 23.3194 36.8231L37.9369 22.2037C38.4081 21.7325 38.7719 21.2512 39.0281 20.76C39.2831 20.2662 39.4106 19.725 39.4106 19.1362C39.4106 18.54 39.2831 17.9612 39.0281 17.4C38.7719 16.8375 38.4081 16.325 37.9369 15.8625L30.9056 8.83123C30.4419 8.35998 29.965 8.01436 29.475 7.79436C28.9863 7.57436 28.4438 7.46436 27.8475 7.46436C27.2588 7.46436 26.7119 7.57436 26.2069 7.79436C25.7019 8.01436 25.2263 8.35936 24.78 8.82936L23.145 10.4644L26.6138 13.9425C26.9863 14.3087 27.2644 14.725 27.4481 15.1912C27.6306 15.6575 27.7219 16.1306 27.7219 16.6106C27.7219 17.5869 27.4025 18.3944 26.7638 19.0331C26.125 19.6719 25.3181 19.9906 24.3431 19.9894C23.8619 19.9894 23.3925 19.9162 22.935 19.77C22.4775 19.6237 22.0656 19.3675 21.6994 19.0012L18.1125 15.4275L10.0163 23.5219C9.82752 23.7119 9.68564 23.9275 9.59064 24.1687C9.49564 24.41 9.44814 24.6537 9.44814 24.9C9.44814 25.3425 9.59002 25.7069 9.87377 25.9931C10.1563 26.2806 10.5188 26.4244 10.9613 26.4244C11.2063 26.4244 11.4575 26.3694 11.715 26.2594C11.9725 26.1481 12.1806 26.0131 12.3394 25.8544L18.2813 19.9125L19.6088 21.24L13.6763 27.1837C13.4863 27.3725 13.3438 27.5875 13.2488 27.8287C13.155 28.0712 13.1081 28.315 13.1081 28.56C13.1081 28.9787 13.2556 29.3356 13.5506 29.6306C13.8456 29.9256 14.2025 30.0737 14.6213 30.075C14.8663 30.075 15.1175 30.0194 15.375 29.9081C15.6325 29.7969 15.8406 29.6625 15.9994 29.505L22.3744 23.1412L23.7019 24.4669L17.3363 30.8419C17.17 31.0006 17.0338 31.2087 16.9275 31.4662C16.82 31.7237 16.7663 31.975 16.7663 32.22C16.7663 32.6375 16.9144 32.9937 17.2106 33.2887C17.5056 33.5862 17.8625 33.735 18.2813 33.735C18.5263 33.735 18.77 33.6875 19.0125 33.5925C19.255 33.4975 19.47 33.355 19.6575 33.165L26.0325 26.7994L27.36 28.1269L20.985 34.5019C20.7963 34.6919 20.6544 34.92 20.5594 35.1862C20.4644 35.4525 20.4169 35.6956 20.4169 35.9156C20.4169 36.3581 20.5725 36.715 20.8838 36.9862C21.195 37.2575 21.5475 37.3931 21.9413 37.3931M21.93 39.2681C20.9663 39.2681 20.1413 38.9156 19.455 38.2106C18.7688 37.5044 18.4675 36.6331 18.5513 35.5969C17.4888 35.6094 16.6044 35.2925 15.8981 34.6462C15.1919 33.9987 14.8563 33.0962 14.8913 31.9387C13.7338 31.9512 12.8213 31.62 12.1538 30.945C11.4863 30.27 11.1825 29.3812 11.2425 28.2787C10.2 28.2912 9.32752 27.9975 8.62502 27.3975C7.92377 26.8 7.57314 25.9675 7.57314 24.9C7.57314 24.4187 7.66627 23.9375 7.85252 23.4562C8.03877 22.9737 8.31377 22.55 8.67752 22.185L18.1125 12.7612L22.9538 17.6025C23.1125 17.7687 23.3088 17.9056 23.5425 18.0131C23.7763 18.1206 24.0394 18.1737 24.3319 18.1725C24.7331 18.1725 25.0875 18.0325 25.395 17.7525C25.7025 17.4725 25.8569 17.1075 25.8581 16.6575C25.8581 16.365 25.8044 16.1025 25.6969 15.87C25.5894 15.6362 25.4531 15.44 25.2881 15.2812L18.8381 8.83123C18.3731 8.35998 17.89 8.01436 17.3888 7.79436C16.8875 7.57436 16.3388 7.46436 15.7425 7.46436C15.1538 7.46436 14.6188 7.57436 14.1375 7.79436C13.6575 8.01436 13.1819 8.35998 12.7106 8.83123L7.00314 14.55C6.60064 14.95 6.27564 15.4281 6.02814 15.9844C5.78064 16.5394 5.64939 17.1125 5.63439 17.7037C5.62189 18.1275 5.65814 18.5344 5.74314 18.9244C5.82814 19.3144 5.96564 19.6819 6.15564 20.0269L4.73439 21.4481C4.41939 20.9456 4.17314 20.3669 3.99564 19.7119C3.81814 19.0569 3.73627 18.3881 3.75002 17.7056C3.76502 16.8531 3.93564 16.0375 4.26189 15.2587C4.58814 14.48 5.05564 13.7856 5.66439 13.1756L11.3363 7.50373C11.99 6.85623 12.6819 6.37498 13.4119 6.05998C14.1419 5.74623 14.9313 5.58936 15.78 5.58936C16.6288 5.58936 17.4113 5.74686 18.1275 6.06186C18.845 6.37561 19.5275 6.85623 20.175 7.50373L21.8063 9.13686L23.4413 7.50373C24.095 6.85623 24.7806 6.37498 25.4981 6.05998C26.2156 5.74623 26.9988 5.58936 27.8475 5.58936C28.6963 5.58936 29.4856 5.74686 30.2156 6.06186C30.9444 6.37561 31.6319 6.85623 32.2781 7.50373L39.2644 14.4881C39.9106 15.1344 40.4094 15.86 40.7606 16.665C41.1119 17.47 41.2869 18.2969 41.2856 19.1456C41.2856 19.9956 41.1106 20.7787 40.7606 21.495C40.4106 22.2112 39.9119 22.8937 39.2644 23.5425L24.645 38.1487C24.2563 38.5387 23.8325 38.8225 23.3738 39C22.9163 39.1775 22.435 39.2662 21.93 39.2662" fill="#F36E2A"/>
</svg>
