<svg width="45" height="45" viewBox="0 0 45 45" fill="none" xmlns="http://www.w3.org/2000/svg">
<path d="M14.5 29V5L17.2 6.33333L19.9 5L22.5949 6.33333L25.3262 5L28 6.33333L30.6823 5L33.3764 6.33333L36.1 5L38.8008 6.33333L41.5 5V23.6667" stroke="#F36E2A" stroke-width="2" stroke-linejoin="round"/>
<path d="M41.5 24V33.3333C41.5 35.1014 40.7851 36.7971 39.5125 38.0474C38.2399 39.2976 36.514 40 34.7143 40M34.7143 40C32.9146 40 31.1886 39.2976 29.9161 38.0474C28.6435 36.7971 27.9286 35.1014 27.9286 33.3333V29.3333H4.85719C4.67853 29.3318 4.50134 29.3652 4.33597 29.4317C4.1706 29.4981 4.02036 29.5963 3.89402 29.7204C3.76768 29.8445 3.66777 29.9921 3.60013 30.1546C3.53249 30.3171 3.49847 30.4911 3.50005 30.6667C3.50005 36 4.07175 40 10.2858 40H34.7143Z" stroke="#F36E2A" stroke-width="2" stroke-linejoin="round"/>
<path d="M19.5 13H35.5M24.8333 20H35.5" stroke="#F36E2A" stroke-width="2" stroke-linecap="round" stroke-linejoin="round"/>
</svg>
