<svg width="436" height="404" viewBox="0 0 436 404" fill="none" xmlns="http://www.w3.org/2000/svg">
<path d="M109.233 235.246C109.233 235.246 65.9357 258.347 70.64 249.812C81.5167 230.098 108.154 198.173 82.7302 145.06C79.0447 137.39 104.604 149.647 119.66 163.119C119.66 163.119 120.664 134.763 65.5312 105.359C58.0554 101.364 44.467 110.174 54.0103 124.344C64.2728 139.562 77.8762 175.375 72.1981 195.712C67.344 213.133 51.0289 236.826 36.7664 258.56C31.4179 266.701 40.6466 278.335 53.7256 274.568C53.7256 274.568 91.7792 266.108 109.233 235.246Z" fill="#F36E2A"/>
<path d="M46.2507 162.101C61.0077 170.728 66.0416 189.85 57.532 204.795C49.0224 219.74 30.1604 224.858 15.4184 216.246C0.661403 207.604 -4.37244 188.483 4.13717 173.538C12.6618 158.578 31.5087 153.459 46.2507 162.101Z" fill="#F36E2A"/>
<path d="M192.022 314.118C192.022 314.118 190.104 363.676 185.161 355.277C173.759 335.867 159.796 296.53 101.727 292.293C93.3226 291.685 116.589 275.388 135.616 268.903C135.616 268.903 111.9 253.852 59.2093 287.539C52.063 292.11 52.7821 308.453 69.6665 307.131C87.7944 305.734 125.204 311.688 139.736 326.845C152.186 339.816 164.276 365.985 175.707 389.374C179.977 398.138 194.524 395.844 197.85 382.479C197.865 382.509 209.656 344.873 192.022 314.118Z" fill="#173254"/>
<path d="M98.0407 332.829C112.783 324.202 131.645 329.321 140.154 344.266C148.679 359.211 143.615 378.332 128.873 386.974C114.116 395.601 95.2691 390.468 86.7445 375.523C78.2349 360.578 83.2987 341.471 98.0407 332.829Z" fill="#173254"/>
<path d="M300.805 280.871C300.805 280.871 342.184 307.344 332.536 307.465C310.258 307.769 269.673 300.357 237.013 349.217C232.294 356.295 230.001 327.726 233.972 307.769C233.972 307.769 209.237 321.074 211.694 384.165C212.023 392.715 226.346 400.264 233.672 384.787C241.537 368.172 265.343 338.312 285.539 333.133C302.842 328.683 331.248 331.159 356.941 332.814C366.56 333.437 371.893 319.509 362.125 309.926C362.14 309.941 335.892 280.765 300.805 280.871Z" fill="#F36E2A"/>
<path d="M269.792 372.743C269.792 355.474 283.606 341.486 300.625 341.486C317.644 341.486 331.457 355.474 331.457 372.743C331.457 389.997 317.644 404 300.625 404C283.591 404 269.792 389.997 269.792 372.743Z" fill="#F36E2A"/>
<path d="M326.781 168.738C326.781 168.738 370.078 145.637 365.374 154.173C354.497 173.887 327.86 205.812 353.283 258.909C356.969 266.594 331.41 254.323 316.354 240.866C316.354 240.866 315.35 269.222 370.482 298.626C377.958 302.62 391.547 293.811 381.988 279.641C371.726 264.423 358.123 228.609 363.801 208.273C368.655 190.852 384.97 167.144 399.232 145.425C404.566 137.284 395.337 125.65 382.273 129.417C382.273 129.432 344.235 137.892 326.781 168.738Z" fill="#173254"/>
<path d="M389.749 241.899C375.007 233.272 369.958 214.15 378.468 199.205C386.978 184.26 405.84 179.127 420.582 187.754C435.339 196.396 440.372 215.517 431.863 230.447C423.353 245.407 404.506 250.526 389.749 241.899Z" fill="#173254"/>
<path d="M243.978 89.8672C243.978 89.8672 245.895 40.3089 250.839 48.7078C262.24 68.1029 276.203 107.455 334.272 111.692C342.677 112.3 319.411 128.597 300.384 135.082C300.384 135.082 324.1 150.133 376.791 116.446C383.937 111.875 383.218 95.5323 366.333 96.8385C348.205 98.251 310.811 92.2821 296.264 77.1245C283.814 64.154 271.724 37.9851 260.293 14.5805C256.023 5.83219 241.461 8.11038 238.15 21.4758C238.15 21.491 226.344 59.1116 243.978 89.8672Z" fill="#F36E2A"/>
<path d="M337.974 71.1557C323.232 79.7976 304.355 74.6641 295.86 59.7191C287.336 44.7742 292.4 25.6525 307.142 17.0106C321.899 8.3838 340.746 13.5173 349.255 28.4623C357.765 43.4224 352.716 62.5289 337.974 71.1557Z" fill="#F36E2A"/>
<path d="M135.21 123.129C135.21 123.129 93.8154 96.6563 103.464 96.5348C125.741 96.2159 166.327 103.643 198.987 54.7831C203.706 47.7055 205.998 76.274 202.028 96.231C202.028 96.231 226.748 82.9416 224.306 19.8355C223.976 11.2695 209.654 3.75148 202.328 19.2128C194.463 35.8285 170.672 65.688 150.461 70.8671C133.157 75.302 104.752 72.8416 79.0584 71.1709C69.4402 70.5482 64.1067 84.4756 73.8748 94.0592C73.8748 94.0592 100.123 123.235 135.21 123.129Z" fill="#173254"/>
<path d="M166.209 31.2568C166.224 48.5256 152.396 62.5137 135.377 62.5137C118.342 62.5137 104.544 48.5256 104.544 31.2568C104.544 13.9881 118.357 0 135.377 0C152.411 0 166.209 13.9881 166.209 31.2568Z" fill="#173254"/>
</svg>
