<svg width="57" height="57" viewBox="0 0 57 57" fill="none" xmlns="http://www.w3.org/2000/svg">
<path d="M28.5 52.25C41.6168 52.25 52.25 41.6168 52.25 28.5C52.25 15.3832 41.6168 4.75 28.5 4.75C15.3832 4.75 4.75 15.3832 4.75 28.5C4.75 41.6168 15.3832 52.25 28.5 52.25Z" stroke="#F36E2A" stroke-width="2"/>
<path d="M14.25 11.1863C16.1025 12.8749 19.9215 17.4871 20.3656 22.4366C20.7812 27.0655 23.8331 30.8275 28.5 30.875C30.2931 30.894 32.1052 29.5996 32.1005 27.8065C32.1005 27.2531 32.0079 26.6855 31.8654 26.163C31.6255 25.3625 31.6959 24.501 32.0625 23.75C33.5113 20.7646 36.3613 19.9619 38.6175 18.3398C39.6174 17.6201 40.5318 16.8601 40.9331 16.2498C42.047 14.5635 43.1585 11.1886 42.6027 9.5M52.25 30.875C51.4662 33.0861 50.9153 38.8906 42.0803 38.9832C42.0803 38.9832 34.2594 38.9832 31.9129 43.4055C30.0343 46.9442 31.1291 50.7751 31.9129 52.25" stroke="#F36E2A" stroke-width="2"/>
</svg>
