<svg width="57" height="57" viewBox="0 0 57 57" fill="none" xmlns="http://www.w3.org/2000/svg">
<path d="M8 24.5812C8 17.1414 8 13.4215 8.87938 12.1699C9.75642 10.9207 13.253 9.72257 20.2484 7.32872L21.5815 6.87274C25.2269 5.62347 27.0485 5 28.9375 5C30.8265 5 32.6481 5.62347 36.2935 6.87274L37.6266 7.32872C44.622 9.72257 48.1186 10.9207 48.9956 12.1699C49.875 13.4215 49.875 17.1437 49.875 24.5812V28.243C49.875 41.3591 40.0134 47.7265 33.8252 50.4274C32.1479 51.1602 31.3104 51.5278 28.9375 51.5278C26.5646 51.5278 25.7271 51.1602 24.0498 50.4274C17.8616 47.7241 8 41.3615 8 28.243V24.5812Z" stroke="#F36E2A" stroke-width="2"/>
<path d="M23.1211 29.1944L26.4455 32.9166L34.753 23.6111" stroke="#F36E2A" stroke-width="2" stroke-linecap="round" stroke-linejoin="round"/>
</svg>
