<svg width="57" height="57" viewBox="0 0 57 57" fill="none" xmlns="http://www.w3.org/2000/svg">
<path d="M33.25 33.25V14.25M33.25 33.25L47.7422 41.5316C47.9588 41.6556 48.2041 41.7205 48.4537 41.7198C48.7032 41.7192 48.9482 41.653 49.1641 41.528C49.38 41.403 49.5593 41.2234 49.6841 41.0073C49.8088 40.7912 49.8747 40.5462 49.875 40.2966V7.20339C49.8751 6.95367 49.8096 6.7083 49.685 6.49188C49.5604 6.27546 49.3811 6.09558 49.1651 5.97026C48.9491 5.84494 48.704 5.77858 48.4542 5.77784C48.2045 5.77709 47.959 5.84199 47.7422 5.96602L33.25 14.25M33.25 33.25H16.625M33.25 14.25H16.625C14.1054 14.25 11.6891 15.2509 9.90749 17.0325C8.12589 18.8141 7.125 21.2305 7.125 23.75C7.125 26.2696 8.12589 28.6859 9.90749 30.4675C11.6891 32.2491 14.1054 33.25 16.625 33.25M16.625 33.25L18.4229 45.8375C18.6105 47.0622 19.2738 48.1633 20.2687 48.9017C21.2636 49.6401 22.5097 49.9559 23.7362 49.7807C24.9627 49.6055 26.0705 48.9534 26.8189 47.966C27.5672 46.9786 27.8957 45.7357 27.7329 44.5075L26.125 33.25H16.625Z" stroke="#F36E2A" stroke-width="2"/>
</svg>
