<svg width="57" height="57" viewBox="0 0 57 57" fill="none" xmlns="http://www.w3.org/2000/svg">
<path d="M9.5 30.875C13.7348 31.3783 17.6772 33.2916 20.6928 36.3072C23.7084 39.3228 25.6217 43.2652 26.125 47.5C28.2243 46.2897 29.9803 44.5641 31.227 42.4862C32.4738 40.4083 33.17 38.0469 33.25 35.625C37.2379 34.2221 40.7202 31.6682 43.2567 28.2863C45.7932 24.9043 47.2698 20.8462 47.5 16.625C47.5 14.7353 46.7493 12.9231 45.4131 11.5869C44.0769 10.2507 42.2647 9.5 40.375 9.5C36.1538 9.73016 32.0957 11.2068 28.7137 13.7433C25.3318 16.2798 22.7779 19.7621 21.375 23.75C18.9531 23.83 16.5916 24.5262 14.5138 25.773C12.4359 27.0197 10.7103 28.7757 9.5 30.875Z" stroke="#F36E2A" stroke-width="2" stroke-linecap="round" stroke-linejoin="round"/>
<path d="M16.6253 33.25C14.1535 34.6455 12.1547 36.7474 10.8853 39.2862C9.61585 41.8251 9.13358 44.6852 9.50029 47.5C12.315 47.8667 15.1752 47.3844 17.714 46.115C20.2529 44.8456 22.3548 42.8468 23.7503 40.375M33.2503 21.375C33.2503 22.0049 33.5005 22.609 33.9459 23.0544C34.3913 23.4998 34.9954 23.75 35.6253 23.75C36.2552 23.75 36.8593 23.4998 37.3047 23.0544C37.7501 22.609 38.0003 22.0049 38.0003 21.375C38.0003 20.7451 37.7501 20.141 37.3047 19.6956C36.8593 19.2502 36.2552 19 35.6253 19C34.9954 19 34.3913 19.2502 33.9459 19.6956C33.5005 20.141 33.2503 20.7451 33.2503 21.375Z" stroke="#F36E2A" stroke-width="2" stroke-linecap="round" stroke-linejoin="round"/>
</svg>
