<svg width="20" height="23" viewBox="0 0 20 23" fill="none" xmlns="http://www.w3.org/2000/svg">
<path fill-rule="evenodd" clip-rule="evenodd" d="M15.4578 3.28859e-07C14.9031 -0.000185761 14.3551 0.121357 13.8524 0.356054C13.3498 0.590752 12.9047 0.932886 12.5487 1.35832C12.1927 1.78376 11.9344 2.28213 11.792 2.81829C11.6496 3.35444 11.6265 3.91531 11.7245 4.46133L6.20618 8.32533L6.12685 8.38717C5.56701 7.94953 4.89545 7.67802 4.18876 7.6036C3.48207 7.52918 2.76869 7.65485 2.12996 7.96627C1.49124 8.27769 0.952885 8.76233 0.576285 9.36493C0.199685 9.96752 0 10.6638 0 11.3744C0 12.085 0.199685 12.7813 0.576285 13.3839C0.952885 13.9865 1.49124 14.4711 2.12996 14.7826C2.76869 15.094 3.48207 15.2197 4.18876 15.1452C4.89545 15.0708 5.56701 14.7993 6.12685 14.3617L6.20618 14.4247L11.7245 18.2887C11.6856 18.5064 11.6662 18.7297 11.6662 18.9583C11.6663 19.8572 11.9858 20.7268 12.5677 21.412C13.1495 22.0972 13.9559 22.5534 14.8428 22.6992C15.7298 22.845 16.6398 22.6709 17.4103 22.208C18.1809 21.7451 18.7619 21.0236 19.0498 20.172C19.3377 19.3205 19.3137 18.3943 18.982 17.5589C18.6504 16.7234 18.0328 16.0329 17.2392 15.6106C16.4457 15.1882 15.528 15.0616 14.6498 15.2532C13.7715 15.4447 12.9899 15.9421 12.4443 16.6565L7.21885 12.9967C7.45218 12.5043 7.58285 11.9548 7.58285 11.3738C7.58285 10.7928 7.45218 10.2422 7.21885 9.751L12.4455 6.09233C12.8369 6.60505 13.3526 7.00944 13.9438 7.26726C14.5351 7.52508 15.1823 7.62781 15.8244 7.56573C16.4664 7.50365 17.082 7.27881 17.6129 6.91248C18.1438 6.54615 18.5724 6.05044 18.8583 5.47224C19.1442 4.89403 19.2779 4.25246 19.2467 3.6082C19.2154 2.96393 19.0204 2.33828 18.6799 1.79042C18.3395 1.24256 17.8649 0.790612 17.3011 0.477314C16.7373 0.164016 16.1029 -0.000268281 15.4578 3.28859e-07ZM13.4162 3.79167C13.4162 3.25018 13.6313 2.73088 14.0142 2.34799C14.3971 1.9651 14.9164 1.75 15.4578 1.75C15.9993 1.75 16.5186 1.9651 16.9015 2.34799C17.2844 2.73088 17.4995 3.25018 17.4995 3.79167C17.4995 4.33315 17.2844 4.85246 16.9015 5.23534C16.5186 5.61823 15.9993 5.83333 15.4578 5.83333C14.9164 5.83333 14.3971 5.61823 14.0142 5.23534C13.6313 4.85246 13.4162 4.33315 13.4162 3.79167ZM3.79118 9.33333C3.2497 9.33333 2.73039 9.54844 2.34751 9.93132C1.96462 10.3142 1.74951 10.8335 1.74951 11.375C1.74951 11.9165 1.96462 12.4358 2.34751 12.8187C2.73039 13.2016 3.2497 13.4167 3.79118 13.4167C4.33266 13.4167 4.85197 13.2016 5.23486 12.8187C5.61774 12.4358 5.83285 11.9165 5.83285 11.375C5.83285 10.8335 5.61774 10.3142 5.23486 9.93132C4.85197 9.54844 4.33266 9.33333 3.79118 9.33333ZM15.4578 16.9167C14.9164 16.9167 14.3971 17.1318 14.0142 17.5147C13.6313 17.8975 13.4162 18.4169 13.4162 18.9583C13.4162 19.4998 13.6313 20.0191 14.0142 20.402C14.3971 20.7849 14.9164 21 15.4578 21C15.9993 21 16.5186 20.7849 16.9015 20.402C17.2844 20.0191 17.4995 19.4998 17.4995 18.9583C17.4995 18.4169 17.2844 17.8975 16.9015 17.5147C16.5186 17.1318 15.9993 16.9167 15.4578 16.9167Z" fill="#173254"/>
</svg>
