<svg width="20" height="20" viewBox="0 0 20 20" fill="none" xmlns="http://www.w3.org/2000/svg">
<path d="M16.5833 3.16667H14.0833V1.91667C14.0833 1.80616 14.0394 1.70018 13.9613 1.62204C13.8832 1.5439 13.7772 1.5 13.6667 1.5C13.5562 1.5 13.4502 1.5439 13.372 1.62204C13.2939 1.70018 13.25 1.80616 13.25 1.91667V3.16667H7.41667V1.91667C7.41667 1.80616 7.37277 1.70018 7.29463 1.62204C7.21649 1.5439 7.11051 1.5 7 1.5C6.88949 1.5 6.78351 1.5439 6.70537 1.62204C6.62723 1.70018 6.58333 1.80616 6.58333 1.91667V3.16667H4.08333C3.531 3.16733 3.00148 3.38703 2.61092 3.77759C2.22037 4.16815 2.00066 4.69767 2 5.25V16.0833C2.00066 16.6357 2.22037 17.1652 2.61092 17.5557C3.00148 17.9463 3.531 18.166 4.08333 18.1667H16.5833C17.1359 18.1667 17.6658 17.9472 18.0565 17.5565C18.4472 17.1658 18.6667 16.6359 18.6667 16.0833V5.25C18.6667 4.69747 18.4472 4.16756 18.0565 3.77686C17.6658 3.38616 17.1359 3.16667 16.5833 3.16667ZM17.8333 16.0833C17.8333 16.4149 17.7016 16.7328 17.4672 16.9672C17.2328 17.2016 16.9149 17.3333 16.5833 17.3333H4.08333C3.75181 17.3333 3.43387 17.2016 3.19945 16.9672C2.96503 16.7328 2.83333 16.4149 2.83333 16.0833V9H17.8333V16.0833ZM17.8333 8.16667H2.83333V5.25C2.83333 4.56 3.39167 4 4.08333 4H6.58333V5.25C6.58333 5.36051 6.62723 5.46649 6.70537 5.54463C6.78351 5.62277 6.88949 5.66667 7 5.66667C7.11051 5.66667 7.21649 5.62277 7.29463 5.54463C7.37277 5.46649 7.41667 5.36051 7.41667 5.25V4H13.25V5.25C13.25 5.36051 13.2939 5.46649 13.372 5.54463C13.4502 5.62277 13.5562 5.66667 13.6667 5.66667C13.7772 5.66667 13.8832 5.62277 13.9613 5.54463C14.0394 5.46649 14.0833 5.36051 14.0833 5.25V4H16.5833C16.9149 4 17.2328 4.1317 17.4672 4.36612C17.7016 4.60054 17.8333 4.91848 17.8333 5.25V8.16667Z" fill="#F36E2A"/>
</svg>
