<svg width="20" height="20" viewBox="0 0 20 20" fill="none" xmlns="http://www.w3.org/2000/svg">
<path fill-rule="evenodd" clip-rule="evenodd" d="M10.2055 17.4742C11.1639 16.6045 12.051 15.6592 12.858 14.6475C14.558 12.5117 15.5922 10.4058 15.6622 8.53332C15.6899 7.77232 15.5639 7.01354 15.2918 6.30231C15.0197 5.59108 14.607 4.94199 14.0784 4.39381C13.5498 3.84564 12.9162 3.40963 12.2153 3.11183C11.5145 2.81402 10.7608 2.66054 9.99926 2.66054C9.23775 2.66054 8.48405 2.81402 7.78319 3.11183C7.08233 3.40963 6.44868 3.84564 5.9201 4.39381C5.39151 4.94199 4.97884 5.59108 4.70672 6.30231C4.43461 7.01354 4.30864 7.77232 4.33634 8.53332C4.40717 10.4058 5.44217 12.5117 7.14134 14.6475C7.94839 15.6592 8.83541 16.6045 9.79384 17.4742C9.88606 17.5575 9.95467 17.618 9.99967 17.6558L10.2055 17.4742ZM9.38467 18.445C9.38467 18.445 3.33301 13.3483 3.33301 8.33332C3.33301 6.56521 4.03539 4.86952 5.28563 3.61928C6.53587 2.36904 8.23156 1.66666 9.99967 1.66666C11.7678 1.66666 13.4635 2.36904 14.7137 3.61928C15.964 4.86952 16.6663 6.56521 16.6663 8.33332C16.6663 13.3483 10.6147 18.445 10.6147 18.445C10.278 18.755 9.72384 18.7517 9.38467 18.445ZM9.99967 10.6667C10.6185 10.6667 11.212 10.4208 11.6496 9.98324C12.0872 9.54565 12.333 8.95216 12.333 8.33332C12.333 7.71449 12.0872 7.12099 11.6496 6.68341C11.212 6.24582 10.6185 5.99999 9.99967 5.99999C9.38084 5.99999 8.78734 6.24582 8.34976 6.68341C7.91217 7.12099 7.66634 7.71449 7.66634 8.33332C7.66634 8.95216 7.91217 9.54565 8.34976 9.98324C8.78734 10.4208 9.38084 10.6667 9.99967 10.6667ZM9.99967 11.6667C9.11562 11.6667 8.26777 11.3155 7.64265 10.6903C7.01753 10.0652 6.66634 9.21738 6.66634 8.33332C6.66634 7.44927 7.01753 6.60142 7.64265 5.9763C8.26777 5.35118 9.11562 4.99999 9.99967 4.99999C10.8837 4.99999 11.7316 5.35118 12.3567 5.9763C12.9818 6.60142 13.333 7.44927 13.333 8.33332C13.333 9.21738 12.9818 10.0652 12.3567 10.6903C11.7316 11.3155 10.8837 11.6667 9.99967 11.6667Z" fill="#F36E2A"/>
</svg>
