<svg width="43" height="33" viewBox="0 0 43 33" fill="none" xmlns="http://www.w3.org/2000/svg">
<path fill-rule="evenodd" clip-rule="evenodd" d="M9.64544 19.2694C8.04251 18.8725 6.61869 17.9501 5.60112 16.6496C4.58356 15.349 4.03088 13.7451 4.03125 12.0938V11.4219C4.03125 9.46176 4.8099 7.58192 6.19591 6.19591C7.58192 4.8099 9.46176 4.03125 11.4219 4.03125H12.0938C14.011 4.02952 15.8537 4.77373 17.232 6.10641C18.6104 7.4391 19.4162 9.25572 19.479 11.1719V11.18H19.4844V12.0938C19.4844 12.4467 19.4602 12.7925 19.4118 13.1311C19.3581 13.8335 19.2774 14.5233 19.1699 15.2005C18.8865 16.9747 18.3818 18.7064 17.6676 20.3551C16.3871 23.3086 14.3901 25.896 11.8573 27.8828L11.5939 28.0871C11.4826 28.1718 11.3467 28.218 11.2069 28.2188C11.0912 28.2183 10.9777 28.188 10.8771 28.1309C10.7766 28.0737 10.6926 27.9915 10.6331 27.8923C10.5737 27.7931 10.5408 27.6803 10.5377 27.5647C10.5347 27.4491 10.5615 27.3346 10.6156 27.2324C11.2534 26.0194 11.8363 24.7783 12.3625 23.5129C12.8919 22.2391 13.4268 20.7905 13.8594 19.2721C13.2818 19.415 12.6888 19.4863 12.0938 19.4844H11.4219C10.8073 19.4826 10.2152 19.4109 9.64544 19.2694ZM8.17 23.0453C5.80972 22.3443 3.73915 20.8994 2.26688 18.9259C0.794616 16.9524 -0.000513374 14.5559 2.48679e-07 12.0938V11.4219C2.48679e-07 8.39261 1.20337 5.48741 3.34539 3.34539C5.48741 1.20337 8.39261 2.39756e-07 11.4219 2.39756e-07H12.0938C15.996 2.39756e-07 19.4387 1.9565 21.5 4.93962C22.5504 3.4158 23.9553 2.17004 25.5938 1.30957C27.2324 0.44909 29.0555 -0.000326005 30.9062 2.39756e-07H31.5781C34.5678 -0.000611903 37.4385 1.17098 39.574 3.26327C41.7095 5.35555 42.9395 8.20172 43 11.1908V12.0938C43 12.5865 42.9686 13.0729 42.9059 13.5531C42.3496 20.5943 39.2563 26.8992 33.5319 31.2879C32.7164 31.9118 31.7181 32.2499 30.6912 32.25C27.0873 32.25 24.9239 28.4203 26.531 25.3592C26.8293 24.7922 27.2297 23.994 27.6544 23.048C25.562 22.4249 23.692 21.2153 22.2659 19.5623C20.8104 24.2293 17.938 28.3275 14.0476 31.2879C13.232 31.9118 12.2337 32.2499 11.2069 32.25C7.60294 32.25 5.4395 28.4203 7.04663 25.3592C7.34494 24.7922 7.74537 23.994 8.17 23.048M29.1325 19.2694C29.7022 19.4109 30.2944 19.4826 30.9089 19.4844H31.5808C32.1757 19.4836 32.7684 19.4124 33.3465 19.2721C32.8567 20.9839 32.246 22.6589 31.519 24.2843C31.0803 25.2827 30.6079 26.266 30.1027 27.2324C30.0486 27.3346 30.0217 27.4491 30.0248 27.5647C30.0279 27.6803 30.0607 27.7931 30.1202 27.8923C30.1796 27.9915 30.2637 28.0737 30.3642 28.1309C30.4647 28.188 30.5783 28.2183 30.6939 28.2188C30.8338 28.218 30.9696 28.1718 31.0809 28.0871L31.3443 27.8828C32.1541 27.2414 32.8995 26.5534 33.5803 25.8188C35.1667 24.1137 36.4322 22.1363 37.3159 19.9816C37.9452 18.4449 38.3943 16.8405 38.6543 15.2005C38.7655 14.5145 38.8471 13.8241 38.8989 13.1311C38.9473 12.7907 38.9714 12.4449 38.9714 12.0938V11.1827H38.9688V11.1719C38.9059 9.25479 38.0993 7.43737 36.7199 6.10454C35.3404 4.77171 33.4963 4.02813 31.5781 4.03125H30.9036C28.9434 4.03125 27.0636 4.8099 25.6776 6.19591C24.2916 7.58192 23.5129 9.46176 23.5129 11.4219V12.0938C23.5129 15.5606 25.9048 18.4739 29.1271 19.2694" fill="#F36E2A"/>
</svg>
