<svg width="41" height="32" viewBox="0 0 41 32" fill="none" xmlns="http://www.w3.org/2000/svg">
<path d="M0 22.6678C0.000343323 24.706 0.67972 26.688 1.93436 28.3112C3.18901 29.9344 4.94995 31.1095 6.94821 31.657C8.94647 32.2045 11.0722 32.0942 13.0007 31.3432C14.9292 30.5921 16.5545 29.2415 17.6283 27.4975C18.7021 25.7536 19.1654 23.7123 18.9474 21.6854C18.7294 19.6585 17.8421 17.7574 16.421 16.2725C15 14.7876 13.1233 13.8005 11.0776 13.462C9.0319 13.1236 6.92966 13.4523 5.092 14.398C5.72714 12.0832 6.62285 10.1445 7.695 8.59775C9.83928 5.49893 12.6486 4.00019 15.6071 4.00019C16.147 4.00019 16.6648 3.78947 17.0466 3.41438C17.4284 3.03928 17.6428 2.53055 17.6428 2.0001C17.6428 1.46964 17.4284 0.960905 17.0466 0.585814C16.6648 0.210724 16.147 0 15.6071 0C11.0716 0 7.09242 2.35478 4.32657 6.34697C1.58514 10.3098 0 15.9021 0 22.6678Z" fill="url(#paint0_linear_4052_8021)"/>
<path d="M23 22.6678C23.0003 24.706 23.6439 26.688 24.8326 28.3112C26.0212 29.9344 27.6894 31.1095 29.5825 31.657C31.4756 32.2045 33.4895 32.0942 35.3165 31.3432C37.1435 30.5921 38.6832 29.2415 39.7005 27.4975C40.7178 25.7536 41.1567 23.7123 40.9502 21.6854C40.7436 19.6585 39.903 17.7574 38.5568 16.2725C37.2105 14.7876 35.4326 13.8005 33.4946 13.462C31.5565 13.1236 29.5649 13.4523 27.824 14.398C28.4257 12.0832 29.2743 10.1445 30.29 8.59775C32.3214 5.49893 34.9828 4.00019 37.7857 4.00019C38.2972 4.00019 38.7877 3.78947 39.1494 3.41438C39.5111 3.03928 39.7143 2.53055 39.7143 2.0001C39.7143 1.46964 39.5111 0.960905 39.1494 0.585814C38.7877 0.210724 38.2972 0 37.7857 0C33.4889 0 29.7191 2.35478 27.0989 6.34697C24.5017 10.3098 23 15.9021 23 22.6678Z" fill="url(#paint1_linear_4052_8021)"/>
<defs>
<linearGradient id="paint0_linear_4052_8021" x1="19" y1="16" x2="0" y2="16" gradientUnits="userSpaceOnUse">
<stop/>
<stop offset="1" stop-color="#233F90"/>
</linearGradient>
<linearGradient id="paint1_linear_4052_8021" x1="41" y1="16" x2="23" y2="16" gradientUnits="userSpaceOnUse">
<stop/>
<stop offset="1" stop-color="#233F90"/>
</linearGradient>
</defs>
</svg>
