<svg width="55" height="55" viewBox="0 0 55 55" fill="none" xmlns="http://www.w3.org/2000/svg">
<path d="M12.4008 46.9304C11.6875 46.9304 11.1117 46.3546 11.1117 45.6414V43.7679C11.1117 42.8656 10.6648 42.032 9.92575 41.5335L8.37888 40.4937C4.74372 38.0617 2.69841 33.8335 3.04216 29.4765L4.00466 17.3335C4.15075 15.546 5.66325 14.1453 7.45075 14.1453C9.23825 14.1453 10.6906 15.4601 10.8883 17.2132L11.9453 26.4515C12.0226 27.1562 11.5156 27.8007 10.8109 27.8781C10.1062 27.964 9.46169 27.4484 9.38435 26.7437L8.32731 17.514C8.27575 17.0671 7.89763 16.732 7.45075 16.732C7.00388 16.732 6.60857 17.0929 6.57419 17.5484L5.61169 29.6828C5.33669 33.1117 6.95232 36.4375 9.81403 38.3539L11.3609 39.3937C12.8218 40.3734 13.6898 42.0062 13.6898 43.7679V45.6414C13.6898 46.3546 13.114 46.9304 12.4008 46.9304Z" fill="#293A4C"/>
<path d="M23.3578 46.9303C22.6446 46.9303 22.0688 46.3546 22.0688 45.6413V43.1749C22.0688 38.9468 19.4047 35.1397 15.4344 33.696C14.7641 33.4553 14.4203 32.7163 14.661 32.046C14.9016 31.3757 15.6406 31.0319 16.311 31.2725C21.2953 33.0858 24.6383 37.8639 24.6383 43.1663V45.6327C24.6383 46.346 24.0625 46.9217 23.3492 46.9217L23.3578 46.9303Z" fill="#293A4C"/>
<path d="M12.7531 37.1335C12.2804 37.1335 11.8249 36.8757 11.6015 36.4202L8.47337 30.1726C8.0265 29.2788 7.98353 28.239 8.35306 27.3194C8.72259 26.3913 9.46165 25.6694 10.3984 25.3171C12.1171 24.6812 14.0077 25.4546 14.7898 27.1132L17.0499 31.9343C17.3507 32.5788 17.0757 33.3437 16.4312 33.653C15.7867 33.9538 15.0218 33.6788 14.7124 33.0343L12.4523 28.2132C12.246 27.7749 11.7476 27.5687 11.2921 27.7405C10.957 27.8694 10.8109 28.1273 10.7507 28.2734C10.6906 28.4194 10.6218 28.703 10.7851 29.0296L13.9132 35.2773C14.2312 35.9132 13.9734 36.6866 13.3374 37.0046C13.1484 37.0991 12.9593 37.1421 12.7617 37.1421L12.7531 37.1335Z" fill="#293A4C"/>
<path d="M24.8531 51.9921H10.5101C9.79685 51.9921 9.22107 51.4164 9.22107 50.7031V45.6414C9.22107 44.9281 9.79685 44.3523 10.5101 44.3523H24.8445C25.5578 44.3523 26.1336 44.9281 26.1336 45.6414V50.7031C26.1336 51.4164 25.5578 51.9921 24.8445 51.9921H24.8531ZM11.7992 49.414H23.5554V46.9304H11.7992V49.414Z" fill="#293A4C"/>
<path d="M42.5992 46.9305C41.886 46.9305 41.3102 46.3547 41.3102 45.6415V43.768C41.3102 42.0063 42.1867 40.3735 43.6477 39.3938L45.186 38.3625C48.0477 36.4461 49.6547 33.1204 49.3883 29.6915L48.4258 17.5571C48.3914 17.1016 48.0047 16.7493 47.5492 16.7493C47.0938 16.7493 46.7242 17.0844 46.6727 17.5313L45.6157 26.761C45.5383 27.4657 44.8938 27.9813 44.1891 27.8954C43.4844 27.818 42.9774 27.1735 43.0547 26.4688L44.1117 17.2391C44.318 15.486 45.7961 14.1711 47.5492 14.1711C49.3024 14.1711 50.8492 15.5719 50.9953 17.3508L51.9578 29.4938C52.3016 33.8508 50.2563 38.0704 46.6211 40.511L45.0742 41.5422C44.3266 42.0407 43.8797 42.8743 43.8797 43.7766V45.65C43.8797 46.3633 43.3039 46.9391 42.5907 46.9391L42.5992 46.9305Z" fill="#293A4C"/>
<path d="M31.6422 46.9305C30.9289 46.9305 30.3531 46.3548 30.3531 45.6415V43.1751C30.3531 37.8727 33.7047 33.086 38.6805 31.2813C39.3508 31.0407 40.0899 31.3844 40.3305 32.0548C40.5711 32.7251 40.2274 33.4641 39.5571 33.7048C35.5867 35.1485 32.9227 38.9555 32.9227 43.1837V45.6501C32.9227 46.3633 32.3469 46.9391 31.6336 46.9391L31.6422 46.9305Z" fill="#293A4C"/>
<path d="M42.2469 37.1336C42.0492 37.1336 41.8602 37.0906 41.6711 36.9961C41.0352 36.6781 40.7773 35.9047 41.0953 35.2687L44.2234 29.0211C44.3867 28.6945 44.3094 28.4109 44.2578 28.2648C44.1977 28.1187 44.0516 27.8609 43.7164 27.732C43.2609 27.5687 42.7625 27.7664 42.5563 28.2047L40.2961 33.0257C39.9953 33.6703 39.2219 33.9453 38.5773 33.6445C37.9328 33.3437 37.6578 32.5703 37.9586 31.9257L40.2188 27.1047C41.0008 25.4461 42.8828 24.6726 44.6102 25.3086C45.5469 25.6523 46.2859 26.3828 46.6555 27.3109C47.025 28.239 46.9734 29.2789 46.5352 30.164L43.407 36.4117C43.1836 36.8672 42.7281 37.125 42.2555 37.125L42.2469 37.1336Z" fill="#293A4C"/>
<path d="M44.4899 51.9921H30.1555C29.4422 51.9921 28.8665 51.4164 28.8665 50.7031V45.6414C28.8665 44.9281 29.4422 44.3523 30.1555 44.3523H44.4899C45.2032 44.3523 45.779 44.9281 45.779 45.6414V50.7031C45.779 51.4164 45.2032 51.9921 44.4899 51.9921ZM31.436 49.414H43.1922V46.9304H31.436V49.414Z" fill="#293A4C"/>
<path d="M41.525 7.84609C41.525 7.84609 41.525 7.82031 41.5078 7.81172L41.4906 7.76016C40.7086 5.775 39.1101 4.21094 37.1164 3.48047C34.7617 2.58672 31.8312 3.01641 29.7859 4.64063L27.5 6.45391L25.214 4.64063C23.8906 3.58359 22.2234 3.00781 20.5218 3.00781C19.6023 3.00781 18.7086 3.17109 17.8921 3.48047C15.8812 4.21953 14.2828 5.78359 13.5179 7.72578L13.4664 7.84609C12.4007 10.5445 12.9765 13.6555 14.9531 15.7695L26.5547 28.2477C26.7953 28.5141 27.139 28.6602 27.5 28.6602C27.8609 28.6602 28.1961 28.5141 28.4453 28.2477L40.0382 15.7695C42.0148 13.6469 42.5906 10.5359 41.525 7.8375V7.84609Z" fill="#FF5F00"/>
</svg>
