<svg width="66" height="66" viewBox="0 0 66 66" fill="none" xmlns="http://www.w3.org/2000/svg">
<path d="M42.3638 49.9674L37.158 48.2323C38.573 47.3295 39.6571 45.9922 40.2476 44.4209C40.838 42.8497 40.903 41.1294 40.4328 39.5181C39.9625 37.9068 38.9824 36.4914 37.6395 35.4844C36.2966 34.4774 34.6634 33.9331 32.9849 33.9331C31.3064 33.9331 29.6731 34.4774 28.3303 35.4844C26.9874 36.4914 26.0073 37.9068 25.537 39.5181C25.0668 41.1294 25.1318 42.8497 25.7222 44.4209C26.3127 45.9922 27.3968 47.3295 28.8118 48.2323L23.606 49.9674C22.275 50.4097 21.1172 51.2603 20.2972 52.3981C19.4771 53.536 19.0365 54.9033 19.0378 56.3059V59.2295C19.0385 59.931 19.3174 60.6035 19.8134 61.0995C20.3094 61.5955 20.982 61.8744 21.6834 61.8751H44.2864C44.9879 61.8745 45.6606 61.5956 46.1568 61.0996C46.653 60.6036 46.9321 59.931 46.933 59.2295V56.3059C46.9342 54.9032 46.4933 53.5358 45.6731 52.398C44.8529 51.2601 43.6949 50.4096 42.3638 49.9674ZM27.2888 41.7023C27.2888 40.5757 27.6229 39.4744 28.2488 38.5377C28.8747 37.601 29.7643 36.8709 30.8051 36.4398C31.8459 36.0087 32.9912 35.8959 34.0961 36.1156C35.201 36.3354 36.216 36.8779 37.0126 37.6745C37.8092 38.4711 38.3517 39.4861 38.5715 40.591C38.7913 41.6959 38.6785 42.8412 38.2473 43.882C37.8162 44.9228 37.0861 45.8124 36.1494 46.4383C35.2127 47.0642 34.1114 47.3983 32.9849 47.3983C31.4747 47.3967 30.0268 46.796 28.9589 45.7282C27.8911 44.6603 27.2904 43.2124 27.2888 41.7023ZM44.8704 59.2295C44.8701 59.3842 44.8084 59.5325 44.6989 59.6418C44.5894 59.7511 44.4411 59.8125 44.2863 59.8126H21.6834C21.5288 59.8123 21.3807 59.7508 21.2714 59.6415C21.1621 59.5322 21.1006 59.384 21.1003 59.2295V56.3059C21.0995 55.3362 21.4041 54.3908 21.9711 53.6041C22.538 52.8173 23.3383 52.2291 24.2585 51.9231L30.3775 49.8838C32.0706 49.3238 33.899 49.3238 35.5922 49.8838L41.7112 51.9231C42.6315 52.2291 43.432 52.8173 43.9991 53.604C44.5661 54.3907 44.871 55.3361 44.8704 56.3059L44.8704 59.2295Z" fill="#25ABE2"/>
<path d="M58.044 49.3772L54.2226 48.106C55.3227 47.3021 56.1404 46.1709 56.5589 44.8742C56.9773 43.5775 56.9749 42.1817 56.5522 40.8864C56.1294 39.5911 55.3079 38.4627 54.2051 37.6625C53.1023 36.8623 51.7747 36.4313 50.4121 36.4312C49.0496 36.431 47.7219 36.8617 46.6189 37.6617C45.516 38.4617 44.6942 39.59 44.2712 40.8852C43.8482 42.1804 43.8456 43.5762 44.2637 44.873C44.6819 46.1697 45.4994 47.3011 46.5993 48.1052C46.4666 48.1406 46.3423 48.2021 46.2337 48.2861C46.125 48.3702 46.0343 48.475 45.9667 48.5946C45.8991 48.7142 45.8561 48.846 45.8401 48.9824C45.8242 49.1189 45.8356 49.2571 45.8738 49.389C45.912 49.521 45.9761 49.6439 46.0624 49.7508C46.1487 49.8576 46.2555 49.9461 46.3765 50.0112C46.4975 50.0762 46.6302 50.1164 46.7669 50.1294C46.9037 50.1425 47.0416 50.1281 47.1727 50.0872C48.1923 49.6658 49.2757 49.4197 50.3772 49.3593C51.8577 49.2388 55.9425 50.9305 57.3895 51.3328C58.0948 51.5694 58.708 52.0214 59.1427 52.6251C59.5774 53.2287 59.8117 53.9536 59.8125 54.6975V57.0491C59.812 57.1209 59.7839 57.1898 59.7341 57.2416C59.6842 57.2933 59.6164 57.3239 59.5446 57.327H50.0257C49.7522 57.327 49.4899 57.4357 49.2965 57.6291C49.1031 57.8225 48.9944 58.0848 48.9944 58.3583C48.9944 58.6318 49.1031 58.8941 49.2965 59.0875C49.4899 59.2809 49.7522 59.3895 50.0257 59.3895H59.5446C60.1637 59.3874 60.7568 59.1398 61.1936 58.7011C61.6305 58.2623 61.8755 57.6682 61.875 57.0491V54.6975C61.8744 53.5212 61.5042 52.3747 60.8168 51.42C60.1294 50.4654 59.1595 49.7508 58.044 49.3772ZM50.4187 47.2978C49.2575 47.2892 48.1466 46.8222 47.3282 45.9984C46.5097 45.1745 46.0499 44.0607 46.0489 42.8994C46.048 41.7381 46.5059 40.6235 47.323 39.7983C48.1401 38.9731 49.2501 38.5041 50.4114 38.4936C51.5726 38.5022 52.6835 38.9693 53.5019 39.7931C54.3204 40.6169 54.7802 41.7308 54.7812 42.8921C54.7822 44.0534 54.3242 45.168 53.5071 45.9932C52.69 46.8184 51.58 47.2873 50.4187 47.2978Z" fill="#25ABE2"/>
<path d="M8.6065 51.3348C10.0472 50.9419 14.0799 49.2581 15.5525 49.3591C16.6709 49.4101 17.7723 49.6533 18.8082 50.078C19.0664 50.157 19.3453 50.1316 19.5849 50.0072C19.8246 49.8829 20.0059 49.6696 20.09 49.413C20.1741 49.1565 20.1543 48.8772 20.0347 48.6351C19.9152 48.393 19.7055 48.2074 19.4507 48.1182C20.5495 47.3118 21.3655 46.179 21.7825 44.8814C22.1995 43.5837 22.1961 42.1876 21.7728 40.892C21.3495 39.5965 20.5279 38.4677 19.4252 37.6666C18.3225 36.8655 16.995 36.4331 15.6321 36.4309C14.2691 36.4288 12.9403 36.8571 11.8351 37.6547C10.7299 38.4523 9.90482 39.5786 9.47746 40.8728C9.0501 42.167 9.04232 43.5631 9.45523 44.862C9.86814 46.1609 10.6806 47.2963 11.7769 48.1062L7.95187 49.3791C6.83726 49.7529 5.86822 50.4674 5.18157 51.4217C4.49492 52.376 4.12534 53.5218 4.125 54.6974V57.049C4.12444 57.6681 4.36946 58.2622 4.80632 58.701C5.24319 59.1397 5.83624 59.3873 6.45539 59.3894H15.9431C16.2132 59.3843 16.4706 59.2734 16.6598 59.0805C16.849 58.8877 16.955 58.6283 16.955 58.3581C16.955 58.088 16.8489 57.8286 16.6597 57.6358C16.4705 57.4429 16.2132 57.332 15.9431 57.3269H6.45539C6.38361 57.3238 6.31577 57.2932 6.26591 57.2415C6.21604 57.1898 6.18797 57.1208 6.1875 57.049V54.6974C6.18797 53.9543 6.42168 53.23 6.85567 52.6267C7.28966 52.0234 7.90205 51.5716 8.6065 51.3348ZM15.5876 38.4936C16.7478 38.5037 17.8572 38.9715 18.6743 39.7953C19.4915 40.619 19.9504 41.732 19.9513 42.8923C19.9522 44.0526 19.495 45.1664 18.6791 45.9913C17.8632 46.8163 16.7546 47.2858 15.5943 47.2978C14.4341 47.2876 13.3247 46.8198 12.5076 45.9961C11.6904 45.1723 11.2315 44.0593 11.2306 42.899C11.2297 41.7387 11.6869 40.625 12.5028 39.8C13.3187 38.975 14.4273 38.5055 15.5876 38.4936Z" fill="#25ABE2"/>
<path d="M33 31.9687C39.1521 30.352 45.4102 26.4077 45.4223 19.5585L45.3075 9.17954C45.3052 8.96887 45.2384 8.76397 45.1162 8.59238C44.9939 8.4208 44.8221 8.29077 44.6237 8.21978L33.3475 4.18542C33.1228 4.10486 32.8772 4.10486 32.6526 4.18542L21.3763 8.21978C21.1779 8.29077 21.0061 8.4208 20.8838 8.59238C20.7616 8.76397 20.6948 8.96887 20.6925 9.17954L20.5776 19.5696C20.5905 26.4046 26.8549 30.3579 33 31.9687ZM22.7469 9.91974L33 6.25195L43.2531 9.91974L43.3599 19.5696C43.3178 25.2984 38.036 28.2686 33 29.865C30.0719 29.0593 27.3788 27.5656 25.1448 25.5084C24.3474 24.7416 23.7142 23.8208 23.2836 22.8018C22.8531 21.7828 22.6342 20.6869 22.6402 19.5807L22.7469 9.91974Z" fill="#25ABE2"/>
<path d="M30.8811 19.9795C30.9768 20.0753 31.0905 20.1512 31.2156 20.2031C31.3407 20.2549 31.4748 20.2816 31.6102 20.2816C31.7456 20.2816 31.8797 20.2549 32.0048 20.2031C32.1299 20.1512 32.2436 20.0753 32.3393 19.9795L37.839 14.4788C38.0303 14.285 38.1373 14.0234 38.1364 13.751C38.1355 13.4787 38.027 13.2177 37.8344 13.0251C37.6418 12.8326 37.3808 12.724 37.1085 12.7231C36.8361 12.7223 36.5745 12.8292 36.3807 13.0206L31.6102 17.7921L29.5889 15.7709C29.3951 15.5797 29.1335 15.4729 28.8613 15.4739C28.589 15.4748 28.3282 15.5834 28.1357 15.7759C27.9432 15.9684 27.8346 16.2292 27.8337 16.5015C27.8328 16.7737 27.9395 17.0353 28.1307 17.2291L30.8811 19.9795Z" fill="#25ABE2"/>
</svg>
