<svg width="55" height="55" viewBox="0 0 55 55" fill="none" xmlns="http://www.w3.org/2000/svg">
<g clip-path="url(#clip0_743_1561)">
<path d="M20.9459 8.26064C17.4229 8.26064 14.5565 11.1269 14.5565 14.65C14.5565 18.1731 17.4228 21.0393 20.9459 21.0393C24.469 21.0393 27.3352 18.1731 27.3352 14.65C27.3352 11.1269 24.469 8.26064 20.9459 8.26064ZM20.9459 19.3205C18.3705 19.3205 16.2753 17.2253 16.2753 14.6499C16.2753 12.0744 18.3705 9.97939 20.9459 9.97939C23.5212 9.97939 25.6165 12.0745 25.6165 14.65C25.6165 17.2254 23.5212 19.3205 20.9459 19.3205ZM20.9459 3.94281C11.5704 3.94281 3.94292 11.5703 3.94292 20.9458C3.94292 30.3212 11.5703 37.9488 20.9459 37.9488C30.3214 37.9488 37.9488 30.3213 37.9488 20.9459C37.9488 11.5704 30.3213 3.94281 20.9459 3.94281ZM12.2167 33.4846V25.8621C12.2167 24.3218 13.4698 23.0686 15.0101 23.0686H16.239C17.6722 23.8712 19.2941 24.2941 20.9459 24.2941C22.5976 24.2941 24.2196 23.8711 25.6527 23.0686H26.8815C28.4218 23.0686 29.6749 24.3218 29.6749 25.8621V33.4846C27.1984 35.214 24.1886 36.23 20.9457 36.23C17.7027 36.23 14.6932 35.214 12.2167 33.4846ZM31.3938 32.0904V25.8621C31.3938 23.3741 29.3697 21.3499 26.8817 21.3499H25.4229C25.2685 21.3499 25.117 21.3915 24.9843 21.4703C23.7663 22.1931 22.3699 22.5753 20.946 22.5753C19.5221 22.5753 18.1256 22.1931 16.9076 21.4702C16.7749 21.3915 16.6233 21.3499 16.469 21.3499H15.0101C12.5221 21.3499 10.4979 23.3741 10.4979 25.8621V32.0904C7.52329 29.3 5.66167 25.3365 5.66167 20.9458C5.66167 12.518 12.5182 5.66156 20.9459 5.66156C29.3735 5.66156 36.2301 12.518 36.2301 20.9458C36.2301 25.3365 34.3684 29.3 31.3938 32.0904ZM43.398 36.8959C43.0624 36.5604 42.5183 36.5604 42.1827 36.8959L41.4232 37.6554L37.5135 33.7458C40.2566 30.2036 41.8917 25.7623 41.8917 20.9458C41.8917 9.39619 32.4954 0 20.9459 0C9.3963 0 0 9.3963 0 20.9458C0 32.4952 9.3963 41.8915 20.9459 41.8915C25.7625 41.8915 30.2037 40.2563 33.7459 37.5133L37.6556 41.4228L36.896 42.1824C36.7348 42.3437 36.6443 42.5622 36.6443 42.7901C36.6443 43.0181 36.7348 43.2366 36.896 43.3978L48.2464 54.7482C48.4142 54.916 48.6341 54.9999 48.8541 54.9999C49.074 54.9999 49.294 54.916 49.4618 54.7482L54.7485 49.4615C54.9097 49.3003 55.0002 49.0818 55.0002 48.8539C55.0002 48.6259 54.9097 48.4074 54.7485 48.2462L43.398 36.8959ZM1.71875 20.9458C1.71875 10.344 10.344 1.71875 20.9459 1.71875C31.5478 1.71875 40.173 10.344 40.173 20.9458C40.173 31.5475 31.5478 40.1728 20.9459 40.1728C10.344 40.1728 1.71875 31.5477 1.71875 20.9458ZM35.066 36.4028C35.5314 35.9774 35.9774 35.5313 36.4029 35.0659L40.2077 38.8707L38.8708 40.2076L35.066 36.4028ZM48.854 52.9254L38.7189 42.7902L42.7903 38.7189L52.9255 48.8541L48.854 52.9254Z" fill="#25ABE2"/>
</g>
<defs>
<clipPath id="clip0_743_1561">
<rect width="55" height="55" fill="white"/>
</clipPath>
</defs>
</svg>
