<svg width="63" height="63" viewBox="0 0 63 63" fill="none" xmlns="http://www.w3.org/2000/svg">
<path d="M12.1921 41.2001C10.7813 42.5124 9.64825 44.0587 8.82411 45.7959L8.38878 46.7139L1.30687 55.6533C0.989413 56.054 1.05693 56.6363 1.45771 56.9537C1.62779 57.0885 1.83059 57.1538 2.0319 57.1538C2.30493 57.1538 2.57536 57.0336 2.75816 56.8029L9.90548 47.7808C9.94905 47.7259 9.98608 47.666 10.0162 47.6028L10.497 46.5895C11.2201 45.0649 12.2147 43.7076 13.4532 42.5556C13.8275 42.2075 13.8487 41.6218 13.5005 41.2473C13.1523 40.8732 12.5666 40.8517 12.1921 41.2001Z" fill="#25ABE2"/>
<path d="M61.0512 34.9326C59.7826 33.4357 57.5329 33.2502 56.0363 34.5187L55.5578 34.9243C55.4457 34.3455 55.1891 33.7869 54.7816 33.3061C53.5132 31.8095 51.2634 31.6239 49.7667 32.8921L49.3421 33.2519C49.2233 32.6915 48.9676 32.1521 48.5717 31.685C47.3032 30.1883 45.0537 30.0027 43.5569 31.271L36.4415 37.301C36.0762 37.1976 35.6914 37.1411 35.2934 37.1411H22.509C20.1376 37.1411 17.7651 37.7098 15.6484 38.7859C15.1927 39.0176 15.011 39.5748 15.2427 40.0305C15.4744 40.4862 16.0317 40.6681 16.4874 40.4363C18.3456 39.4918 20.4277 38.9925 22.509 38.9925H35.2935C36.6005 38.9925 37.6638 40.0558 37.6638 41.3628C37.6638 42.006 37.4106 42.608 36.9508 43.0578C36.4913 43.5073 35.8877 43.7434 35.2418 43.7327C35.235 43.7326 35.2282 43.7324 35.2213 43.7324H26.9701C26.4588 43.7324 26.0444 44.1468 26.0444 44.6582C26.0444 45.1695 26.4588 45.5839 26.9701 45.5839H35.2117C35.2402 45.5845 35.2687 45.5848 35.2972 45.5848C36.406 45.5848 37.4497 45.1595 38.2453 44.3814C38.362 44.2673 38.4703 44.1472 38.5718 44.0226H46.3938C47.2268 44.0226 48.0356 43.726 48.6713 43.1873L57.2334 35.9311C57.9514 35.3227 59.0303 35.4118 59.6388 36.1295C60.2471 36.8475 60.158 37.9267 59.4403 38.5351L45.924 49.9898C44.6624 51.0589 43.1279 51.7283 41.4862 51.9258L39.8186 52.1265C39.311 52.1876 38.949 52.6485 39.0101 53.1563C39.0666 53.6263 39.4662 53.9714 39.928 53.9714C39.9651 53.9714 40.0023 53.9691 40.0399 53.9646L41.7074 53.7639C43.7102 53.5231 45.5821 52.7065 47.1209 51.4022L60.6373 39.9475C62.1339 38.6791 62.3197 36.4294 61.0512 34.9326ZM44.7539 32.6834C45.4716 32.0749 46.5509 32.1641 47.1594 32.8819C47.7201 33.5436 47.6983 34.5072 47.1141 35.14L39.5094 41.5849C39.5132 41.5112 39.5153 41.4371 39.5153 41.3628C39.5153 40.1419 38.9938 39.041 38.1625 38.2694L44.7539 32.6834ZM41.6812 42.1712L50.9638 34.3045C51.6819 33.696 52.7609 33.7852 53.3692 34.503C53.9777 35.221 53.8885 36.3001 53.1707 36.9085L47.4744 41.7749C47.1729 42.0304 46.789 42.1712 46.3938 42.1712H41.6812Z" fill="#25ABE2"/>
<path d="M35.8858 52.5996L26.3932 53.7416C26.1591 53.7699 25.9444 53.8863 25.7933 54.0672L19.6005 61.4809C19.2728 61.8734 19.3251 62.4571 19.7175 62.7848C19.8906 62.9295 20.101 63.0001 20.3105 63.0001C20.5754 63.0001 20.8383 62.887 21.0214 62.6679L26.9789 55.5359L36.107 54.4379C36.6146 54.3768 36.9767 53.9159 36.9156 53.4082C36.8545 52.9007 36.3918 52.539 35.8858 52.5996Z" fill="#25ABE2"/>
<path d="M28.535 26.4892C28.535 26.4892 23.125 18.0675 23.1173 18.0566C22.2015 16.7578 21.5934 15.2418 21.3585 13.6728C21.283 13.1671 20.8111 12.8182 20.306 12.8943C19.8003 12.9698 19.4519 13.4412 19.5276 13.9468C19.8038 15.7931 20.5176 17.5767 21.5924 19.1066L26.8304 27.2612V28.6112C26.8304 29.0021 26.9683 29.3613 27.1974 29.6435V32.8254C27.1974 34.3145 28.4089 35.5263 29.8983 35.5263H33.1641C34.6533 35.5263 35.865 34.3147 35.865 32.8254V29.6435C36.0941 29.3613 36.2319 29.0021 36.2319 28.6112V27.2612L41.4699 19.1066C42.909 17.0582 43.6697 14.6486 43.6697 12.1371C43.6697 8.12424 41.6892 4.37531 38.3719 2.1084C34.9832 -0.207264 30.7382 -0.637663 26.726 0.927302C23.8195 2.061 21.4953 4.36976 20.3495 7.26171C20.0355 8.05426 19.7953 8.86729 19.6356 9.67822C19.5367 10.1798 19.8633 10.6666 20.3648 10.7655C20.8675 10.8648 21.3532 10.5378 21.4521 10.0363C21.5901 9.33558 21.7983 8.63154 22.0708 7.94366C23.0278 5.52839 24.9698 3.59968 27.3989 2.65223C30.8329 1.3129 34.4517 1.67208 37.3274 3.63708C40.1391 5.55876 41.818 8.73633 41.818 12.1372C41.818 14.2715 41.1702 16.3184 39.9447 18.0566C39.937 18.0675 34.527 26.4892 34.527 26.4892C34.4312 26.6386 34.3802 26.8121 34.3802 26.9896V28.4013H34.1541L34.6814 19.4524H35.5639C36.9839 19.4524 38.1389 18.2973 38.1389 16.8774V16.7751C38.1389 15.3551 36.9839 14.2001 35.5639 14.2001C34.2026 14.2001 33.0734 15.2647 32.9934 16.6237L32.9359 17.6011H30.1349L30.0773 16.6237C29.9974 15.2647 28.8681 14.2001 27.5067 14.2001C26.0867 14.2001 24.9317 15.3551 24.9317 16.7751V16.8774C24.9317 18.2973 26.0867 19.4524 27.5067 19.4524H28.3893L28.9165 28.4013H28.6816V26.9896C28.6817 26.8121 28.6308 26.6386 28.535 26.4892ZM34.8417 16.7325C34.8642 16.3505 35.1814 16.0513 35.564 16.0513C35.963 16.0513 36.2876 16.3759 36.2876 16.7748V16.8771C36.2876 17.2761 35.963 17.6007 35.564 17.6007H34.7905L34.8417 16.7325ZM27.5067 17.6008C27.1078 17.6008 26.7831 17.2762 26.7831 16.8773V16.7749C26.7831 16.376 27.1078 16.0514 27.5067 16.0514C27.8893 16.0514 28.2066 16.3506 28.2291 16.7326L28.2803 17.6009H27.5067V17.6008ZM34.0133 32.8255C34.0133 33.2939 33.6322 33.6749 33.1638 33.6749H29.898C29.4296 33.6749 29.0486 33.2939 29.0486 32.8255V30.2526H34.0133V32.8255ZM30.244 19.4523H32.8267L32.2995 28.4012H30.7714L30.244 19.4523Z" fill="#25ABE2"/>
<path d="M47.564 13.1425C47.564 13.6539 47.9784 14.0682 48.4897 14.0682H50.672C51.1833 14.0682 51.5977 13.6539 51.5977 13.1425C51.5977 12.6312 51.1833 12.2168 50.672 12.2168H48.4897C47.9784 12.2168 47.564 12.6313 47.564 13.1425Z" fill="#25ABE2"/>
<path d="M47.0255 8.24796C47.1322 8.24796 47.241 8.22932 47.347 8.18994L49.3931 7.43147C49.8725 7.25385 50.117 6.72113 49.9394 6.24173C49.7617 5.76233 49.2291 5.51769 48.7497 5.69543L46.7036 6.4539C46.2242 6.63152 45.9797 7.16424 46.1573 7.64364C46.2958 8.01702 46.6494 8.24796 47.0255 8.24796Z" fill="#25ABE2"/>
<path d="M46.7037 19.831L48.7498 20.5894C48.8558 20.6286 48.9646 20.6474 49.0713 20.6474C49.4474 20.6474 49.8012 20.4164 49.9394 20.0431C50.117 19.5637 49.8725 19.0311 49.3931 18.8533L47.347 18.095C46.8676 17.9175 46.3349 18.162 46.1573 18.6413C45.9798 19.1207 46.2243 19.6533 46.7037 19.831Z" fill="#25ABE2"/>
<path d="M12.3901 14.0682H14.5724C15.0837 14.0682 15.4981 13.6539 15.4981 13.1425C15.4981 12.6312 15.0837 12.2168 14.5724 12.2168H12.3901C11.8788 12.2168 11.4644 12.6312 11.4644 13.1425C11.4644 13.6539 11.8788 14.0682 12.3901 14.0682Z" fill="#25ABE2"/>
<path d="M13.6687 7.43156L15.7148 8.19004C15.8208 8.22929 15.9295 8.24805 16.0364 8.24805C16.4124 8.24805 16.7661 8.01711 16.9044 7.64374C17.082 7.16434 16.8375 6.63174 16.3581 6.454L14.312 5.69552C13.8329 5.51816 13.3002 5.76242 13.1223 6.24182C12.9448 6.72123 13.1894 7.25382 13.6687 7.43156Z" fill="#25ABE2"/>
<path d="M16.9046 18.6414C16.7269 18.162 16.1943 17.9173 15.7148 18.0951L13.6687 18.8534C13.1893 19.0311 12.9448 19.5638 13.1224 20.0432C13.2608 20.4164 13.6143 20.6475 13.9905 20.6475C14.0973 20.6475 14.206 20.6289 14.312 20.5895L16.3581 19.8311C16.8377 19.6534 17.0823 19.1208 16.9046 18.6414Z" fill="#25ABE2"/>
</svg>
