<svg width="30" height="27" viewBox="0 0 30 27" fill="none" xmlns="http://www.w3.org/2000/svg">
<path d="M7.48438 0.127782C8.81138 -0.0982762 10.1722 -0.0237051 11.4665 0.345998C12.7609 0.715702 13.9557 1.37111 14.963 2.26392L15.0185 2.31339L15.0695 2.26841C16.0308 1.4249 17.1611 0.796049 18.3848 0.423817C19.6084 0.0515852 20.8975 -0.0554697 22.1658 0.109794L22.5346 0.163759C24.1334 0.439747 25.6277 1.14287 26.8594 2.19866C28.0911 3.25446 29.0143 4.62363 29.5312 6.16118C30.0481 7.69873 30.1395 9.34743 29.7957 10.9327C29.452 12.5179 28.6858 13.9807 27.5784 15.1662L27.3085 15.4435L27.2365 15.505L16.0665 26.5664C15.8088 26.8215 15.4673 26.9745 15.1053 26.9971C14.7433 27.0197 14.3854 26.9103 14.0979 26.6893L13.957 26.5664L2.72251 15.4405C1.53238 14.2827 0.685975 12.8182 0.277048 11.2091C-0.13188 9.60001 -0.0873764 7.90916 0.40563 6.3238C0.898637 4.73844 1.82091 3.32044 3.0703 2.22685C4.31969 1.13326 5.84745 0.406748 7.48438 0.127782Z" fill="#F36E2A"/>
</svg>
