<svg width="71" height="68" viewBox="0 0 71 68" fill="none" xmlns="http://www.w3.org/2000/svg">
<path d="M69.885 39.7122C69.4266 39.1372 68.857 38.663 68.2112 38.3187C67.5653 37.9745 66.8568 37.7675 66.129 37.7103C65.4013 37.6532 64.6697 37.7472 63.9791 37.9865C63.2886 38.2258 62.6536 38.6054 62.1131 39.102C61.2032 38.3169 60.0882 37.8152 58.9029 37.6575C57.7175 37.4997 56.5123 37.6928 55.4329 38.2132L47.5962 42.0503C47.345 41.9763 21.3129 38.9064 21.3129 38.9064C18.9825 38.6357 16.6217 38.9026 14.4077 39.6872L1.71314 44.1972C1.21272 44.3749 0.779141 44.7054 0.472272 45.1433C0.165404 45.5811 0.00038764 46.1046 1.22505e-05 46.6414V60.1615C-0.00149103 60.6527 0.135387 61.1342 0.394595 61.5495C0.653803 61.9647 1.02459 62.2965 1.46348 62.506C1.90237 62.7155 2.39116 62.7939 2.87253 62.7322C3.3539 62.6704 3.8079 62.4709 4.18127 62.1572C5.6478 60.8607 7.43919 59.9988 9.35834 59.6663C11.2775 59.3339 13.25 59.5438 15.059 60.2729L33.6108 66.7505C35.5658 67.4328 37.6567 67.6173 39.6989 67.2878C41.7411 66.9583 43.6717 66.1249 45.3203 64.8611L68.858 46.8811C69.9179 46.057 70.6183 44.8468 70.8101 43.5079C71.0019 42.169 70.67 40.8071 69.885 39.7122ZM56.5329 40.5211C57.0613 40.2664 57.6425 40.1441 58.2274 40.1647C58.8123 40.1853 59.3837 40.3481 59.8933 40.6394L50.9859 46.8091C50.9908 46.7159 50.9933 46.6214 50.9933 46.527C50.9692 45.5076 50.621 44.5232 50.0004 43.7199L56.5329 40.5211ZM67.334 44.8347L43.7951 62.816C42.4771 63.8259 40.934 64.492 39.3017 64.7557C37.6694 65.0194 35.9981 64.8725 34.4351 64.3281L15.9031 57.8574C13.6695 57.0265 11.2599 56.802 8.91398 57.2063C6.56806 57.6105 4.36756 58.6295 2.53133 60.1618L2.5498 46.6152L15.2456 42.1052C17.0981 41.45 19.0728 41.2265 21.0225 41.4514L46.5365 44.4349C47.0831 44.5098 47.5816 44.7911 47.9321 45.2224C48.2825 45.6537 48.459 46.2031 48.4262 46.7606C48.3933 47.318 48.1536 47.8423 47.755 48.2284C47.3564 48.6145 46.8284 48.8338 46.2768 48.8424H26.0726C25.737 48.8424 25.4151 48.9773 25.1777 49.2176C24.9404 49.4579 24.807 49.7838 24.807 50.1236C24.807 50.4634 24.9404 50.7893 25.1777 51.0296C25.4151 51.2699 25.737 51.4049 26.0726 51.4049H33.7113L38.0775 54.4009C39.025 55.0637 40.15 55.4177 41.3017 55.4153C42.4534 55.413 43.577 55.0545 44.5218 54.3878C44.5319 54.3861 64.1989 40.7638 64.2021 40.7601C64.4662 40.5505 64.7686 40.3957 65.092 40.3046C65.4154 40.2136 65.7533 40.188 66.0864 40.2295C66.4196 40.271 66.7413 40.3786 67.0333 40.5462C67.3253 40.7139 67.5816 40.9382 67.7878 41.2064C67.9939 41.4745 68.1457 41.7813 68.2345 42.1089C68.3232 42.4366 68.3472 42.7788 68.3051 43.1159C68.2629 43.453 68.1554 43.7784 67.9888 44.0733C67.8221 44.3683 67.5996 44.627 67.334 44.8347ZM44.3463 51.4049L43.087 52.2764C42.5616 52.6478 41.9366 52.8475 41.2958 52.8486C40.655 52.8498 40.0293 52.6522 39.5027 52.2826L38.2235 51.4049L44.3463 51.4049Z" fill="#F36E2A"/>
<path d="M37.8722 34.9294C38.5707 35.6341 39.5166 36.0296 40.5026 36.0294C41.4887 36.0291 42.4344 35.6331 43.1325 34.9281L57.1174 20.7712C59.3211 18.5178 60.5712 15.4842 60.6028 12.3135C60.6344 9.14285 59.4449 6.08435 57.2866 3.78647C53.0398 -0.869911 45.1355 -0.937663 40.5184 3.30618C28.6906 -7.03016 13.267 9.1299 23.8763 20.7713L37.8722 34.9294ZM25.6659 5.42186C27.4456 3.63866 29.8485 2.63842 32.3525 2.63844C34.8565 2.63846 37.2593 3.63874 39.039 5.42196L39.6088 5.99867C39.7591 6.13684 39.9378 6.23953 40.1321 6.29934C40.3263 6.35915 40.5313 6.37458 40.7321 6.34454C40.933 6.31449 41.1247 6.23971 41.2936 6.12559C41.4625 6.01146 41.6042 5.86083 41.7086 5.68455C47.5821 -0.344829 58.1554 3.4964 58.095 12.1912C58.0986 13.4485 57.8559 14.6941 57.3809 15.8559C56.9059 17.0176 56.2081 18.0725 55.3277 18.9594L41.3428 33.1164C41.1197 33.3417 40.8175 33.4683 40.5023 33.4683C40.1872 33.4683 39.885 33.3417 39.6619 33.1164L25.6671 18.9607C23.9014 17.1612 22.9104 14.7279 22.9102 12.1915C22.9099 9.65517 23.9005 7.22165 25.6659 5.42186Z" fill="#F36E2A"/>
</svg>
