<svg width="68" height="68" viewBox="0 0 68 68" fill="none" xmlns="http://www.w3.org/2000/svg">
<path d="M28.7024 57.6289C28.4529 57.6289 28.2006 57.5645 27.9736 57.4243C21.4119 53.4217 0 38.6669 0 16.9019C0 7.58202 7.58202 0 16.9019 0C22.6311 0 27.769 2.6488 30.8326 7.04946C33.8963 2.6488 39.0341 0 44.7634 0C54.0832 0 61.6653 7.58202 61.6653 16.9019C61.6653 19.2283 61.4214 21.5856 60.9365 23.9149C60.7767 24.6717 60.0339 25.1482 59.2771 25.0024C58.5203 24.8427 58.0326 24.1027 58.1896 23.3431C58.6353 21.2016 58.8623 19.0349 58.8623 16.9019C58.8623 9.12645 52.5388 2.80296 44.7634 2.80296C39.2331 2.80296 34.3784 5.72365 32.0912 10.4242C31.6203 11.3884 30.0422 11.3884 29.5713 10.4242C27.2869 5.72365 22.4293 2.80296 16.9019 2.80296C9.12646 2.80296 2.80297 9.12645 2.80297 16.9019C2.80297 37.2094 23.1861 51.2214 29.4311 55.0334C30.0926 55.437 30.3029 56.2975 29.8992 56.959C29.6358 57.3907 29.1733 57.6289 28.7024 57.6289Z" fill="#F36E2A"/>
<path d="M50.4535 67.2711C50.2685 67.2711 50.0835 67.2347 49.9098 67.159C49.2427 66.8815 33.6357 60.1348 33.6357 46.3498V34.6362C33.6357 34.0364 34.0197 33.501 34.5888 33.3076L50.0051 28.1025C50.2966 28.0044 50.6105 28.0044 50.902 28.1025L66.3183 33.3076C66.8873 33.4982 67.2713 34.0336 67.2713 34.6362V46.3498C67.2713 60.1348 51.6644 66.8815 50.9973 67.1618C50.8235 67.2347 50.6385 67.2711 50.4535 67.2711ZM36.4387 35.6425V46.3498C36.4387 56.959 47.8047 63.0499 50.4535 64.328C53.0995 63.0471 64.4684 56.9338 64.4684 46.3498V35.6425L50.4535 30.9111L36.4387 35.6425Z" fill="#F36E2A"/>
<path d="M49.0519 53.2564C49.0267 53.2564 48.9987 53.2564 48.9735 53.2536C48.5754 53.2311 48.2054 53.0405 47.956 52.7294L42.3501 45.722C41.8679 45.1166 41.966 44.2364 42.5687 43.7515C43.1741 43.2666 44.0571 43.3675 44.5392 43.9702L49.1669 49.7555L57.8701 41.0523C58.4167 40.5057 59.3052 40.5057 59.8518 41.0523C60.3984 41.5988 60.3984 42.4874 59.8518 43.034L50.0414 52.8443C49.7807 53.1106 49.4219 53.2564 49.0519 53.2564Z" fill="#F36E2A"/>
</svg>
