<svg width="72" height="72" viewBox="0 0 72 72" fill="none" xmlns="http://www.w3.org/2000/svg">
<path d="M69.4509 30.8203C71.0312 27.3421 71.8324 23.6423 71.8324 19.8236V12.6732C71.8324 9.419 68.2866 7.39778 65.4944 9.02219V7.39174C65.4944 4.12327 61.9228 2.10289 59.1293 3.75508C58.8962 1.64602 57.1032 0 54.9329 0C53.0931 0 51.5244 1.18299 50.9473 2.82831C48.5906 1.23925 45.2782 2.40021 44.5191 5.28142C39.7051 5.28142 35.2759 4.40614 30.8204 2.38141C27.3421 0.801193 23.6423 0 19.8236 0H12.6732C9.419 0 7.39778 3.54602 9.02219 6.33798H7.39174C4.12327 6.33798 2.10289 9.90954 3.75508 12.703C1.64602 12.9362 0 14.7293 0 16.8994C0 18.7394 1.18299 20.3081 2.82845 20.8852C1.21372 23.2805 2.45718 26.5469 5.27931 27.3092C5.26641 29.4379 5.17913 31.2841 4.67695 33.8432C4.56498 34.4134 4.93667 34.9665 5.5069 35.0785C6.07728 35.1905 6.63026 34.8189 6.74223 34.2485C7.26827 31.5687 7.36719 29.6458 7.38332 27.4596H19.223C20.0051 27.4596 20.5145 28.2841 20.164 28.9831L18.6677 31.9673C17.6385 34.0256 18.2473 36.4954 20.116 37.8402C21.1406 38.5763 22.4855 38.6387 23.5746 37.985C28.7696 41.9375 31.9571 45.0651 36.0197 49.1302C36.3864 49.4967 36.4331 50.068 36.1314 50.4878C35.3937 51.5131 34.0381 51.8471 32.9097 51.2829L29.9267 49.7872C27.8282 48.7347 25.3549 50.2619 25.3549 52.6095V65.4258C25.3549 66.617 24.4187 67.5991 23.2693 67.6148C22.1727 67.6309 21.1453 66.7963 21.1206 65.4756L21.121 54.9331C21.121 54.3519 20.65 53.8807 20.0687 53.8807C19.4875 53.8807 19.0163 54.3519 19.0163 54.9331L19.0169 67.6106C19.0169 68.7781 18.0671 69.7279 16.8996 69.7279C15.732 69.7279 14.7822 68.778 14.7822 67.6106V54.9332C14.7822 54.352 14.311 53.8809 13.7299 53.8809C13.1487 53.8809 12.6775 54.352 12.6775 54.9332L12.6771 64.4416C12.6771 65.6089 11.7276 66.5584 10.5603 66.5584C9.39276 66.5584 8.44298 65.6084 8.44298 64.441L8.4434 52.8204C8.4434 52.2392 7.97222 51.768 7.39104 51.768C6.80986 51.768 6.33869 52.239 6.33869 52.8204L6.33812 59.1598C6.33812 60.3265 5.38904 61.2757 4.22233 61.2757C3.05478 61.2757 2.10499 60.3265 2.10499 59.1598V52.0094C2.10499 48.4929 2.84276 45.086 4.29796 41.883C4.70796 40.9801 5.07965 40.0584 5.40265 39.1435C5.59614 38.5955 5.30878 37.9944 4.76071 37.8009C4.21279 37.6075 3.61154 37.8947 3.41805 38.4428C3.11525 39.3004 2.76643 40.1652 2.38169 41.0127C0.801193 44.4902 0 48.19 0 52.0088V59.1592C0 62.4134 3.54573 64.4346 6.33798 62.8102V64.4406C6.33798 67.7091 9.90996 69.7295 12.7029 68.0773C12.9361 70.1863 14.7292 71.8324 16.8994 71.8324C18.7394 71.8324 20.3081 70.6494 20.885 69.0039C23.2812 70.6189 26.5485 69.3746 27.3097 66.5509C32.0977 66.5509 36.5299 67.4141 41.0121 69.4509C44.4902 71.0312 48.19 71.8324 52.0088 71.8324H53.0485C53.6297 71.8324 54.1009 71.3612 54.1009 70.78C54.1009 70.1988 53.6297 69.7276 53.0485 69.7276H52.0088C48.4924 69.7276 45.0854 68.9899 41.8828 67.5348C37.2753 65.4411 32.5204 64.4462 27.4595 64.4462V52.6093C27.4595 51.8272 28.2839 51.318 28.983 51.6684L31.9672 53.1647C34.0253 54.1936 36.4951 53.5849 37.84 51.7164C38.5913 50.6709 38.622 49.3162 37.986 48.2568C41.9543 43.0427 45.1097 39.8281 49.1301 35.8126C49.4966 35.446 50.0678 35.3993 50.4876 35.7009C51.5129 36.4387 51.847 37.7941 51.2828 38.9227L49.7871 41.9056C48.7346 44.0042 50.2617 46.4775 52.6093 46.4775H65.4256C66.6169 46.4775 67.5989 47.4136 67.6147 48.5631C67.6284 49.6623 66.7956 50.6869 65.4756 50.7117L54.9329 50.7113C54.3518 50.7113 53.8806 51.1825 53.8806 51.7637C53.8806 52.3448 54.3516 52.816 54.9329 52.816L67.6105 52.8155C68.778 52.8155 69.7278 53.7652 69.7278 54.9328C69.7278 56.1003 68.7779 57.0501 67.6105 57.0501H54.9329C54.3518 57.0501 53.8806 57.5213 53.8806 58.1025C53.8806 58.6837 54.3516 59.1548 54.9329 59.1548L64.4413 59.1553C65.6086 59.1553 66.5581 60.1048 66.5581 61.272C66.5581 62.4396 65.6082 63.3894 64.4408 63.3894L52.8201 63.389C52.2389 63.389 51.7677 63.86 51.7677 64.4413C51.7677 65.0225 52.2388 65.4937 52.8201 65.4937L59.1595 65.4942C60.3262 65.4942 61.2754 66.4433 61.2754 67.61C61.2754 68.7776 60.3262 69.7274 59.1595 69.7274H57.9598C57.3786 69.7274 56.9074 70.1985 56.9074 70.7797C56.9074 71.3609 57.3786 71.8321 57.9598 71.8321H59.1595C62.4136 71.8321 64.4349 68.2863 62.8104 65.4941H64.4409C67.7094 65.4941 69.7298 61.9221 68.0776 59.1292C70.1866 58.896 71.8326 57.1029 71.8326 54.9327C71.8326 53.0927 70.6497 51.524 69.0042 50.9469C70.6174 48.5537 69.379 45.2845 66.5512 44.5223C66.5509 39.4667 67.5762 34.9462 69.4509 30.8203ZM36.5442 46.6778C33.6028 43.738 30.2357 40.4379 25.1555 36.5444C27.9409 33.7614 31.3269 30.3224 35.2879 25.1558C38.0438 27.9167 41.4517 31.2838 46.677 35.2883C43.8957 38.0669 40.5112 41.5038 36.5442 46.6778ZM51.6685 42.8494L53.1648 39.8652C54.194 37.8069 53.5852 35.3371 51.7165 33.9923C50.6708 33.241 49.316 33.2104 48.2567 33.8465C43.1244 29.942 40.0326 26.9292 35.8128 22.7022C35.4461 22.3357 35.3994 21.7645 35.7011 21.3447C36.4388 20.3196 37.7941 19.9853 38.9234 20.5498L41.9718 22.0759C44.0596 23.0693 46.4776 21.5393 46.4776 19.2229V16.1851C46.4776 15.6039 46.0064 15.1327 45.4253 15.1327C44.8441 15.1327 44.3729 15.6039 44.3729 16.1851V19.223C44.3729 19.9898 43.5733 20.5009 42.884 20.1791L39.8652 18.6677C37.8068 17.6386 35.3371 18.2473 33.9923 20.116C33.241 21.1616 33.2104 22.5165 33.8465 23.5757C29.8092 28.8813 26.5724 32.1546 22.7022 36.0196C22.3357 36.3861 21.7645 36.433 21.3447 36.1313C20.3194 35.3935 19.9853 34.0381 20.5495 32.9095L22.0453 29.9266C23.0978 27.8281 21.5706 25.3547 19.223 25.3547H6.40674C5.21547 25.3547 4.23341 24.4186 4.2177 23.2691C4.20283 22.0857 5.15177 21.1215 6.33518 21.1215L16.8994 21.1209C17.4806 21.1209 17.9518 20.6497 17.9518 20.0686C17.9518 19.4874 17.4807 19.0162 16.8994 19.0162L4.22205 19.0168C3.0545 19.0168 2.10471 18.067 2.10471 16.8994C2.10471 15.7319 3.05464 14.7821 4.22205 14.7821H16.8994C17.4806 14.7821 17.9518 14.3109 17.9518 13.7297C17.9518 13.1485 17.4807 12.6774 16.8994 12.6774L7.38613 12.6771C6.22124 12.674 5.2744 11.7256 5.2744 10.56C5.2744 9.39262 6.22419 8.44269 7.39174 8.44269L19.0124 8.44312C19.5936 8.44312 20.0648 7.97208 20.0648 7.39076C20.0648 6.80944 19.5937 6.33841 19.0124 6.33841L12.673 6.33784C11.5063 6.33784 10.5571 5.38876 10.5571 4.22205C10.5572 3.05464 11.5065 2.10471 12.6732 2.10471H19.8236C23.34 2.10471 26.7469 2.84248 29.9496 4.29754C34.6219 6.42077 39.3835 7.38613 44.374 7.38613L44.3729 11.274C44.3728 11.8551 44.8438 12.3264 45.425 12.3266C46.0063 12.3266 46.4775 11.8558 46.4776 11.2745L46.479 6.34668C46.51 5.18727 47.4435 4.23327 48.5632 4.2177C49.6568 4.201 50.6872 5.03461 50.7119 6.35538L50.7114 16.8996C50.7114 17.4807 51.1825 17.9519 51.7638 17.9519C52.345 17.9519 52.8162 17.4807 52.8162 16.8996L52.8156 4.22205C52.8156 3.0545 53.7655 2.10471 54.9329 2.10471C56.1005 2.10471 57.0503 3.05464 57.0503 4.22205V16.8997C57.0503 17.4809 57.5215 17.9521 58.1026 17.9521C58.6838 17.9521 59.155 17.4809 59.155 16.8997L59.1554 7.39132C59.1554 6.22391 60.1048 5.27426 61.2722 5.27426C62.4397 5.27426 63.3895 6.22405 63.3895 7.3916L63.3891 19.0125C63.3891 19.5937 63.8603 20.0649 64.4415 20.0649C65.0226 20.0649 65.4938 19.5939 65.4938 19.0125L65.4944 12.6732C65.4944 11.5041 66.4453 10.5569 67.6102 10.5569C68.7777 10.5569 69.7275 11.5062 69.7275 12.6729V19.8233C69.7275 23.3397 68.9897 26.7467 67.5347 29.9493C65.4411 34.5572 64.4462 39.3119 64.4462 44.3729H52.6093C51.8274 44.3729 51.3179 43.5484 51.6685 42.8494Z" fill="#F36E2A"/>
</svg>
